<svg width="51" height="45" viewBox="0 0 51 45" fill="none" xmlns="http://www.w3.org/2000/svg">
<circle cx="28.5" cy="22.5" r="22.5" transform="rotate(180 28.5 22.5)" fill="url(#paint0_linear_5_108)"/>
<path d="M35.0607 23.0607C35.6464 22.4749 35.6464 21.5251 35.0607 20.9393L25.5147 11.3934C24.9289 10.8076 23.9792 10.8076 23.3934 11.3934C22.8076 11.9792 22.8076 12.9289 23.3934 13.5147L31.8787 22L23.3934 30.4853C22.8076 31.0711 22.8076 32.0208 23.3934 32.6066C23.9792 33.1924 24.9289 33.1924 25.5147 32.6066L35.0607 23.0607ZM-1.32372e-07 23.5L34 23.5L34 20.5L1.32372e-07 20.5L-1.32372e-07 23.5Z" fill="white"/>
<defs>
<linearGradient id="paint0_linear_5_108" x1="2.49701" y1="-60.5769" x2="85.6606" y2="-40.7852" gradientUnits="userSpaceOnUse">
<stop stop-color="#FFE53B"/>
<stop offset="0.927083" stop-color="#FF2525"/>
</linearGradient>
</defs>
</svg>
