<svg aria-hidden="true" style="position: absolute; width: 0; height: 0; overflow: hidden;"
    version="1.1" xmlns="http://www.w3.org/2000/svg" xmlns:xlink="http://www.w3.org/1999/xlink">
    <defs>
        <symbol id="icon-sound-on" viewBox="0 0 32 32">
            <path fill="#ec1119" style="fill: var(--color1, #ec1119)" d="M32 16c0 8.837-7.163 16-16 16s-16-7.163-16-16c0-8.837 7.163-16 16-16s16 7.163 16 16z"></path>
            <path fill="#fff" style="fill: var(--color2, #fff)" d="M22.154 16c0.003 1.289-0.502 2.527-1.407 3.446-0.115 0.114-0.27 0.178-0.431 0.178s-0.317-0.063-0.433-0.176c-0.115-0.113-0.182-0.267-0.184-0.429s0.058-0.318 0.17-0.435c0.676-0.69 1.055-1.618 1.055-2.584s-0.379-1.894-1.055-2.584c-0.111-0.117-0.172-0.273-0.17-0.435s0.069-0.316 0.184-0.429c0.115-0.113 0.271-0.176 0.433-0.176s0.317 0.065 0.431 0.178c0.904 0.918 1.41 2.156 1.407 3.445zM21.959 10.012c-0.119-0.112-0.278-0.171-0.441-0.166s-0.318 0.075-0.429 0.194-0.171 0.278-0.166 0.441c0.005 0.163 0.075 0.318 0.194 0.429 0.713 0.642 1.284 1.427 1.675 2.304s0.592 1.826 0.592 2.786c0 0.96-0.202 1.909-0.592 2.786s-0.961 1.662-1.675 2.304c-0.119 0.112-0.189 0.266-0.194 0.429s0.055 0.322 0.166 0.441c0.112 0.119 0.266 0.189 0.429 0.194s0.322-0.055 0.441-0.166c0.836-0.757 1.505-1.681 1.962-2.712s0.694-2.147 0.694-3.275-0.236-2.244-0.694-3.275c-0.457-1.031-1.126-1.956-1.962-2.713zM18.462 9.797v12.406c-0.003 0.224-0.066 0.443-0.184 0.634s-0.284 0.346-0.483 0.45c-0.199 0.103-0.422 0.151-0.645 0.138s-0.439-0.087-0.625-0.213l-5.026-3.519h-2.268c-0.49 0-0.959-0.195-1.305-0.541s-0.541-0.816-0.541-1.305v-3.692c0-0.49 0.195-0.959 0.541-1.305s0.816-0.541 1.305-0.541h2.268l5.026-3.519c0.185-0.126 0.401-0.2 0.625-0.213s0.447 0.034 0.645 0.138 0.366 0.259 0.483 0.45c0.117 0.191 0.181 0.409 0.183 0.633zM11.077 13.538h-1.846c-0.163 0-0.32 0.065-0.435 0.18s-0.18 0.272-0.18 0.435v3.692c0 0.163 0.065 0.32 0.18 0.435s0.272 0.18 0.435 0.18h1.846v-4.923zM17.234 22.204l-0.004-12.407-4.923 3.446v5.513l4.927 3.447z"></path>
        </symbol>
        <symbol id="icon-sound-off" viewBox="0 0 34 32">
            <path fill="#ec1119" style="fill: var(--color1, #ec1119)" d="M33.185 16c0 8.509-6.898 15.407-15.407 15.407s-15.407-6.898-15.407-15.407c0-8.509 6.898-15.407 15.407-15.407s15.407 6.898 15.407 15.407z"></path>
            <path fill="#fff" style="fill: var(--color2, #fff)" d="M23.704 16c0.003 1.241-0.484 2.434-1.355 3.318-0.111 0.11-0.26 0.171-0.416 0.172s-0.305-0.060-0.417-0.169c-0.111-0.109-0.175-0.257-0.178-0.413s0.056-0.306 0.163-0.419c0.651-0.664 1.016-1.558 1.016-2.488s-0.365-1.824-1.016-2.488c-0.107-0.113-0.166-0.263-0.163-0.419s0.067-0.304 0.178-0.413c0.111-0.109 0.261-0.17 0.417-0.169s0.305 0.062 0.416 0.172c0.871 0.884 1.358 2.076 1.355 3.317zM23.516 10.234c-0.115-0.107-0.267-0.165-0.425-0.16s-0.306 0.072-0.413 0.187-0.165 0.268-0.16 0.425c0.005 0.157 0.072 0.306 0.187 0.413 0.687 0.618 1.236 1.374 1.613 2.218s0.57 1.758 0.57 2.683c0 0.924-0.194 1.838-0.57 2.683s-0.925 1.6-1.613 2.218c-0.115 0.108-0.182 0.256-0.187 0.413s0.052 0.31 0.16 0.424c0.108 0.115 0.256 0.182 0.413 0.187s0.31-0.052 0.424-0.16c0.805-0.729 1.449-1.619 1.89-2.612s0.668-2.067 0.668-3.154-0.228-2.161-0.668-3.154c-0.441-0.993-1.084-1.883-1.89-2.612zM20.148 10.027v11.947c-0.003 0.216-0.064 0.427-0.177 0.61s-0.274 0.333-0.465 0.433c-0.191 0.1-0.406 0.145-0.621 0.133s-0.423-0.084-0.601-0.205l-4.84-3.388h-2.184c-0.471 0-0.924-0.187-1.257-0.521s-0.521-0.786-0.521-1.257v-3.556c0-0.471 0.187-0.924 0.521-1.257s0.786-0.521 1.257-0.521h2.184l4.84-3.388c0.178-0.122 0.386-0.192 0.602-0.205s0.43 0.033 0.622 0.133 0.352 0.249 0.465 0.433c0.113 0.184 0.174 0.394 0.177 0.61zM13.037 13.63h-1.778c-0.157 0-0.308 0.062-0.419 0.174s-0.174 0.262-0.174 0.419v3.556c0 0.157 0.062 0.308 0.174 0.419s0.262 0.174 0.419 0.174h1.778v-4.741zM18.967 21.975l-0.004-11.947-4.741 3.319v5.309l4.744 3.32z"></path>
            <path fill="none" stroke="#fff" style="stroke: var(--color2, #fff)" stroke-linejoin="miter" stroke-linecap="butt" stroke-miterlimit="4" stroke-width="1.7778" d="M32.889 1.185l-32 29.926"></path>
        </symbol>
    </defs>
</svg>
