<svg width="1108" height="203" viewBox="0 0 1108 203" fill="none" xmlns="http://www.w3.org/2000/svg">
<g filter="url(#filter0_d_3_66)">
<mask id="path-1-outside-1_3_66" maskUnits="userSpaceOnUse" x="18" y="14" width="1072" height="167" fill="black">
<rect fill="white" x="18" y="14" width="1072" height="167"/>
<path d="M56.0137 76H20.7402V17.1836H54.6602V27.9707H33.9883V41.0547H53.2246V51.8008H33.9883V65.2539H56.0137V76ZM113.805 76H98.0957L87.9648 56.8457C87.582 56.1348 87.1855 54.8223 86.7754 52.9082H86.6113C86.4199 53.8105 85.9688 55.1777 85.2578 57.0098L75.0859 76H59.2949L78.0391 46.5918L60.8945 17.1836H77.0137L85.4219 34.8203C86.0781 36.2148 86.666 37.8691 87.1855 39.7832H87.3496C87.6777 38.6348 88.293 36.9258 89.1953 34.6562L98.5469 17.1836H113.312L95.6758 46.3457L113.805 76ZM134.066 55.7383V76H120.818V17.1836H141.572C156.393 17.1836 163.803 23.4316 163.803 35.9277C163.803 41.834 161.67 46.6191 157.404 50.2832C153.166 53.9199 147.492 55.7383 140.383 55.7383H134.066ZM134.066 27.3555V45.6895H139.275C146.33 45.6895 149.857 42.5996 149.857 36.4199C149.857 30.377 146.33 27.3555 139.275 27.3555H134.066ZM207.443 76H172.416V17.1836H185.664V65.2539H207.443V76ZM237.385 77.0254C228.963 77.0254 222.1 74.291 216.795 68.8223C211.49 63.3262 208.838 56.1758 208.838 47.3711C208.838 38.0742 211.531 30.5547 216.918 24.8125C222.305 19.0703 229.441 16.1992 238.328 16.1992C246.723 16.1992 253.504 18.9473 258.672 24.4434C263.867 29.9395 266.465 37.1855 266.465 46.1816C266.465 55.4238 263.771 62.875 258.385 68.5352C253.025 74.1953 246.025 77.0254 237.385 77.0254ZM237.959 27.6016C233.311 27.6016 229.619 29.3516 226.885 32.8516C224.15 36.3242 222.783 40.9316 222.783 46.6738C222.783 52.498 224.15 57.1055 226.885 60.4961C229.619 63.8867 233.201 65.582 237.631 65.582C242.197 65.582 245.82 63.9414 248.5 60.6602C251.18 57.3516 252.52 52.7715 252.52 46.9199C252.52 40.8223 251.221 36.0781 248.623 32.6875C246.025 29.2969 242.471 27.6016 237.959 27.6016ZM325.609 76H310.393L301.246 60.8652C300.562 59.7168 299.906 58.6914 299.277 57.7891C298.648 56.8867 298.006 56.1211 297.35 55.4922C296.721 54.8359 296.051 54.3438 295.34 54.0156C294.656 53.6602 293.904 53.4824 293.084 53.4824H289.516V76H276.268V17.1836H297.268C311.541 17.1836 318.678 22.5156 318.678 33.1797C318.678 35.2305 318.363 37.1309 317.734 38.8809C317.105 40.6035 316.217 42.1621 315.068 43.5566C313.92 44.9512 312.525 46.1543 310.885 47.166C309.271 48.1777 307.467 48.9707 305.471 49.5449V49.709C306.346 49.9824 307.193 50.4336 308.014 51.0625C308.834 51.6641 309.627 52.375 310.393 53.1953C311.158 54.0156 311.883 54.9043 312.566 55.8613C313.277 56.791 313.92 57.707 314.494 58.6094L325.609 76ZM289.516 27.1094V43.4746H295.258C298.102 43.4746 300.385 42.6543 302.107 41.0137C303.857 39.3457 304.732 37.2812 304.732 34.8203C304.732 29.6797 301.656 27.1094 295.504 27.1094H289.516ZM366.42 76H331.146V17.1836H365.066V27.9707H344.395V41.0547H363.631V51.8008H344.395V65.2539H366.42V76ZM423.924 77.0254C415.502 77.0254 408.639 74.291 403.334 68.8223C398.029 63.3262 395.377 56.1758 395.377 47.3711C395.377 38.0742 398.07 30.5547 403.457 24.8125C408.844 19.0703 415.98 16.1992 424.867 16.1992C433.262 16.1992 440.043 18.9473 445.211 24.4434C450.406 29.9395 453.004 37.1855 453.004 46.1816C453.004 55.4238 450.311 62.875 444.924 68.5352C439.564 74.1953 432.564 77.0254 423.924 77.0254ZM424.498 27.6016C419.85 27.6016 416.158 29.3516 413.424 32.8516C410.689 36.3242 409.322 40.9316 409.322 46.6738C409.322 52.498 410.689 57.1055 413.424 60.4961C416.158 63.8867 419.74 65.582 424.17 65.582C428.736 65.582 432.359 63.9414 435.039 60.6602C437.719 57.3516 439.059 52.7715 439.059 46.9199C439.059 40.8223 437.76 36.0781 435.162 32.6875C432.564 29.2969 429.01 27.6016 424.498 27.6016ZM510.754 50.5293C510.754 68.1934 502.523 77.0254 486.062 77.0254C470.094 77.0254 462.109 68.3984 462.109 51.1445V17.1836H475.398V51.3086C475.398 60.8242 479.117 65.582 486.555 65.582C493.855 65.582 497.506 60.9883 497.506 51.8008V17.1836H510.754V50.5293ZM572.934 76H557.717L548.57 60.8652C547.887 59.7168 547.23 58.6914 546.602 57.7891C545.973 56.8867 545.33 56.1211 544.674 55.4922C544.045 54.8359 543.375 54.3438 542.664 54.0156C541.98 53.6602 541.229 53.4824 540.408 53.4824H536.84V76H523.592V17.1836H544.592C558.865 17.1836 566.002 22.5156 566.002 33.1797C566.002 35.2305 565.688 37.1309 565.059 38.8809C564.43 40.6035 563.541 42.1621 562.393 43.5566C561.244 44.9512 559.85 46.1543 558.209 47.166C556.596 48.1777 554.791 48.9707 552.795 49.5449V49.709C553.67 49.9824 554.518 50.4336 555.338 51.0625C556.158 51.6641 556.951 52.375 557.717 53.1953C558.482 54.0156 559.207 54.9043 559.891 55.8613C560.602 56.791 561.244 57.707 561.818 58.6094L572.934 76ZM536.84 27.1094V43.4746H542.582C545.426 43.4746 547.709 42.6543 549.432 41.0137C551.182 39.3457 552.057 37.2812 552.057 34.8203C552.057 29.6797 548.98 27.1094 542.828 27.1094H536.84ZM614.934 76H601.686V17.1836H614.934V76ZM681.256 76H667.885L643.645 39.0449C642.223 36.8848 641.238 35.2578 640.691 34.1641H640.527C640.746 36.2422 640.855 39.4141 640.855 43.6797V76H628.346V17.1836H642.619L665.957 52.9902C667.023 54.6035 668.008 56.2031 668.91 57.7891H669.074C668.855 56.4219 668.746 53.7285 668.746 49.709V17.1836H681.256V76ZM736.012 27.9707H719.236V76H705.947V27.9707H689.254V17.1836H736.012V27.9707ZM793.27 76H778.053L768.906 60.8652C768.223 59.7168 767.566 58.6914 766.938 57.7891C766.309 56.8867 765.666 56.1211 765.01 55.4922C764.381 54.8359 763.711 54.3438 763 54.0156C762.316 53.6602 761.564 53.4824 760.744 53.4824H757.176V76H743.928V17.1836H764.928C779.201 17.1836 786.338 22.5156 786.338 33.1797C786.338 35.2305 786.023 37.1309 785.395 38.8809C784.766 40.6035 783.877 42.1621 782.729 43.5566C781.58 44.9512 780.186 46.1543 778.545 47.166C776.932 48.1777 775.127 48.9707 773.131 49.5449V49.709C774.006 49.9824 774.854 50.4336 775.674 51.0625C776.494 51.6641 777.287 52.375 778.053 53.1953C778.818 54.0156 779.543 54.9043 780.227 55.8613C780.938 56.791 781.58 57.707 782.154 58.6094L793.27 76ZM757.176 27.1094V43.4746H762.918C765.762 43.4746 768.045 42.6543 769.768 41.0137C771.518 39.3457 772.393 37.2812 772.393 34.8203C772.393 29.6797 769.316 27.1094 763.164 27.1094H757.176ZM812.055 76H798.807V17.1836H812.055V76ZM873.742 72.0625C868 75.3711 860.863 77.0254 852.332 77.0254C842.871 77.0254 835.406 74.4141 829.938 69.1914C824.496 63.9414 821.775 56.7227 821.775 47.5352C821.775 38.293 824.756 30.7598 830.717 24.9355C836.678 19.1113 844.607 16.1992 854.506 16.1992C860.74 16.1992 866.236 17.0605 870.994 18.7832V31.2109C866.455 28.5859 860.904 27.2734 854.342 27.2734C848.846 27.2734 844.361 29.0645 840.889 32.6465C837.443 36.2012 835.721 40.959 835.721 46.9199C835.721 52.9629 837.266 57.6387 840.355 60.9473C843.473 64.2559 847.67 65.9102 852.947 65.9102C856.119 65.9102 858.635 65.459 860.494 64.5566V53.0723H848.723V42.4902H873.742V72.0625ZM933.133 50.5293C933.133 68.1934 924.902 77.0254 908.441 77.0254C892.473 77.0254 884.488 68.3984 884.488 51.1445V17.1836H897.777V51.3086C897.777 60.8242 901.496 65.582 908.934 65.582C916.234 65.582 919.885 60.9883 919.885 51.8008V17.1836H933.133V50.5293ZM959.219 76H945.971V17.1836H959.219V76ZM1025.54 76H1012.17L987.93 39.0449C986.508 36.8848 985.523 35.2578 984.977 34.1641H984.812C985.031 36.2422 985.141 39.4141 985.141 43.6797V76H972.631V17.1836H986.904L1010.24 52.9902C1011.31 54.6035 1012.29 56.2031 1013.2 57.7891H1013.36C1013.14 56.4219 1013.03 53.7285 1013.03 49.709V17.1836H1025.54V76ZM1087.27 72.0625C1081.53 75.3711 1074.39 77.0254 1065.86 77.0254C1056.4 77.0254 1048.93 74.4141 1043.46 69.1914C1038.02 63.9414 1035.3 56.7227 1035.3 47.5352C1035.3 38.293 1038.28 30.7598 1044.24 24.9355C1050.21 19.1113 1058.13 16.1992 1068.03 16.1992C1074.27 16.1992 1079.76 17.0605 1084.52 18.7832V31.2109C1079.98 28.5859 1074.43 27.2734 1067.87 27.2734C1062.37 27.2734 1057.89 29.0645 1054.42 32.6465C1050.97 36.2012 1049.25 40.959 1049.25 46.9199C1049.25 52.9629 1050.79 57.6387 1053.88 60.9473C1057 64.2559 1061.2 65.9102 1066.47 65.9102C1069.65 65.9102 1072.16 65.459 1074.02 64.5566V53.0723H1062.25V42.4902H1087.27V72.0625ZM369.127 175.072V163.793C373.064 166.664 377.658 168.1 382.908 168.1C386.217 168.1 388.787 167.389 390.619 165.967C392.479 164.545 393.408 162.562 393.408 160.02C393.408 157.395 392.26 155.371 389.963 153.949C387.693 152.527 384.562 151.816 380.57 151.816H375.115V141.891H380.16C387.816 141.891 391.645 139.348 391.645 134.262C391.645 129.477 388.705 127.084 382.826 127.084C378.889 127.084 375.061 128.355 371.342 130.898V120.316C375.471 118.238 380.283 117.199 385.779 117.199C391.795 117.199 396.471 118.553 399.807 121.26C403.17 123.967 404.852 127.48 404.852 131.801C404.852 139.484 400.955 144.297 393.162 146.238V146.443C397.318 146.963 400.6 148.48 403.006 150.996C405.412 153.484 406.615 156.547 406.615 160.184C406.615 165.68 404.605 170.027 400.586 173.227C396.566 176.426 391.016 178.025 383.934 178.025C377.863 178.025 372.928 177.041 369.127 175.072ZM419.371 177V118.184H440.207C461.098 118.184 471.543 127.74 471.543 146.854C471.543 156.014 468.686 163.328 462.971 168.797C457.283 174.266 449.695 177 440.207 177H419.371ZM432.619 128.971V166.254H439.182C444.924 166.254 449.422 164.531 452.676 161.086C455.957 157.641 457.598 152.951 457.598 147.018C457.598 141.412 455.971 137.01 452.717 133.811C449.49 130.584 444.951 128.971 439.1 128.971H432.619ZM552.795 173.062C547.053 176.371 539.916 178.025 531.385 178.025C521.924 178.025 514.459 175.414 508.99 170.191C503.549 164.941 500.828 157.723 500.828 148.535C500.828 139.293 503.809 131.76 509.77 125.936C515.73 120.111 523.66 117.199 533.559 117.199C539.793 117.199 545.289 118.061 550.047 119.783V132.211C545.508 129.586 539.957 128.273 533.395 128.273C527.898 128.273 523.414 130.064 519.941 133.646C516.496 137.201 514.773 141.959 514.773 147.92C514.773 153.963 516.318 158.639 519.408 161.947C522.525 165.256 526.723 166.91 532 166.91C535.172 166.91 537.688 166.459 539.547 165.557V154.072H527.775V143.49H552.795V173.062ZM615.959 177H601.521L597.338 163.916H576.42L572.277 177H557.922L579.332 118.184H595.041L615.959 177ZM594.303 153.744L587.986 133.975C587.521 132.498 587.193 130.734 587.002 128.684H586.674C586.537 130.406 586.195 132.115 585.648 133.811L579.25 153.744H594.303ZM690.32 177H677.236V141.809C677.236 138.008 677.4 133.811 677.729 129.217H677.4C676.717 132.826 676.102 135.424 675.555 137.01L661.773 177H650.945L636.918 137.42C636.535 136.354 635.92 133.619 635.072 129.217H634.703C635.059 135.014 635.236 140.1 635.236 144.475V177H623.301V118.184H642.701L654.719 153.047C655.676 155.836 656.373 158.639 656.811 161.455H657.057C657.795 158.201 658.574 155.371 659.395 152.965L671.412 118.184H690.32V177ZM738.965 177H703.691V118.184H737.611V128.971H716.939V142.055H736.176V152.801H716.939V166.254H738.965V177Z"/>
</mask>
<path d="M56.0137 76H20.7402V17.1836H54.6602V27.9707H33.9883V41.0547H53.2246V51.8008H33.9883V65.2539H56.0137V76ZM113.805 76H98.0957L87.9648 56.8457C87.582 56.1348 87.1855 54.8223 86.7754 52.9082H86.6113C86.4199 53.8105 85.9688 55.1777 85.2578 57.0098L75.0859 76H59.2949L78.0391 46.5918L60.8945 17.1836H77.0137L85.4219 34.8203C86.0781 36.2148 86.666 37.8691 87.1855 39.7832H87.3496C87.6777 38.6348 88.293 36.9258 89.1953 34.6562L98.5469 17.1836H113.312L95.6758 46.3457L113.805 76ZM134.066 55.7383V76H120.818V17.1836H141.572C156.393 17.1836 163.803 23.4316 163.803 35.9277C163.803 41.834 161.67 46.6191 157.404 50.2832C153.166 53.9199 147.492 55.7383 140.383 55.7383H134.066ZM134.066 27.3555V45.6895H139.275C146.33 45.6895 149.857 42.5996 149.857 36.4199C149.857 30.377 146.33 27.3555 139.275 27.3555H134.066ZM207.443 76H172.416V17.1836H185.664V65.2539H207.443V76ZM237.385 77.0254C228.963 77.0254 222.1 74.291 216.795 68.8223C211.49 63.3262 208.838 56.1758 208.838 47.3711C208.838 38.0742 211.531 30.5547 216.918 24.8125C222.305 19.0703 229.441 16.1992 238.328 16.1992C246.723 16.1992 253.504 18.9473 258.672 24.4434C263.867 29.9395 266.465 37.1855 266.465 46.1816C266.465 55.4238 263.771 62.875 258.385 68.5352C253.025 74.1953 246.025 77.0254 237.385 77.0254ZM237.959 27.6016C233.311 27.6016 229.619 29.3516 226.885 32.8516C224.15 36.3242 222.783 40.9316 222.783 46.6738C222.783 52.498 224.15 57.1055 226.885 60.4961C229.619 63.8867 233.201 65.582 237.631 65.582C242.197 65.582 245.82 63.9414 248.5 60.6602C251.18 57.3516 252.52 52.7715 252.52 46.9199C252.52 40.8223 251.221 36.0781 248.623 32.6875C246.025 29.2969 242.471 27.6016 237.959 27.6016ZM325.609 76H310.393L301.246 60.8652C300.562 59.7168 299.906 58.6914 299.277 57.7891C298.648 56.8867 298.006 56.1211 297.35 55.4922C296.721 54.8359 296.051 54.3438 295.34 54.0156C294.656 53.6602 293.904 53.4824 293.084 53.4824H289.516V76H276.268V17.1836H297.268C311.541 17.1836 318.678 22.5156 318.678 33.1797C318.678 35.2305 318.363 37.1309 317.734 38.8809C317.105 40.6035 316.217 42.1621 315.068 43.5566C313.92 44.9512 312.525 46.1543 310.885 47.166C309.271 48.1777 307.467 48.9707 305.471 49.5449V49.709C306.346 49.9824 307.193 50.4336 308.014 51.0625C308.834 51.6641 309.627 52.375 310.393 53.1953C311.158 54.0156 311.883 54.9043 312.566 55.8613C313.277 56.791 313.92 57.707 314.494 58.6094L325.609 76ZM289.516 27.1094V43.4746H295.258C298.102 43.4746 300.385 42.6543 302.107 41.0137C303.857 39.3457 304.732 37.2812 304.732 34.8203C304.732 29.6797 301.656 27.1094 295.504 27.1094H289.516ZM366.42 76H331.146V17.1836H365.066V27.9707H344.395V41.0547H363.631V51.8008H344.395V65.2539H366.42V76ZM423.924 77.0254C415.502 77.0254 408.639 74.291 403.334 68.8223C398.029 63.3262 395.377 56.1758 395.377 47.3711C395.377 38.0742 398.07 30.5547 403.457 24.8125C408.844 19.0703 415.98 16.1992 424.867 16.1992C433.262 16.1992 440.043 18.9473 445.211 24.4434C450.406 29.9395 453.004 37.1855 453.004 46.1816C453.004 55.4238 450.311 62.875 444.924 68.5352C439.564 74.1953 432.564 77.0254 423.924 77.0254ZM424.498 27.6016C419.85 27.6016 416.158 29.3516 413.424 32.8516C410.689 36.3242 409.322 40.9316 409.322 46.6738C409.322 52.498 410.689 57.1055 413.424 60.4961C416.158 63.8867 419.74 65.582 424.17 65.582C428.736 65.582 432.359 63.9414 435.039 60.6602C437.719 57.3516 439.059 52.7715 439.059 46.9199C439.059 40.8223 437.76 36.0781 435.162 32.6875C432.564 29.2969 429.01 27.6016 424.498 27.6016ZM510.754 50.5293C510.754 68.1934 502.523 77.0254 486.062 77.0254C470.094 77.0254 462.109 68.3984 462.109 51.1445V17.1836H475.398V51.3086C475.398 60.8242 479.117 65.582 486.555 65.582C493.855 65.582 497.506 60.9883 497.506 51.8008V17.1836H510.754V50.5293ZM572.934 76H557.717L548.57 60.8652C547.887 59.7168 547.23 58.6914 546.602 57.7891C545.973 56.8867 545.33 56.1211 544.674 55.4922C544.045 54.8359 543.375 54.3438 542.664 54.0156C541.98 53.6602 541.229 53.4824 540.408 53.4824H536.84V76H523.592V17.1836H544.592C558.865 17.1836 566.002 22.5156 566.002 33.1797C566.002 35.2305 565.688 37.1309 565.059 38.8809C564.43 40.6035 563.541 42.1621 562.393 43.5566C561.244 44.9512 559.85 46.1543 558.209 47.166C556.596 48.1777 554.791 48.9707 552.795 49.5449V49.709C553.67 49.9824 554.518 50.4336 555.338 51.0625C556.158 51.6641 556.951 52.375 557.717 53.1953C558.482 54.0156 559.207 54.9043 559.891 55.8613C560.602 56.791 561.244 57.707 561.818 58.6094L572.934 76ZM536.84 27.1094V43.4746H542.582C545.426 43.4746 547.709 42.6543 549.432 41.0137C551.182 39.3457 552.057 37.2812 552.057 34.8203C552.057 29.6797 548.98 27.1094 542.828 27.1094H536.84ZM614.934 76H601.686V17.1836H614.934V76ZM681.256 76H667.885L643.645 39.0449C642.223 36.8848 641.238 35.2578 640.691 34.1641H640.527C640.746 36.2422 640.855 39.4141 640.855 43.6797V76H628.346V17.1836H642.619L665.957 52.9902C667.023 54.6035 668.008 56.2031 668.91 57.7891H669.074C668.855 56.4219 668.746 53.7285 668.746 49.709V17.1836H681.256V76ZM736.012 27.9707H719.236V76H705.947V27.9707H689.254V17.1836H736.012V27.9707ZM793.27 76H778.053L768.906 60.8652C768.223 59.7168 767.566 58.6914 766.938 57.7891C766.309 56.8867 765.666 56.1211 765.01 55.4922C764.381 54.8359 763.711 54.3438 763 54.0156C762.316 53.6602 761.564 53.4824 760.744 53.4824H757.176V76H743.928V17.1836H764.928C779.201 17.1836 786.338 22.5156 786.338 33.1797C786.338 35.2305 786.023 37.1309 785.395 38.8809C784.766 40.6035 783.877 42.1621 782.729 43.5566C781.58 44.9512 780.186 46.1543 778.545 47.166C776.932 48.1777 775.127 48.9707 773.131 49.5449V49.709C774.006 49.9824 774.854 50.4336 775.674 51.0625C776.494 51.6641 777.287 52.375 778.053 53.1953C778.818 54.0156 779.543 54.9043 780.227 55.8613C780.938 56.791 781.58 57.707 782.154 58.6094L793.27 76ZM757.176 27.1094V43.4746H762.918C765.762 43.4746 768.045 42.6543 769.768 41.0137C771.518 39.3457 772.393 37.2812 772.393 34.8203C772.393 29.6797 769.316 27.1094 763.164 27.1094H757.176ZM812.055 76H798.807V17.1836H812.055V76ZM873.742 72.0625C868 75.3711 860.863 77.0254 852.332 77.0254C842.871 77.0254 835.406 74.4141 829.938 69.1914C824.496 63.9414 821.775 56.7227 821.775 47.5352C821.775 38.293 824.756 30.7598 830.717 24.9355C836.678 19.1113 844.607 16.1992 854.506 16.1992C860.74 16.1992 866.236 17.0605 870.994 18.7832V31.2109C866.455 28.5859 860.904 27.2734 854.342 27.2734C848.846 27.2734 844.361 29.0645 840.889 32.6465C837.443 36.2012 835.721 40.959 835.721 46.9199C835.721 52.9629 837.266 57.6387 840.355 60.9473C843.473 64.2559 847.67 65.9102 852.947 65.9102C856.119 65.9102 858.635 65.459 860.494 64.5566V53.0723H848.723V42.4902H873.742V72.0625ZM933.133 50.5293C933.133 68.1934 924.902 77.0254 908.441 77.0254C892.473 77.0254 884.488 68.3984 884.488 51.1445V17.1836H897.777V51.3086C897.777 60.8242 901.496 65.582 908.934 65.582C916.234 65.582 919.885 60.9883 919.885 51.8008V17.1836H933.133V50.5293ZM959.219 76H945.971V17.1836H959.219V76ZM1025.54 76H1012.17L987.93 39.0449C986.508 36.8848 985.523 35.2578 984.977 34.1641H984.812C985.031 36.2422 985.141 39.4141 985.141 43.6797V76H972.631V17.1836H986.904L1010.24 52.9902C1011.31 54.6035 1012.29 56.2031 1013.2 57.7891H1013.36C1013.14 56.4219 1013.03 53.7285 1013.03 49.709V17.1836H1025.54V76ZM1087.27 72.0625C1081.53 75.3711 1074.39 77.0254 1065.86 77.0254C1056.4 77.0254 1048.93 74.4141 1043.46 69.1914C1038.02 63.9414 1035.3 56.7227 1035.3 47.5352C1035.3 38.293 1038.28 30.7598 1044.24 24.9355C1050.21 19.1113 1058.13 16.1992 1068.03 16.1992C1074.27 16.1992 1079.76 17.0605 1084.52 18.7832V31.2109C1079.98 28.5859 1074.43 27.2734 1067.87 27.2734C1062.37 27.2734 1057.89 29.0645 1054.42 32.6465C1050.97 36.2012 1049.25 40.959 1049.25 46.9199C1049.25 52.9629 1050.79 57.6387 1053.88 60.9473C1057 64.2559 1061.2 65.9102 1066.47 65.9102C1069.65 65.9102 1072.16 65.459 1074.02 64.5566V53.0723H1062.25V42.4902H1087.27V72.0625ZM369.127 175.072V163.793C373.064 166.664 377.658 168.1 382.908 168.1C386.217 168.1 388.787 167.389 390.619 165.967C392.479 164.545 393.408 162.562 393.408 160.02C393.408 157.395 392.26 155.371 389.963 153.949C387.693 152.527 384.562 151.816 380.57 151.816H375.115V141.891H380.16C387.816 141.891 391.645 139.348 391.645 134.262C391.645 129.477 388.705 127.084 382.826 127.084C378.889 127.084 375.061 128.355 371.342 130.898V120.316C375.471 118.238 380.283 117.199 385.779 117.199C391.795 117.199 396.471 118.553 399.807 121.26C403.17 123.967 404.852 127.48 404.852 131.801C404.852 139.484 400.955 144.297 393.162 146.238V146.443C397.318 146.963 400.6 148.48 403.006 150.996C405.412 153.484 406.615 156.547 406.615 160.184C406.615 165.68 404.605 170.027 400.586 173.227C396.566 176.426 391.016 178.025 383.934 178.025C377.863 178.025 372.928 177.041 369.127 175.072ZM419.371 177V118.184H440.207C461.098 118.184 471.543 127.74 471.543 146.854C471.543 156.014 468.686 163.328 462.971 168.797C457.283 174.266 449.695 177 440.207 177H419.371ZM432.619 128.971V166.254H439.182C444.924 166.254 449.422 164.531 452.676 161.086C455.957 157.641 457.598 152.951 457.598 147.018C457.598 141.412 455.971 137.01 452.717 133.811C449.49 130.584 444.951 128.971 439.1 128.971H432.619ZM552.795 173.062C547.053 176.371 539.916 178.025 531.385 178.025C521.924 178.025 514.459 175.414 508.99 170.191C503.549 164.941 500.828 157.723 500.828 148.535C500.828 139.293 503.809 131.76 509.77 125.936C515.73 120.111 523.66 117.199 533.559 117.199C539.793 117.199 545.289 118.061 550.047 119.783V132.211C545.508 129.586 539.957 128.273 533.395 128.273C527.898 128.273 523.414 130.064 519.941 133.646C516.496 137.201 514.773 141.959 514.773 147.92C514.773 153.963 516.318 158.639 519.408 161.947C522.525 165.256 526.723 166.91 532 166.91C535.172 166.91 537.688 166.459 539.547 165.557V154.072H527.775V143.49H552.795V173.062ZM615.959 177H601.521L597.338 163.916H576.42L572.277 177H557.922L579.332 118.184H595.041L615.959 177ZM594.303 153.744L587.986 133.975C587.521 132.498 587.193 130.734 587.002 128.684H586.674C586.537 130.406 586.195 132.115 585.648 133.811L579.25 153.744H594.303ZM690.32 177H677.236V141.809C677.236 138.008 677.4 133.811 677.729 129.217H677.4C676.717 132.826 676.102 135.424 675.555 137.01L661.773 177H650.945L636.918 137.42C636.535 136.354 635.92 133.619 635.072 129.217H634.703C635.059 135.014 635.236 140.1 635.236 144.475V177H623.301V118.184H642.701L654.719 153.047C655.676 155.836 656.373 158.639 656.811 161.455H657.057C657.795 158.201 658.574 155.371 659.395 152.965L671.412 118.184H690.32V177ZM738.965 177H703.691V118.184H737.611V128.971H716.939V142.055H736.176V152.801H716.939V166.254H738.965V177Z" fill="url(#paint0_linear_3_66)"/>
<path d="M56.0137 76V78H58.0137V76H56.0137ZM20.7402 76H18.7402V78H20.7402V76ZM20.7402 17.1836V15.1836H18.7402V17.1836H20.7402ZM54.6602 17.1836H56.6602V15.1836H54.6602V17.1836ZM54.6602 27.9707V29.9707H56.6602V27.9707H54.6602ZM33.9883 27.9707V25.9707H31.9883V27.9707H33.9883ZM33.9883 41.0547H31.9883V43.0547H33.9883V41.0547ZM53.2246 41.0547H55.2246V39.0547H53.2246V41.0547ZM53.2246 51.8008V53.8008H55.2246V51.8008H53.2246ZM33.9883 51.8008V49.8008H31.9883V51.8008H33.9883ZM33.9883 65.2539H31.9883V67.2539H33.9883V65.2539ZM56.0137 65.2539H58.0137V63.2539H56.0137V65.2539ZM56.0137 74H20.7402V78H56.0137V74ZM22.7402 76V17.1836H18.7402V76H22.7402ZM20.7402 19.1836H54.6602V15.1836H20.7402V19.1836ZM52.6602 17.1836V27.9707H56.6602V17.1836H52.6602ZM54.6602 25.9707H33.9883V29.9707H54.6602V25.9707ZM31.9883 27.9707V41.0547H35.9883V27.9707H31.9883ZM33.9883 43.0547H53.2246V39.0547H33.9883V43.0547ZM51.2246 41.0547V51.8008H55.2246V41.0547H51.2246ZM53.2246 49.8008H33.9883V53.8008H53.2246V49.8008ZM31.9883 51.8008V65.2539H35.9883V51.8008H31.9883ZM33.9883 67.2539H56.0137V63.2539H33.9883V67.2539ZM54.0137 65.2539V76H58.0137V65.2539H54.0137ZM113.805 76V78H117.372L115.511 74.9568L113.805 76ZM98.0957 76L96.3278 76.9351L96.891 78H98.0957V76ZM87.9648 56.8457L89.7328 55.9106L89.7293 55.9041L89.7258 55.8975L87.9648 56.8457ZM86.7754 52.9082L88.731 52.4891L88.3922 50.9082H86.7754V52.9082ZM86.6113 52.9082V50.9082H84.9911L84.6549 52.4932L86.6113 52.9082ZM85.2578 57.0098L87.0208 57.9541L87.0783 57.8468L87.1223 57.7333L85.2578 57.0098ZM75.0859 76V78H76.2835L76.849 76.9443L75.0859 76ZM59.2949 76L57.6084 74.925L55.6485 78H59.2949V76ZM78.0391 46.5918L79.7256 47.6668L80.3812 46.6382L79.7669 45.5845L78.0391 46.5918ZM60.8945 17.1836V15.1836H57.4135L59.1667 18.1909L60.8945 17.1836ZM77.0137 17.1836L78.819 16.3229L78.2758 15.1836H77.0137V17.1836ZM85.4219 34.8203L87.2315 33.9687L87.2272 33.9596L85.4219 34.8203ZM87.1855 39.7832L85.2554 40.3071L85.656 41.7832H87.1855V39.7832ZM87.3496 39.7832V41.7832H88.8582L89.2727 40.3326L87.3496 39.7832ZM89.1953 34.6562L87.432 33.7125L87.3786 33.8122L87.3368 33.9173L89.1953 34.6562ZM98.5469 17.1836V15.1836H97.3489L96.7835 16.2398L98.5469 17.1836ZM113.312 17.1836L115.024 18.2186L116.859 15.1836H113.312V17.1836ZM95.6758 46.3457L93.9644 45.3107L93.3351 46.3513L93.9694 47.3889L95.6758 46.3457ZM113.805 74H98.0957V78H113.805V74ZM99.8636 75.0649L89.7328 55.9106L86.1969 57.7808L96.3278 76.9351L99.8636 75.0649ZM89.7258 55.8975C89.4923 55.4639 89.1419 54.4066 88.731 52.4891L84.8198 53.3273C85.2292 55.238 85.6717 56.8056 86.2039 57.7939L89.7258 55.8975ZM86.7754 50.9082H86.6113V54.9082H86.7754V50.9082ZM84.6549 52.4932C84.499 53.2279 84.0986 54.4686 83.3933 56.2862L87.1223 57.7333C87.8389 55.8869 88.3408 54.3932 88.5678 53.3232L84.6549 52.4932ZM83.4948 56.0654L73.3229 75.0557L76.849 76.9443L87.0208 57.9541L83.4948 56.0654ZM75.0859 74H59.2949V78H75.0859V74ZM60.9815 77.075L79.7256 47.6668L76.3525 45.5168L57.6084 74.925L60.9815 77.075ZM79.7669 45.5845L62.6224 16.1763L59.1667 18.1909L76.3112 47.5991L79.7669 45.5845ZM60.8945 19.1836H77.0137V15.1836H60.8945V19.1836ZM75.2083 18.0443L83.6165 35.681L87.2272 33.9596L78.819 16.3229L75.2083 18.0443ZM83.6122 35.6719C84.2071 36.936 84.7582 38.4754 85.2554 40.3071L89.1157 39.2593C88.5738 37.2629 87.9492 35.4937 87.2315 33.9687L83.6122 35.6719ZM87.1855 41.7832H87.3496V37.7832H87.1855V41.7832ZM89.2727 40.3326C89.572 39.285 90.1563 37.6526 91.0538 35.3952L87.3368 33.9173C86.4297 36.1989 85.7835 37.9846 85.4266 39.2338L89.2727 40.3326ZM90.9586 35.6L100.31 18.1273L96.7835 16.2398L87.432 33.7125L90.9586 35.6ZM98.5469 19.1836H113.312V15.1836H98.5469V19.1836ZM111.601 16.1486L93.9644 45.3107L97.3871 47.3807L115.024 18.2186L111.601 16.1486ZM93.9694 47.3889L112.098 77.0432L115.511 74.9568L97.3822 45.3025L93.9694 47.3889ZM134.066 55.7383V53.7383H132.066V55.7383H134.066ZM134.066 76V78H136.066V76H134.066ZM120.818 76H118.818V78H120.818V76ZM120.818 17.1836V15.1836H118.818V17.1836H120.818ZM157.404 50.2832L158.707 51.801L158.707 51.8003L157.404 50.2832ZM134.066 27.3555V25.3555H132.066V27.3555H134.066ZM134.066 45.6895H132.066V47.6895H134.066V45.6895ZM132.066 55.7383V76H136.066V55.7383H132.066ZM134.066 74H120.818V78H134.066V74ZM122.818 76V17.1836H118.818V76H122.818ZM120.818 19.1836H141.572V15.1836H120.818V19.1836ZM141.572 19.1836C148.749 19.1836 153.76 20.7037 156.956 23.3986C160.087 26.0385 161.803 30.0859 161.803 35.9277H165.803C165.803 29.2735 163.814 23.9488 159.534 20.3406C155.32 16.7875 149.215 15.1836 141.572 15.1836V19.1836ZM161.803 35.9277C161.803 41.2844 159.9 45.5032 156.101 48.7661L158.707 51.8003C163.44 47.735 165.803 42.3836 165.803 35.9277H161.803ZM156.102 48.7654C152.316 52.0136 147.148 53.7383 140.383 53.7383V57.7383C147.836 57.7383 154.016 55.8262 158.707 51.801L156.102 48.7654ZM140.383 53.7383H134.066V57.7383H140.383V53.7383ZM132.066 27.3555V45.6895H136.066V27.3555H132.066ZM134.066 47.6895H139.275V43.6895H134.066V47.6895ZM139.275 47.6895C143.051 47.6895 146.256 46.8684 148.53 44.8765C150.854 42.8403 151.857 39.892 151.857 36.4199H147.857C147.857 39.1276 147.097 40.814 145.894 41.8676C144.641 42.9656 142.555 43.6895 139.275 43.6895V47.6895ZM151.857 36.4199C151.857 33.0023 150.845 30.1006 148.513 28.1027C146.24 26.1554 143.042 25.3555 139.275 25.3555V29.3555C142.564 29.3555 144.657 30.0662 145.911 31.1405C147.106 32.164 147.857 33.7946 147.857 36.4199H151.857ZM139.275 25.3555H134.066V29.3555H139.275V25.3555ZM207.443 76V78H209.443V76H207.443ZM172.416 76H170.416V78H172.416V76ZM172.416 17.1836V15.1836H170.416V17.1836H172.416ZM185.664 17.1836H187.664V15.1836H185.664V17.1836ZM185.664 65.2539H183.664V67.2539H185.664V65.2539ZM207.443 65.2539H209.443V63.2539H207.443V65.2539ZM207.443 74H172.416V78H207.443V74ZM174.416 76V17.1836H170.416V76H174.416ZM172.416 19.1836H185.664V15.1836H172.416V19.1836ZM183.664 17.1836V65.2539H187.664V17.1836H183.664ZM185.664 67.2539H207.443V63.2539H185.664V67.2539ZM205.443 65.2539V76H209.443V65.2539H205.443ZM216.795 68.8223L215.356 70.2112L215.359 70.2148L216.795 68.8223ZM258.672 24.4434L257.215 25.8134L257.218 25.8172L258.672 24.4434ZM258.385 68.5352L256.936 67.1564L256.932 67.1601L258.385 68.5352ZM226.885 32.8516L228.456 34.0889L228.461 34.0829L226.885 32.8516ZM248.5 60.6602L250.049 61.9252L250.054 61.9189L248.5 60.6602ZM237.385 75.0254C229.441 75.0254 223.117 72.4673 218.23 67.4297L215.359 70.2148C221.082 76.1148 228.485 79.0254 237.385 79.0254V75.0254ZM218.234 67.4333C213.344 62.3672 210.838 55.7429 210.838 47.3711H206.838C206.838 56.6087 209.636 64.2851 215.356 70.2112L218.234 67.4333ZM210.838 47.3711C210.838 38.4846 213.399 31.4866 218.377 26.1808L215.459 23.4442C209.663 29.6228 206.838 37.6638 206.838 47.3711H210.838ZM218.377 26.1808C223.335 20.8955 229.916 18.1992 238.328 18.1992V14.1992C228.967 14.1992 221.275 17.2451 215.459 23.4442L218.377 26.1808ZM238.328 18.1992C246.24 18.1992 252.47 20.7668 257.215 25.8134L260.129 23.0733C254.538 17.1277 247.206 14.1992 238.328 14.1992V18.1992ZM257.218 25.8172C261.998 30.8733 264.465 37.5935 264.465 46.1816H268.465C268.465 36.7776 265.737 29.0056 260.125 23.0695L257.218 25.8172ZM264.465 46.1816C264.465 55.0107 261.905 61.9347 256.936 67.1564L259.834 69.9139C265.638 63.8153 268.465 55.837 268.465 46.1816H264.465ZM256.932 67.1601C251.994 72.3758 245.542 75.0254 237.385 75.0254V79.0254C246.509 79.0254 254.057 76.0148 259.837 69.9103L256.932 67.1601ZM237.959 25.6016C232.728 25.6016 228.442 27.6095 225.309 31.6203L228.461 34.0829C230.796 31.0937 233.893 29.6016 237.959 29.6016V25.6016ZM225.313 31.6143C222.228 35.5329 220.783 40.6181 220.783 46.6738H224.783C224.783 41.2451 226.073 37.1155 228.456 34.0888L225.313 31.6143ZM220.783 46.6738C220.783 52.8007 222.223 57.9015 225.328 61.7516L228.442 59.2406C226.078 56.3094 224.783 52.1954 224.783 46.6738H220.783ZM225.328 61.7516C228.449 65.6222 232.608 67.582 237.631 67.582V63.582C233.794 63.582 230.789 62.1512 228.442 59.2406L225.328 61.7516ZM237.631 67.582C242.744 67.582 246.957 65.7115 250.049 61.9252L246.951 59.3951C244.684 62.1713 241.65 63.582 237.631 63.582V67.582ZM250.054 61.9189C253.114 58.1413 254.52 53.0596 254.52 46.9199H250.52C250.52 52.4834 249.246 56.5618 246.946 59.4014L250.054 61.9189ZM254.52 46.9199C254.52 40.5651 253.169 35.3324 250.211 31.4712L247.035 33.9038C249.273 36.8239 250.52 41.0794 250.52 46.9199H254.52ZM250.211 31.4712C247.21 27.5551 243.052 25.6016 237.959 25.6016V29.6016C241.889 29.6016 244.84 31.0387 247.035 33.9038L250.211 31.4712ZM325.609 76V78H329.261L327.295 74.9229L325.609 76ZM310.393 76L308.681 77.0344L309.264 78H310.393V76ZM301.246 60.8652L299.527 61.8882L299.534 61.8997L301.246 60.8652ZM297.35 55.4922L295.906 56.876L295.935 56.9067L295.966 56.9362L297.35 55.4922ZM295.34 54.0156L294.417 55.7901L294.459 55.8118L294.502 55.8315L295.34 54.0156ZM289.516 53.4824V51.4824H287.516V53.4824H289.516ZM289.516 76V78H291.516V76H289.516ZM276.268 76H274.268V78H276.268V76ZM276.268 17.1836V15.1836H274.268V17.1836H276.268ZM317.734 38.8809L319.613 39.5667L319.617 39.5573L317.734 38.8809ZM310.885 47.166L309.835 45.4637L309.829 45.4676L309.822 45.4716L310.885 47.166ZM305.471 49.5449L304.918 47.6229L303.471 48.0392V49.5449H305.471ZM305.471 49.709H303.471V51.1794L304.874 51.6179L305.471 49.709ZM308.014 51.0625L306.797 52.6497L306.814 52.6627L306.831 52.6753L308.014 51.0625ZM312.566 55.8613L310.939 57.0238L310.958 57.0503L310.978 57.0762L312.566 55.8613ZM314.494 58.6094L312.807 59.6831L312.809 59.6865L314.494 58.6094ZM289.516 27.1094V25.1094H287.516V27.1094H289.516ZM289.516 43.4746H287.516V45.4746H289.516V43.4746ZM302.107 41.0137L303.487 42.4619L303.487 42.4614L302.107 41.0137ZM325.609 74H310.393V78H325.609V74ZM312.104 74.9656L302.958 59.8308L299.534 61.8997L308.681 77.0344L312.104 74.9656ZM302.965 59.8423C302.262 58.6611 301.579 57.5943 300.918 56.6455L297.637 58.9326C298.233 59.7885 298.863 60.7725 299.527 61.8882L302.965 59.8423ZM300.918 56.6455C300.229 55.6565 299.502 54.7852 298.733 54.0482L295.966 56.9362C296.509 57.457 297.068 58.1169 297.637 58.9326L300.918 56.6455ZM298.794 54.1084C298.019 53.3001 297.15 52.6481 296.178 52.1997L294.502 55.8315C294.952 56.0394 295.422 56.3718 295.906 56.876L298.794 54.1084ZM296.263 52.2412C295.276 51.728 294.204 51.4824 293.084 51.4824V55.4824C293.604 55.4824 294.037 55.5923 294.417 55.7901L296.263 52.2412ZM293.084 51.4824H289.516V55.4824H293.084V51.4824ZM287.516 53.4824V76H291.516V53.4824H287.516ZM289.516 74H276.268V78H289.516V74ZM278.268 76V17.1836H274.268V76H278.268ZM276.268 19.1836H297.268V15.1836H276.268V19.1836ZM297.268 19.1836C304.213 19.1836 309.058 20.4911 312.128 22.7848C315.089 24.9967 316.678 28.3385 316.678 33.1797H320.678C320.678 27.3568 318.698 22.7006 314.522 19.5804C310.456 16.5421 304.595 15.1836 297.268 15.1836V19.1836ZM316.678 33.1797C316.678 35.0235 316.396 36.6926 315.852 38.2045L319.617 39.5573C320.331 37.5691 320.678 35.4374 320.678 33.1797H316.678ZM315.856 38.195C315.303 39.7082 314.527 41.0682 313.525 42.2852L316.612 44.8281C317.907 43.256 318.908 41.4988 319.613 39.5667L315.856 38.195ZM313.525 42.2852C312.525 43.4989 311.301 44.5597 309.835 45.4637L311.935 48.8684C313.75 47.7489 315.315 46.4035 316.612 44.8281L313.525 42.2852ZM309.822 45.4716C308.381 46.3755 306.75 47.0957 304.918 47.6229L306.024 51.467C308.183 50.8457 310.162 49.98 311.947 48.8604L309.822 45.4716ZM303.471 49.5449V49.709H307.471V49.5449H303.471ZM304.874 51.6179C305.498 51.813 306.139 52.1456 306.797 52.6497L309.231 49.4753C308.247 48.7216 307.193 48.1518 306.067 47.8L304.874 51.6179ZM306.831 52.6753C307.541 53.1959 308.241 53.8217 308.93 54.5599L311.855 51.8307C311.012 50.9283 310.127 50.1322 309.196 49.4497L306.831 52.6753ZM308.93 54.5599C309.634 55.3136 310.304 56.1343 310.939 57.0238L314.194 54.6989C313.462 53.6743 312.683 52.7177 311.855 51.8307L308.93 54.5599ZM310.978 57.0762C311.657 57.9645 312.266 58.8335 312.807 59.6831L316.181 57.5356C315.574 56.5806 314.898 55.6175 314.155 54.6464L310.978 57.0762ZM312.809 59.6865L323.924 77.0771L327.295 74.9229L316.179 57.5323L312.809 59.6865ZM287.516 27.1094V43.4746H291.516V27.1094H287.516ZM289.516 45.4746H295.258V41.4746H289.516V45.4746ZM295.258 45.4746C298.508 45.4746 301.321 44.5241 303.487 42.4619L300.728 39.5654C299.448 40.7845 297.695 41.4746 295.258 41.4746V45.4746ZM303.487 42.4614C305.641 40.4084 306.732 37.8172 306.732 34.8203H302.732C302.732 36.7453 302.074 38.283 300.728 39.5659L303.487 42.4614ZM306.732 34.8203C306.732 31.8379 305.823 29.2698 303.708 27.5023C301.661 25.7924 298.81 25.1094 295.504 25.1094V29.1094C298.351 29.1094 300.113 29.7115 301.143 30.5719C302.104 31.3748 302.732 32.6621 302.732 34.8203H306.732ZM295.504 25.1094H289.516V29.1094H295.504V25.1094ZM366.42 76V78H368.42V76H366.42ZM331.146 76H329.146V78H331.146V76ZM331.146 17.1836V15.1836H329.146V17.1836H331.146ZM365.066 17.1836H367.066V15.1836H365.066V17.1836ZM365.066 27.9707V29.9707H367.066V27.9707H365.066ZM344.395 27.9707V25.9707H342.395V27.9707H344.395ZM344.395 41.0547H342.395V43.0547H344.395V41.0547ZM363.631 41.0547H365.631V39.0547H363.631V41.0547ZM363.631 51.8008V53.8008H365.631V51.8008H363.631ZM344.395 51.8008V49.8008H342.395V51.8008H344.395ZM344.395 65.2539H342.395V67.2539H344.395V65.2539ZM366.42 65.2539H368.42V63.2539H366.42V65.2539ZM366.42 74H331.146V78H366.42V74ZM333.146 76V17.1836H329.146V76H333.146ZM331.146 19.1836H365.066V15.1836H331.146V19.1836ZM363.066 17.1836V27.9707H367.066V17.1836H363.066ZM365.066 25.9707H344.395V29.9707H365.066V25.9707ZM342.395 27.9707V41.0547H346.395V27.9707H342.395ZM344.395 43.0547H363.631V39.0547H344.395V43.0547ZM361.631 41.0547V51.8008H365.631V41.0547H361.631ZM363.631 49.8008H344.395V53.8008H363.631V49.8008ZM342.395 51.8008V65.2539H346.395V51.8008H342.395ZM344.395 67.2539H366.42V63.2539H344.395V67.2539ZM364.42 65.2539V76H368.42V65.2539H364.42ZM403.334 68.8223L401.895 70.2112L401.898 70.2148L403.334 68.8223ZM445.211 24.4434L443.754 25.8134L443.758 25.8172L445.211 24.4434ZM444.924 68.5352L443.475 67.1564L443.472 67.1601L444.924 68.5352ZM413.424 32.8516L414.995 34.0889L415 34.0829L413.424 32.8516ZM435.039 60.6602L436.588 61.9252L436.593 61.9189L435.039 60.6602ZM423.924 75.0254C415.98 75.0254 409.656 72.4673 404.77 67.4297L401.898 70.2148C407.621 76.1148 415.024 79.0254 423.924 79.0254V75.0254ZM404.773 67.4333C399.883 62.3672 397.377 55.7429 397.377 47.3711H393.377C393.377 56.6087 396.175 64.2851 401.895 70.2112L404.773 67.4333ZM397.377 47.3711C397.377 38.4846 399.938 31.4866 404.916 26.1808L401.998 23.4442C396.202 29.6228 393.377 37.6638 393.377 47.3711H397.377ZM404.916 26.1808C409.874 20.8955 416.455 18.1992 424.867 18.1992V14.1992C415.506 14.1992 407.814 17.2451 401.998 23.4442L404.916 26.1808ZM424.867 18.1992C432.779 18.1992 439.009 20.7668 443.754 25.8134L446.668 23.0733C441.077 17.1277 433.745 14.1992 424.867 14.1992V18.1992ZM443.758 25.8172C448.537 30.8733 451.004 37.5935 451.004 46.1816H455.004C455.004 36.7776 452.276 29.0056 446.664 23.0695L443.758 25.8172ZM451.004 46.1816C451.004 55.0107 448.444 61.9347 443.475 67.1564L446.373 69.9139C452.177 63.8153 455.004 55.837 455.004 46.1816H451.004ZM443.472 67.1601C438.533 72.3758 432.081 75.0254 423.924 75.0254V79.0254C433.048 79.0254 440.596 76.0148 446.376 69.9103L443.472 67.1601ZM424.498 25.6016C419.267 25.6016 414.981 27.6095 411.848 31.6203L415 34.0829C417.335 31.0937 420.432 29.6016 424.498 29.6016V25.6016ZM411.852 31.6143C408.767 35.5329 407.322 40.6181 407.322 46.6738H411.322C411.322 41.2451 412.612 37.1155 414.995 34.0888L411.852 31.6143ZM407.322 46.6738C407.322 52.8007 408.762 57.9015 411.867 61.7516L414.981 59.2406C412.617 56.3094 411.322 52.1954 411.322 46.6738H407.322ZM411.867 61.7516C414.988 65.6222 419.147 67.582 424.17 67.582V63.582C420.333 63.582 417.328 62.1512 414.981 59.2406L411.867 61.7516ZM424.17 67.582C429.283 67.582 433.496 65.7115 436.588 61.9252L433.49 59.3951C431.223 62.1713 428.189 63.582 424.17 63.582V67.582ZM436.593 61.9189C439.653 58.1413 441.059 53.0596 441.059 46.9199H437.059C437.059 52.4834 435.785 56.5618 433.485 59.4014L436.593 61.9189ZM441.059 46.9199C441.059 40.5651 439.708 35.3324 436.75 31.4712L433.574 33.9038C435.812 36.8239 437.059 41.0794 437.059 46.9199H441.059ZM436.75 31.4712C433.75 27.5551 429.591 25.6016 424.498 25.6016V29.6016C428.428 29.6016 431.379 31.0387 433.574 33.9038L436.75 31.4712ZM462.109 17.1836V15.1836H460.109V17.1836H462.109ZM475.398 17.1836H477.398V15.1836H475.398V17.1836ZM497.506 17.1836V15.1836H495.506V17.1836H497.506ZM510.754 17.1836H512.754V15.1836H510.754V17.1836ZM508.754 50.5293C508.754 59.0867 506.757 65.1323 503.118 69.0379C499.503 72.9168 493.947 75.0254 486.062 75.0254V79.0254C494.639 79.0254 501.428 76.718 506.044 71.7649C510.635 66.8384 512.754 59.6359 512.754 50.5293H508.754ZM486.062 75.0254C478.428 75.0254 473.058 72.9703 469.565 69.1967C466.046 65.3938 464.109 59.5 464.109 51.1445H460.109C460.109 60.043 462.165 67.0896 466.63 71.9137C471.122 76.767 477.728 79.0254 486.062 79.0254V75.0254ZM464.109 51.1445V17.1836H460.109V51.1445H464.109ZM462.109 19.1836H475.398V15.1836H462.109V19.1836ZM473.398 17.1836V51.3086H477.398V17.1836H473.398ZM473.398 51.3086C473.398 56.2721 474.359 60.3632 476.612 63.2453C478.938 66.2212 482.378 67.582 486.555 67.582V63.582C483.294 63.582 481.156 62.564 479.763 60.782C478.297 58.9064 477.398 55.8607 477.398 51.3086H473.398ZM486.555 67.582C490.651 67.582 494.038 66.2703 496.334 63.381C498.56 60.5793 499.506 56.6059 499.506 51.8008H495.506C495.506 56.1832 494.626 59.1003 493.202 60.8924C491.848 62.5969 489.759 63.582 486.555 63.582V67.582ZM499.506 51.8008V17.1836H495.506V51.8008H499.506ZM497.506 19.1836H510.754V15.1836H497.506V19.1836ZM508.754 17.1836V50.5293H512.754V17.1836H508.754ZM572.934 76V78H576.586L574.619 74.9229L572.934 76ZM557.717 76L556.005 77.0344L556.589 78H557.717V76ZM548.57 60.8652L546.852 61.8882L546.859 61.8997L548.57 60.8652ZM544.674 55.4922L543.23 56.876L543.259 56.9067L543.29 56.9362L544.674 55.4922ZM542.664 54.0156L541.741 55.7901L541.783 55.8118L541.826 55.8315L542.664 54.0156ZM536.84 53.4824V51.4824H534.84V53.4824H536.84ZM536.84 76V78H538.84V76H536.84ZM523.592 76H521.592V78H523.592V76ZM523.592 17.1836V15.1836H521.592V17.1836H523.592ZM565.059 38.8809L566.937 39.5667L566.941 39.5573L565.059 38.8809ZM558.209 47.166L557.159 45.4637L557.153 45.4676L557.146 45.4716L558.209 47.166ZM552.795 49.5449L552.242 47.6229L550.795 48.0392V49.5449H552.795ZM552.795 49.709H550.795V51.1794L552.198 51.6179L552.795 49.709ZM555.338 51.0625L554.121 52.6497L554.138 52.6627L554.155 52.6753L555.338 51.0625ZM559.891 55.8613L558.263 57.0238L558.282 57.0503L558.302 57.0762L559.891 55.8613ZM561.818 58.6094L560.131 59.6831L560.133 59.6865L561.818 58.6094ZM536.84 27.1094V25.1094H534.84V27.1094H536.84ZM536.84 43.4746H534.84V45.4746H536.84V43.4746ZM549.432 41.0137L550.811 42.4619L550.812 42.4614L549.432 41.0137ZM572.934 74H557.717V78H572.934V74ZM559.429 74.9656L550.282 59.8308L546.859 61.8997L556.005 77.0344L559.429 74.9656ZM550.289 59.8423C549.586 58.6611 548.904 57.5943 548.242 56.6455L544.961 58.9326C545.557 59.7885 546.188 60.7725 546.852 61.8882L550.289 59.8423ZM548.242 56.6455C547.553 55.6565 546.827 54.7852 546.058 54.0482L543.29 56.9362C543.833 57.457 544.392 58.1169 544.961 58.9326L548.242 56.6455ZM546.118 54.1084C545.343 53.3001 544.474 52.6481 543.502 52.1997L541.826 55.8315C542.276 56.0394 542.747 56.3718 543.23 56.876L546.118 54.1084ZM543.587 52.2412C542.6 51.728 541.528 51.4824 540.408 51.4824V55.4824C540.929 55.4824 541.361 55.5923 541.741 55.7901L543.587 52.2412ZM540.408 51.4824H536.84V55.4824H540.408V51.4824ZM534.84 53.4824V76H538.84V53.4824H534.84ZM536.84 74H523.592V78H536.84V74ZM525.592 76V17.1836H521.592V76H525.592ZM523.592 19.1836H544.592V15.1836H523.592V19.1836ZM544.592 19.1836C551.537 19.1836 556.382 20.4911 559.452 22.7848C562.413 24.9967 564.002 28.3385 564.002 33.1797H568.002C568.002 27.3568 566.023 22.7006 561.846 19.5804C557.78 16.5421 551.92 15.1836 544.592 15.1836V19.1836ZM564.002 33.1797C564.002 35.0235 563.72 36.6926 563.176 38.2045L566.941 39.5573C567.655 37.5691 568.002 35.4374 568.002 33.1797H564.002ZM563.18 38.195C562.627 39.7082 561.851 41.0682 560.849 42.2852L563.936 44.8281C565.231 43.256 566.232 41.4988 566.937 39.5667L563.18 38.195ZM560.849 42.2852C559.849 43.4989 558.625 44.5597 557.159 45.4637L559.259 48.8684C561.074 47.7489 562.639 46.4035 563.936 44.8281L560.849 42.2852ZM557.146 45.4716C555.705 46.3755 554.075 47.0957 552.242 47.6229L553.348 51.467C555.507 50.8457 557.486 49.98 559.272 48.8604L557.146 45.4716ZM550.795 49.5449V49.709H554.795V49.5449H550.795ZM552.198 51.6179C552.823 51.813 553.463 52.1456 554.121 52.6497L556.555 49.4753C555.572 48.7216 554.517 48.1518 553.391 47.8L552.198 51.6179ZM554.155 52.6753C554.865 53.1959 555.566 53.8217 556.255 54.5599L559.179 51.8307C558.337 50.9283 557.451 50.1322 556.521 49.4497L554.155 52.6753ZM556.255 54.5599C556.958 55.3136 557.628 56.1343 558.263 57.0238L561.518 54.6989C560.786 53.6743 560.007 52.7177 559.179 51.8307L556.255 54.5599ZM558.302 57.0762C558.981 57.9645 559.59 58.8335 560.131 59.6831L563.506 57.5356C562.898 56.5806 562.222 55.6175 561.479 54.6464L558.302 57.0762ZM560.133 59.6865L571.248 77.0771L574.619 74.9229L563.504 57.5323L560.133 59.6865ZM534.84 27.1094V43.4746H538.84V27.1094H534.84ZM536.84 45.4746H542.582V41.4746H536.84V45.4746ZM542.582 45.4746C545.833 45.4746 548.646 44.5241 550.811 42.4619L548.052 39.5654C546.772 40.7845 545.019 41.4746 542.582 41.4746V45.4746ZM550.812 42.4614C552.966 40.4084 554.057 37.8172 554.057 34.8203H550.057C550.057 36.7453 549.398 38.283 548.052 39.5659L550.812 42.4614ZM554.057 34.8203C554.057 31.8379 553.147 29.2698 551.032 27.5023C548.985 25.7924 546.134 25.1094 542.828 25.1094V29.1094C545.675 29.1094 547.437 29.7115 548.467 30.5719C549.428 31.3748 550.057 32.6621 550.057 34.8203H554.057ZM542.828 25.1094H536.84V29.1094H542.828V25.1094ZM614.934 76V78H616.934V76H614.934ZM601.686 76H599.686V78H601.686V76ZM601.686 17.1836V15.1836H599.686V17.1836H601.686ZM614.934 17.1836H616.934V15.1836H614.934V17.1836ZM614.934 74H601.686V78H614.934V74ZM603.686 76V17.1836H599.686V76H603.686ZM601.686 19.1836H614.934V15.1836H601.686V19.1836ZM612.934 17.1836V76H616.934V17.1836H612.934ZM681.256 76V78H683.256V76H681.256ZM667.885 76L666.212 77.0969L666.805 78H667.885V76ZM643.645 39.0449L645.317 37.948L645.315 37.9453L643.645 39.0449ZM640.691 34.1641L642.48 33.2696L641.927 32.1641H640.691V34.1641ZM640.527 34.1641V32.1641H638.306L638.538 34.3734L640.527 34.1641ZM640.855 76V78H642.855V76H640.855ZM628.346 76H626.346V78H628.346V76ZM628.346 17.1836V15.1836H626.346V17.1836H628.346ZM642.619 17.1836L644.295 16.0915L643.703 15.1836H642.619V17.1836ZM665.957 52.9902L664.281 54.0823L664.289 54.0931L665.957 52.9902ZM668.91 57.7891L667.172 58.7781L667.747 59.7891H668.91V57.7891ZM669.074 57.7891V59.7891H671.42L671.049 57.4731L669.074 57.7891ZM668.746 17.1836V15.1836H666.746V17.1836H668.746ZM681.256 17.1836H683.256V15.1836H681.256V17.1836ZM681.256 74H667.885V78H681.256V74ZM669.557 74.9031L645.317 37.948L641.972 40.1419L666.212 77.0969L669.557 74.9031ZM645.315 37.9453C643.9 35.7953 642.971 34.2511 642.48 33.2696L638.903 35.0585C639.506 36.2646 640.545 37.9742 641.974 40.1445L645.315 37.9453ZM640.691 32.1641H640.527V36.1641H640.691V32.1641ZM638.538 34.3734C638.746 36.3425 638.855 39.4278 638.855 43.6797H642.855C642.855 39.4003 642.747 36.1419 642.516 33.9547L638.538 34.3734ZM638.855 43.6797V76H642.855V43.6797H638.855ZM640.855 74H628.346V78H640.855V74ZM630.346 76V17.1836H626.346V76H630.346ZM628.346 19.1836H642.619V15.1836H628.346V19.1836ZM640.944 18.2757L664.281 54.0823L667.633 51.8982L644.295 16.0915L640.944 18.2757ZM664.289 54.0931C665.332 55.6714 666.293 57.2331 667.172 58.7781L670.648 56.8C669.723 55.1731 668.715 53.5356 667.625 51.8874L664.289 54.0931ZM668.91 59.7891H669.074V55.7891H668.91V59.7891ZM671.049 57.4731C670.859 56.2878 670.746 53.7515 670.746 49.709H666.746C666.746 53.7055 666.852 56.556 667.099 58.105L671.049 57.4731ZM670.746 49.709V17.1836H666.746V49.709H670.746ZM668.746 19.1836H681.256V15.1836H668.746V19.1836ZM679.256 17.1836V76H683.256V17.1836H679.256ZM736.012 27.9707V29.9707H738.012V27.9707H736.012ZM719.236 27.9707V25.9707H717.236V27.9707H719.236ZM719.236 76V78H721.236V76H719.236ZM705.947 76H703.947V78H705.947V76ZM705.947 27.9707H707.947V25.9707H705.947V27.9707ZM689.254 27.9707H687.254V29.9707H689.254V27.9707ZM689.254 17.1836V15.1836H687.254V17.1836H689.254ZM736.012 17.1836H738.012V15.1836H736.012V17.1836ZM736.012 25.9707H719.236V29.9707H736.012V25.9707ZM717.236 27.9707V76H721.236V27.9707H717.236ZM719.236 74H705.947V78H719.236V74ZM707.947 76V27.9707H703.947V76H707.947ZM705.947 25.9707H689.254V29.9707H705.947V25.9707ZM691.254 27.9707V17.1836H687.254V27.9707H691.254ZM689.254 19.1836H736.012V15.1836H689.254V19.1836ZM734.012 17.1836V27.9707H738.012V17.1836H734.012ZM793.27 76V78H796.921L794.955 74.9229L793.27 76ZM778.053 76L776.341 77.0344L776.925 78H778.053V76ZM768.906 60.8652L767.188 61.8882L767.195 61.8997L768.906 60.8652ZM765.01 55.4922L763.566 56.876L763.595 56.9067L763.626 56.9362L765.01 55.4922ZM763 54.0156L762.077 55.7901L762.119 55.8118L762.162 55.8315L763 54.0156ZM757.176 53.4824V51.4824H755.176V53.4824H757.176ZM757.176 76V78H759.176V76H757.176ZM743.928 76H741.928V78H743.928V76ZM743.928 17.1836V15.1836H741.928V17.1836H743.928ZM785.395 38.8809L787.273 39.5667L787.277 39.5573L785.395 38.8809ZM778.545 47.166L777.495 45.4637L777.489 45.4676L777.482 45.4716L778.545 47.166ZM773.131 49.5449L772.578 47.6229L771.131 48.0392V49.5449H773.131ZM773.131 49.709H771.131V51.1794L772.534 51.6179L773.131 49.709ZM775.674 51.0625L774.457 52.6497L774.474 52.6627L774.491 52.6753L775.674 51.0625ZM780.227 55.8613L778.599 57.0238L778.618 57.0503L778.638 57.0762L780.227 55.8613ZM782.154 58.6094L780.467 59.6831L780.469 59.6865L782.154 58.6094ZM757.176 27.1094V25.1094H755.176V27.1094H757.176ZM757.176 43.4746H755.176V45.4746H757.176V43.4746ZM769.768 41.0137L771.147 42.4619L771.147 42.4614L769.768 41.0137ZM793.27 74H778.053V78H793.27V74ZM779.764 74.9656L770.618 59.8308L767.195 61.8997L776.341 77.0344L779.764 74.9656ZM770.625 59.8423C769.922 58.6611 769.24 57.5943 768.578 56.6455L765.297 58.9326C765.893 59.7885 766.524 60.7725 767.188 61.8882L770.625 59.8423ZM768.578 56.6455C767.889 55.6565 767.163 54.7852 766.394 54.0482L763.626 56.9362C764.169 57.457 764.728 58.1169 765.297 58.9326L768.578 56.6455ZM766.454 54.1084C765.679 53.3001 764.81 52.6481 763.838 52.1997L762.162 55.8315C762.612 56.0394 763.083 56.3718 763.566 56.876L766.454 54.1084ZM763.923 52.2412C762.936 51.728 761.864 51.4824 760.744 51.4824V55.4824C761.265 55.4824 761.697 55.5923 762.077 55.7901L763.923 52.2412ZM760.744 51.4824H757.176V55.4824H760.744V51.4824ZM755.176 53.4824V76H759.176V53.4824H755.176ZM757.176 74H743.928V78H757.176V74ZM745.928 76V17.1836H741.928V76H745.928ZM743.928 19.1836H764.928V15.1836H743.928V19.1836ZM764.928 19.1836C771.873 19.1836 776.718 20.4911 779.788 22.7848C782.749 24.9967 784.338 28.3385 784.338 33.1797H788.338C788.338 27.3568 786.359 22.7006 782.182 19.5804C778.116 16.5421 772.256 15.1836 764.928 15.1836V19.1836ZM784.338 33.1797C784.338 35.0235 784.056 36.6926 783.512 38.2045L787.277 39.5573C787.991 37.5691 788.338 35.4374 788.338 33.1797H784.338ZM783.516 38.195C782.963 39.7082 782.187 41.0682 781.185 42.2852L784.272 44.8281C785.567 43.256 786.568 41.4988 787.273 39.5667L783.516 38.195ZM781.185 42.2852C780.185 43.4989 778.961 44.5597 777.495 45.4637L779.595 48.8684C781.41 47.7489 782.975 46.4035 784.272 44.8281L781.185 42.2852ZM777.482 45.4716C776.041 46.3755 774.411 47.0957 772.578 47.6229L773.684 51.467C775.843 50.8457 777.822 49.98 779.607 48.8604L777.482 45.4716ZM771.131 49.5449V49.709H775.131V49.5449H771.131ZM772.534 51.6179C773.159 51.813 773.799 52.1456 774.457 52.6497L776.891 49.4753C775.908 48.7216 774.853 48.1518 773.727 47.8L772.534 51.6179ZM774.491 52.6753C775.201 53.1959 775.902 53.8217 776.591 54.5599L779.515 51.8307C778.673 50.9283 777.787 50.1322 776.857 49.4497L774.491 52.6753ZM776.591 54.5599C777.294 55.3136 777.964 56.1343 778.599 57.0238L781.854 54.6989C781.122 53.6743 780.343 52.7177 779.515 51.8307L776.591 54.5599ZM778.638 57.0762C779.317 57.9645 779.926 58.8335 780.467 59.6831L783.842 57.5356C783.234 56.5806 782.558 55.6175 781.815 54.6464L778.638 57.0762ZM780.469 59.6865L791.584 77.0771L794.955 74.9229L783.839 57.5323L780.469 59.6865ZM755.176 27.1094V43.4746H759.176V27.1094H755.176ZM757.176 45.4746H762.918V41.4746H757.176V45.4746ZM762.918 45.4746C766.169 45.4746 768.982 44.5241 771.147 42.4619L768.388 39.5654C767.108 40.7845 765.355 41.4746 762.918 41.4746V45.4746ZM771.147 42.4614C773.301 40.4084 774.393 37.8172 774.393 34.8203H770.393C770.393 36.7453 769.734 38.283 768.388 39.5659L771.147 42.4614ZM774.393 34.8203C774.393 31.8379 773.483 29.2698 771.368 27.5023C769.321 25.7924 766.47 25.1094 763.164 25.1094V29.1094C766.011 29.1094 767.773 29.7115 768.803 30.5719C769.764 31.3748 770.393 32.6621 770.393 34.8203H774.393ZM763.164 25.1094H757.176V29.1094H763.164V25.1094ZM812.055 76V78H814.055V76H812.055ZM798.807 76H796.807V78H798.807V76ZM798.807 17.1836V15.1836H796.807V17.1836H798.807ZM812.055 17.1836H814.055V15.1836H812.055V17.1836ZM812.055 74H798.807V78H812.055V74ZM800.807 76V17.1836H796.807V76H800.807ZM798.807 19.1836H812.055V15.1836H798.807V19.1836ZM810.055 17.1836V76H814.055V17.1836H810.055ZM873.742 72.0625L874.741 73.7954L875.742 73.2184V72.0625H873.742ZM829.938 69.1914L828.549 70.6307L828.556 70.6378L829.938 69.1914ZM870.994 18.7832H872.994V17.3803L871.675 16.9027L870.994 18.7832ZM870.994 31.2109L869.993 32.9423L872.994 34.6779V31.2109H870.994ZM840.889 32.6465L839.453 31.2544L839.453 31.2545L840.889 32.6465ZM840.355 60.9473L838.894 62.3123L838.9 62.3187L840.355 60.9473ZM860.494 64.5566L861.367 66.356L862.494 65.8091V64.5566H860.494ZM860.494 53.0723H862.494V51.0723H860.494V53.0723ZM848.723 53.0723H846.723V55.0723H848.723V53.0723ZM848.723 42.4902V40.4902H846.723V42.4902H848.723ZM873.742 42.4902H875.742V40.4902H873.742V42.4902ZM872.744 70.3296C867.38 73.4198 860.611 75.0254 852.332 75.0254V79.0254C861.115 79.0254 868.62 77.3224 874.741 73.7954L872.744 70.3296ZM852.332 75.0254C843.25 75.0254 836.328 72.5287 831.319 67.745L828.556 70.6378C834.485 76.2995 842.492 79.0254 852.332 79.0254V75.0254ZM831.326 67.7521C826.357 62.9579 823.775 56.305 823.775 47.5352H819.775C819.775 57.1403 822.635 64.9249 828.549 70.6307L831.326 67.7521ZM823.775 47.5352C823.775 38.7669 826.583 31.7711 832.115 26.3661L829.319 23.505C822.929 29.7484 819.775 37.8191 819.775 47.5352H823.775ZM832.115 26.3661C837.633 20.9742 845.025 18.1992 854.506 18.1992V14.1992C844.19 14.1992 835.723 17.2484 829.319 23.505L832.115 26.3661ZM854.506 18.1992C860.56 18.1992 865.818 19.0361 870.313 20.6637L871.675 16.9027C866.655 15.085 860.92 14.1992 854.506 14.1992V18.1992ZM868.994 18.7832V31.2109H872.994V18.7832H868.994ZM871.995 29.4796C867.084 26.6395 861.169 25.2734 854.342 25.2734V29.2734C860.64 29.2734 865.826 30.5324 869.993 32.9423L871.995 29.4796ZM854.342 25.2734C848.365 25.2734 843.342 27.2422 839.453 31.2544L842.325 34.0386C845.38 30.8867 849.326 29.2734 854.342 29.2734V25.2734ZM839.453 31.2545C835.574 35.2562 833.721 40.5522 833.721 46.9199H837.721C837.721 41.3657 839.313 37.1461 842.325 34.0384L839.453 31.2545ZM833.721 46.9199C833.721 53.2962 835.355 58.5235 838.894 62.3123L841.817 59.5822C839.176 56.7538 837.721 52.6296 837.721 46.9199H833.721ZM838.9 62.3187C842.456 66.0939 847.216 67.9102 852.947 67.9102V63.9102C848.124 63.9102 844.489 62.4178 841.811 59.5758L838.9 62.3187ZM852.947 67.9102C856.275 67.9102 859.129 67.4421 861.367 66.356L859.621 62.7573C858.14 63.4758 855.963 63.9102 852.947 63.9102V67.9102ZM862.494 64.5566V53.0723H858.494V64.5566H862.494ZM860.494 51.0723H848.723V55.0723H860.494V51.0723ZM850.723 53.0723V42.4902H846.723V53.0723H850.723ZM848.723 44.4902H873.742V40.4902H848.723V44.4902ZM871.742 42.4902V72.0625H875.742V42.4902H871.742ZM884.488 17.1836V15.1836H882.488V17.1836H884.488ZM897.777 17.1836H899.777V15.1836H897.777V17.1836ZM919.885 17.1836V15.1836H917.885V17.1836H919.885ZM933.133 17.1836H935.133V15.1836H933.133V17.1836ZM931.133 50.5293C931.133 59.0867 929.136 65.1323 925.497 69.0379C921.882 72.9168 916.326 75.0254 908.441 75.0254V79.0254C917.018 79.0254 923.807 76.718 928.423 71.7649C933.014 66.8384 935.133 59.6359 935.133 50.5293H931.133ZM908.441 75.0254C900.807 75.0254 895.437 72.9703 891.944 69.1967C888.425 65.3938 886.488 59.5 886.488 51.1445H882.488C882.488 60.043 884.544 67.0896 889.009 71.9137C893.501 76.767 900.107 79.0254 908.441 79.0254V75.0254ZM886.488 51.1445V17.1836H882.488V51.1445H886.488ZM884.488 19.1836H897.777V15.1836H884.488V19.1836ZM895.777 17.1836V51.3086H899.777V17.1836H895.777ZM895.777 51.3086C895.777 56.2721 896.738 60.3632 898.991 63.2453C901.317 66.2212 904.757 67.582 908.934 67.582V63.582C905.673 63.582 903.535 62.564 902.142 60.782C900.676 58.9064 899.777 55.8607 899.777 51.3086H895.777ZM908.934 67.582C913.03 67.582 916.417 66.2703 918.713 63.381C920.939 60.5793 921.885 56.6059 921.885 51.8008H917.885C917.885 56.1832 917.005 59.1003 915.581 60.8924C914.227 62.5969 912.138 63.582 908.934 63.582V67.582ZM921.885 51.8008V17.1836H917.885V51.8008H921.885ZM919.885 19.1836H933.133V15.1836H919.885V19.1836ZM931.133 17.1836V50.5293H935.133V17.1836H931.133ZM959.219 76V78H961.219V76H959.219ZM945.971 76H943.971V78H945.971V76ZM945.971 17.1836V15.1836H943.971V17.1836H945.971ZM959.219 17.1836H961.219V15.1836H959.219V17.1836ZM959.219 74H945.971V78H959.219V74ZM947.971 76V17.1836H943.971V76H947.971ZM945.971 19.1836H959.219V15.1836H945.971V19.1836ZM957.219 17.1836V76H961.219V17.1836H957.219ZM1025.54 76V78H1027.54V76H1025.54ZM1012.17 76L1010.5 77.0969L1011.09 78H1012.17V76ZM987.93 39.0449L989.602 37.948L989.6 37.9453L987.93 39.0449ZM984.977 34.1641L986.765 33.2696L986.213 32.1641H984.977V34.1641ZM984.812 34.1641V32.1641H982.591L982.823 34.3734L984.812 34.1641ZM985.141 76V78H987.141V76H985.141ZM972.631 76H970.631V78H972.631V76ZM972.631 17.1836V15.1836H970.631V17.1836H972.631ZM986.904 17.1836L988.58 16.0915L987.988 15.1836H986.904V17.1836ZM1010.24 52.9902L1008.57 54.0823L1008.57 54.0931L1010.24 52.9902ZM1013.2 57.7891L1011.46 58.7781L1012.03 59.7891H1013.2V57.7891ZM1013.36 57.7891V59.7891H1015.7L1015.33 57.4731L1013.36 57.7891ZM1013.03 17.1836V15.1836H1011.03V17.1836H1013.03ZM1025.54 17.1836H1027.54V15.1836H1025.54V17.1836ZM1025.54 74H1012.17V78H1025.54V74ZM1013.84 74.9031L989.602 37.948L986.257 40.1419L1010.5 77.0969L1013.84 74.9031ZM989.6 37.9453C988.185 35.7953 987.256 34.2511 986.765 33.2696L983.188 35.0585C983.791 36.2646 984.831 37.9742 986.259 40.1445L989.6 37.9453ZM984.977 32.1641H984.812V36.1641H984.977V32.1641ZM982.823 34.3734C983.031 36.3425 983.141 39.4278 983.141 43.6797H987.141C987.141 39.4003 987.032 36.1419 986.802 33.9547L982.823 34.3734ZM983.141 43.6797V76H987.141V43.6797H983.141ZM985.141 74H972.631V78H985.141V74ZM974.631 76V17.1836H970.631V76H974.631ZM972.631 19.1836H986.904V15.1836H972.631V19.1836ZM985.229 18.2757L1008.57 54.0823L1011.92 51.8982L988.58 16.0915L985.229 18.2757ZM1008.57 54.0931C1009.62 55.6714 1010.58 57.2331 1011.46 58.7781L1014.93 56.8C1014.01 55.1731 1013 53.5356 1011.91 51.8874L1008.57 54.0931ZM1013.2 59.7891H1013.36V55.7891H1013.2V59.7891ZM1015.33 57.4731C1015.14 56.2878 1015.03 53.7515 1015.03 49.709H1011.03C1011.03 53.7055 1011.14 56.556 1011.38 58.105L1015.33 57.4731ZM1015.03 49.709V17.1836H1011.03V49.709H1015.03ZM1013.03 19.1836H1025.54V15.1836H1013.03V19.1836ZM1023.54 17.1836V76H1027.54V17.1836H1023.54ZM1087.27 72.0625L1088.27 73.7954L1089.27 73.2184V72.0625H1087.27ZM1043.46 69.1914L1042.08 70.6307L1042.08 70.6378L1043.46 69.1914ZM1084.52 18.7832H1086.52V17.3803L1085.2 16.9027L1084.52 18.7832ZM1084.52 31.2109L1083.52 32.9423L1086.52 34.6779V31.2109H1084.52ZM1054.42 32.6465L1052.98 31.2544L1052.98 31.2545L1054.42 32.6465ZM1053.88 60.9473L1052.42 62.3123L1052.43 62.3187L1053.88 60.9473ZM1074.02 64.5566L1074.89 66.356L1076.02 65.8091V64.5566H1074.02ZM1074.02 53.0723H1076.02V51.0723H1074.02V53.0723ZM1062.25 53.0723H1060.25V55.0723H1062.25V53.0723ZM1062.25 42.4902V40.4902H1060.25V42.4902H1062.25ZM1087.27 42.4902H1089.27V40.4902H1087.27V42.4902ZM1086.27 70.3296C1080.91 73.4198 1074.14 75.0254 1065.86 75.0254V79.0254C1074.64 79.0254 1082.15 77.3224 1088.27 73.7954L1086.27 70.3296ZM1065.86 75.0254C1056.78 75.0254 1049.86 72.5287 1044.85 67.745L1042.08 70.6378C1048.01 76.2995 1056.02 79.0254 1065.86 79.0254V75.0254ZM1044.85 67.7521C1039.88 62.9579 1037.3 56.305 1037.3 47.5352H1033.3C1033.3 57.1403 1036.16 64.9249 1042.08 70.6307L1044.85 67.7521ZM1037.3 47.5352C1037.3 38.7669 1040.11 31.7711 1045.64 26.3661L1042.85 23.505C1036.46 29.7484 1033.3 37.8191 1033.3 47.5352H1037.3ZM1045.64 26.3661C1051.16 20.9742 1058.55 18.1992 1068.03 18.1992V14.1992C1057.72 14.1992 1049.25 17.2484 1042.85 23.505L1045.64 26.3661ZM1068.03 18.1992C1074.09 18.1992 1079.35 19.0361 1083.84 20.6637L1085.2 16.9027C1080.18 15.085 1074.45 14.1992 1068.03 14.1992V18.1992ZM1082.52 18.7832V31.2109H1086.52V18.7832H1082.52ZM1085.52 29.4796C1080.61 26.6395 1074.7 25.2734 1067.87 25.2734V29.2734C1074.17 29.2734 1079.35 30.5324 1083.52 32.9423L1085.52 29.4796ZM1067.87 25.2734C1061.89 25.2734 1056.87 27.2422 1052.98 31.2544L1055.85 34.0386C1058.91 30.8867 1062.85 29.2734 1067.87 29.2734V25.2734ZM1052.98 31.2545C1049.1 35.2562 1047.25 40.5522 1047.25 46.9199H1051.25C1051.25 41.3657 1052.84 37.1461 1055.85 34.0384L1052.98 31.2545ZM1047.25 46.9199C1047.25 53.2962 1048.88 58.5235 1052.42 62.3123L1055.34 59.5822C1052.7 56.7538 1051.25 52.6296 1051.25 46.9199H1047.25ZM1052.43 62.3187C1055.98 66.0939 1060.74 67.9102 1066.47 67.9102V63.9102C1061.65 63.9102 1058.02 62.4178 1055.34 59.5758L1052.43 62.3187ZM1066.47 67.9102C1069.8 67.9102 1072.66 67.4421 1074.89 66.356L1073.15 62.7573C1071.67 63.4758 1069.49 63.9102 1066.47 63.9102V67.9102ZM1076.02 64.5566V53.0723H1072.02V64.5566H1076.02ZM1074.02 51.0723H1062.25V55.0723H1074.02V51.0723ZM1064.25 53.0723V42.4902H1060.25V53.0723H1064.25ZM1062.25 44.4902H1087.27V40.4902H1062.25V44.4902ZM1085.27 42.4902V72.0625H1089.27V42.4902H1085.27ZM369.127 175.072H367.127V176.289L368.207 176.848L369.127 175.072ZM369.127 163.793L370.305 162.177L367.127 159.859V163.793H369.127ZM390.619 165.967L389.404 164.378L389.399 164.382L389.393 164.387L390.619 165.967ZM389.963 153.949L388.901 155.644L388.91 155.65L389.963 153.949ZM375.115 151.816H373.115V153.816H375.115V151.816ZM375.115 141.891V139.891H373.115V141.891H375.115ZM371.342 130.898H369.342V134.689L372.471 132.549L371.342 130.898ZM371.342 120.316L370.443 118.53L369.342 119.084V120.316H371.342ZM399.807 121.26L398.546 122.813L398.553 122.818L399.807 121.26ZM393.162 146.238L392.679 144.298L391.162 144.675V146.238H393.162ZM393.162 146.443H391.162V148.209L392.914 148.428L393.162 146.443ZM403.006 150.996L401.561 152.379L401.568 152.386L403.006 150.996ZM371.127 175.072V163.793H367.127V175.072H371.127ZM367.949 165.409C372.255 168.549 377.269 170.1 382.908 170.1V166.1C378.047 166.1 373.874 164.779 370.305 162.177L367.949 165.409ZM382.908 170.1C386.477 170.1 389.54 169.336 391.845 167.547L389.393 164.387C388.034 165.442 385.957 166.1 382.908 166.1V170.1ZM391.834 167.556C394.236 165.719 395.408 163.123 395.408 160.02H391.408C391.408 162.002 390.721 163.371 389.404 164.378L391.834 167.556ZM395.408 160.02C395.408 156.678 393.881 154.022 391.016 152.249L388.91 155.65C390.639 156.72 391.408 158.111 391.408 160.02H395.408ZM391.025 152.254C388.317 150.558 384.766 149.816 380.57 149.816V153.816C384.359 153.816 387.07 154.497 388.901 155.644L391.025 152.254ZM380.57 149.816H375.115V153.816H380.57V149.816ZM377.115 151.816V141.891H373.115V151.816H377.115ZM375.115 143.891H380.16V139.891H375.115V143.891ZM380.16 143.891C384.146 143.891 387.485 143.24 389.88 141.649C392.419 139.963 393.645 137.39 393.645 134.262H389.645C389.645 136.219 388.956 137.461 387.667 138.317C386.233 139.27 383.83 139.891 380.16 139.891V143.891ZM393.645 134.262C393.645 131.44 392.758 129 390.702 127.327C388.726 125.719 385.985 125.084 382.826 125.084V129.084C385.546 129.084 387.214 129.646 388.177 130.43C389.062 131.149 389.645 132.299 389.645 134.262H393.645ZM382.826 125.084C378.43 125.084 374.215 126.511 370.213 129.248L372.471 132.549C375.906 130.2 379.348 129.084 382.826 129.084V125.084ZM373.342 130.898V120.316H369.342V130.898H373.342ZM372.241 122.103C376.043 120.189 380.537 119.199 385.779 119.199V115.199C380.03 115.199 374.898 116.287 370.443 118.53L372.241 122.103ZM385.779 119.199C391.517 119.199 395.686 120.491 398.546 122.813L401.067 119.707C397.256 116.614 392.073 115.199 385.779 115.199V119.199ZM398.553 122.818C401.444 125.145 402.852 128.085 402.852 131.801H406.852C406.852 126.875 404.896 122.789 401.061 119.702L398.553 122.818ZM402.852 131.801C402.852 135.298 401.971 137.943 400.375 139.914C398.772 141.895 396.279 143.401 392.679 144.298L393.646 148.179C397.838 147.135 401.19 145.264 403.484 142.431C405.784 139.59 406.852 135.987 406.852 131.801H402.852ZM391.162 146.238V146.443H395.162V146.238H391.162ZM392.914 148.428C396.71 148.902 399.533 150.259 401.561 152.379L404.451 149.614C401.666 146.702 397.927 145.023 393.41 144.459L392.914 148.428ZM401.568 152.386C403.594 154.481 404.615 157.037 404.615 160.184H408.615C408.615 156.057 407.23 152.487 404.444 149.606L401.568 152.386ZM404.615 160.184C404.615 165.119 402.846 168.871 399.34 171.662L401.831 174.791C406.365 171.183 408.615 166.24 408.615 160.184H404.615ZM399.34 171.662C395.788 174.489 390.732 176.025 383.934 176.025V180.025C391.299 180.025 397.345 178.362 401.831 174.791L399.34 171.662ZM383.934 176.025C378.058 176.025 373.47 175.069 370.047 173.296L368.207 176.848C372.386 179.013 377.669 180.025 383.934 180.025V176.025ZM419.371 177H417.371V179H419.371V177ZM419.371 118.184V116.184H417.371V118.184H419.371ZM462.971 168.797L461.588 167.352L461.584 167.355L462.971 168.797ZM432.619 128.971V126.971H430.619V128.971H432.619ZM432.619 166.254H430.619V168.254H432.619V166.254ZM452.676 161.086L451.227 159.707L451.222 159.713L452.676 161.086ZM452.717 133.811L451.303 135.225L451.309 135.231L451.315 135.237L452.717 133.811ZM421.371 177V118.184H417.371V177H421.371ZM419.371 120.184H440.207V116.184H419.371V120.184ZM440.207 120.184C450.386 120.184 457.647 122.516 462.359 126.827C467.037 131.107 469.543 137.653 469.543 146.854H473.543C473.543 136.941 470.826 129.152 465.059 123.875C459.326 118.63 450.919 116.184 440.207 116.184V120.184ZM469.543 146.854C469.543 155.562 466.845 162.321 461.588 167.352L464.353 170.242C470.526 164.335 473.543 156.465 473.543 146.854H469.543ZM461.584 167.355C456.343 172.395 449.29 175 440.207 175V179C450.101 179 458.224 176.136 464.357 170.239L461.584 167.355ZM440.207 175H419.371V179H440.207V175ZM430.619 128.971V166.254H434.619V128.971H430.619ZM432.619 168.254H439.182V164.254H432.619V168.254ZM439.182 168.254C445.349 168.254 450.42 166.387 454.13 162.459L451.222 159.713C448.424 162.675 444.499 164.254 439.182 164.254V168.254ZM454.124 162.465C457.842 158.562 459.598 153.332 459.598 147.018H455.598C455.598 152.571 454.072 156.72 451.228 159.707L454.124 162.465ZM459.598 147.018C459.598 141.006 457.839 136.042 454.119 132.384L451.315 135.237C454.102 137.977 455.598 141.818 455.598 147.018H459.598ZM454.131 132.396C450.431 128.697 445.325 126.971 439.1 126.971V130.971C444.578 130.971 448.549 132.471 451.303 135.225L454.131 132.396ZM439.1 126.971H432.619V130.971H439.1V126.971ZM552.795 173.062L553.793 174.795L554.795 174.218V173.062H552.795ZM508.99 170.191L507.602 171.631L507.609 171.638L508.99 170.191ZM550.047 119.783H552.047V118.38L550.728 117.903L550.047 119.783ZM550.047 132.211L549.046 133.942L552.047 135.678V132.211H550.047ZM519.941 133.646L518.505 132.254L518.505 132.255L519.941 133.646ZM519.408 161.947L517.946 163.312L517.953 163.319L519.408 161.947ZM539.547 165.557L540.42 167.356L541.547 166.809V165.557H539.547ZM539.547 154.072H541.547V152.072H539.547V154.072ZM527.775 154.072H525.775V156.072H527.775V154.072ZM527.775 143.49V141.49H525.775V143.49H527.775ZM552.795 143.49H554.795V141.49H552.795V143.49ZM551.796 171.33C546.433 174.42 539.664 176.025 531.385 176.025V180.025C540.168 180.025 547.672 178.322 553.793 174.795L551.796 171.33ZM531.385 176.025C522.303 176.025 515.381 173.529 510.372 168.745L507.609 171.638C513.537 177.299 521.545 180.025 531.385 180.025V176.025ZM510.379 168.752C505.41 163.958 502.828 157.305 502.828 148.535H498.828C498.828 158.14 501.688 165.925 507.602 171.631L510.379 168.752ZM502.828 148.535C502.828 139.767 505.635 132.771 511.167 127.366L508.372 124.505C501.982 130.748 498.828 138.819 498.828 148.535H502.828ZM511.167 127.366C516.686 121.974 524.078 119.199 533.559 119.199V115.199C523.243 115.199 514.775 118.248 508.372 124.505L511.167 127.366ZM533.559 119.199C539.613 119.199 544.87 120.036 549.366 121.664L550.728 117.903C545.708 116.085 539.973 115.199 533.559 115.199V119.199ZM548.047 119.783V132.211H552.047V119.783H548.047ZM551.048 130.48C546.137 127.639 540.221 126.273 533.395 126.273V130.273C539.693 130.273 544.879 131.532 549.046 133.942L551.048 130.48ZM533.395 126.273C527.418 126.273 522.395 128.242 518.505 132.254L521.377 135.039C524.433 131.887 528.379 130.273 533.395 130.273V126.273ZM518.505 132.255C514.627 136.256 512.773 141.552 512.773 147.92H516.773C516.773 142.366 518.365 138.146 521.378 135.038L518.505 132.255ZM512.773 147.92C512.773 154.296 514.408 159.524 517.946 163.312L520.87 160.582C518.229 157.754 516.773 153.63 516.773 147.92H512.773ZM517.953 163.319C521.509 167.094 526.268 168.91 532 168.91V164.91C527.177 164.91 523.542 163.418 520.864 160.576L517.953 163.319ZM532 168.91C535.328 168.91 538.182 168.442 540.42 167.356L538.674 163.757C537.193 164.476 535.016 164.91 532 164.91V168.91ZM541.547 165.557V154.072H537.547V165.557H541.547ZM539.547 152.072H527.775V156.072H539.547V152.072ZM529.775 154.072V143.49H525.775V154.072H529.775ZM527.775 145.49H552.795V141.49H527.775V145.49ZM550.795 143.49V173.062H554.795V143.49H550.795ZM615.959 177V179H618.793L617.843 176.33L615.959 177ZM601.521 177L599.617 177.609L600.061 179H601.521V177ZM597.338 163.916L599.243 163.307L598.798 161.916H597.338V163.916ZM576.42 163.916V161.916H574.955L574.513 163.312L576.42 163.916ZM572.277 177V179H573.742L574.184 177.604L572.277 177ZM557.922 177L556.043 176.316L555.065 179H557.922V177ZM579.332 118.184V116.184H577.932L577.453 117.499L579.332 118.184ZM595.041 118.184L596.925 117.513L596.452 116.184H595.041V118.184ZM594.303 153.744V155.744H597.041L596.208 153.135L594.303 153.744ZM587.986 133.975L586.079 134.575L586.081 134.583L587.986 133.975ZM587.002 128.684L588.993 128.498L588.824 126.684H587.002V128.684ZM586.674 128.684V126.684H584.826L584.68 128.525L586.674 128.684ZM585.648 133.811L583.745 133.197L583.744 133.199L585.648 133.811ZM579.25 153.744L577.346 153.133L576.508 155.744H579.25V153.744ZM615.959 175H601.521V179H615.959V175ZM603.426 176.391L599.243 163.307L595.433 164.525L599.617 177.609L603.426 176.391ZM597.338 161.916H576.42V165.916H597.338V161.916ZM574.513 163.312L570.371 176.396L574.184 177.604L578.327 164.52L574.513 163.312ZM572.277 175H557.922V179H572.277V175ZM559.801 177.684L581.211 118.868L577.453 117.499L556.043 176.316L559.801 177.684ZM579.332 120.184H595.041V116.184H579.332V120.184ZM593.157 118.854L614.075 177.67L617.843 176.33L596.925 117.513L593.157 118.854ZM596.208 153.135L589.891 133.366L586.081 134.583L592.398 154.353L596.208 153.135ZM589.894 133.374C589.483 132.068 589.176 130.451 588.993 128.498L585.011 128.869C585.211 131.018 585.56 132.928 586.079 134.575L589.894 133.374ZM587.002 126.684H586.674V130.684H587.002V126.684ZM584.68 128.525C584.556 130.088 584.246 131.645 583.745 133.197L587.552 134.425C588.145 132.586 588.518 130.724 588.668 128.842L584.68 128.525ZM583.744 133.199L577.346 153.133L581.154 154.355L587.553 134.422L583.744 133.199ZM579.25 155.744H594.303V151.744H579.25V155.744ZM690.32 177V179H692.32V177H690.32ZM677.236 177H675.236V179H677.236V177ZM677.729 129.217L679.723 129.359L679.876 127.217H677.729V129.217ZM677.4 129.217V127.217H675.744L675.435 128.845L677.4 129.217ZM675.555 137.01L673.664 136.358L673.664 136.358L675.555 137.01ZM661.773 177V179H663.2L663.664 177.652L661.773 177ZM650.945 177L649.06 177.668L649.532 179H650.945V177ZM636.918 137.42L638.803 136.752L638.8 136.744L636.918 137.42ZM635.072 129.217L637.036 128.839L636.724 127.217H635.072V129.217ZM634.703 129.217V127.217H632.577L632.707 129.339L634.703 129.217ZM635.236 177V179H637.236V177H635.236ZM623.301 177H621.301V179H623.301V177ZM623.301 118.184V116.184H621.301V118.184H623.301ZM642.701 118.184L644.592 117.532L644.127 116.184H642.701V118.184ZM654.719 153.047L656.61 152.398L656.61 152.395L654.719 153.047ZM656.811 161.455L654.834 161.762L655.097 163.455H656.811V161.455ZM657.057 161.455V163.455H658.654L659.007 161.898L657.057 161.455ZM659.395 152.965L657.504 152.312L657.502 152.319L659.395 152.965ZM671.412 118.184V116.184H669.987L669.522 117.53L671.412 118.184ZM690.32 118.184H692.32V116.184H690.32V118.184ZM690.32 175H677.236V179H690.32V175ZM679.236 177V141.809H675.236V177H679.236ZM679.236 141.809C679.236 138.064 679.398 133.915 679.723 129.359L675.734 129.074C675.403 133.706 675.236 137.952 675.236 141.809H679.236ZM677.729 127.217H677.4V131.217H677.729V127.217ZM675.435 128.845C674.754 132.443 674.16 134.919 673.664 136.358L677.445 137.662C678.043 135.929 678.68 133.209 679.365 129.589L675.435 128.845ZM673.664 136.358L659.883 176.348L663.664 177.652L677.446 137.661L673.664 136.358ZM661.773 175H650.945V179H661.773V175ZM652.83 176.332L638.803 136.752L635.033 138.088L649.06 177.668L652.83 176.332ZM638.8 136.744C638.482 135.856 637.895 133.297 637.036 128.839L633.108 129.595C633.945 133.941 634.589 136.851 635.036 138.096L638.8 136.744ZM635.072 127.217H634.703V131.217H635.072V127.217ZM632.707 129.339C633.061 135.108 633.236 140.151 633.236 144.475H637.236C637.236 140.048 637.057 134.92 636.699 129.094L632.707 129.339ZM633.236 144.475V177H637.236V144.475H633.236ZM635.236 175H623.301V179H635.236V175ZM625.301 177V118.184H621.301V177H625.301ZM623.301 120.184H642.701V116.184H623.301V120.184ZM640.81 118.835L652.828 153.699L656.61 152.395L644.592 117.532L640.81 118.835ZM652.827 153.696C653.747 156.378 654.415 159.066 654.834 161.762L658.787 161.148C658.331 158.211 657.604 155.294 656.61 152.398L652.827 153.696ZM656.811 163.455H657.057V159.455H656.811V163.455ZM659.007 161.898C659.734 158.692 660.496 155.933 661.288 153.61L657.502 152.319C656.653 154.809 655.856 157.71 655.106 161.013L659.007 161.898ZM661.285 153.618L673.302 118.837L669.522 117.53L657.504 152.312L661.285 153.618ZM671.412 120.184H690.32V116.184H671.412V120.184ZM688.32 118.184V177H692.32V118.184H688.32ZM738.965 177V179H740.965V177H738.965ZM703.691 177H701.691V179H703.691V177ZM703.691 118.184V116.184H701.691V118.184H703.691ZM737.611 118.184H739.611V116.184H737.611V118.184ZM737.611 128.971V130.971H739.611V128.971H737.611ZM716.939 128.971V126.971H714.939V128.971H716.939ZM716.939 142.055H714.939V144.055H716.939V142.055ZM736.176 142.055H738.176V140.055H736.176V142.055ZM736.176 152.801V154.801H738.176V152.801H736.176ZM716.939 152.801V150.801H714.939V152.801H716.939ZM716.939 166.254H714.939V168.254H716.939V166.254ZM738.965 166.254H740.965V164.254H738.965V166.254ZM738.965 175H703.691V179H738.965V175ZM705.691 177V118.184H701.691V177H705.691ZM703.691 120.184H737.611V116.184H703.691V120.184ZM735.611 118.184V128.971H739.611V118.184H735.611ZM737.611 126.971H716.939V130.971H737.611V126.971ZM714.939 128.971V142.055H718.939V128.971H714.939ZM716.939 144.055H736.176V140.055H716.939V144.055ZM734.176 142.055V152.801H738.176V142.055H734.176ZM736.176 150.801H716.939V154.801H736.176V150.801ZM714.939 152.801V166.254H718.939V152.801H714.939ZM716.939 168.254H738.965V164.254H716.939V168.254ZM736.965 166.254V177H740.965V166.254H736.965Z" fill="white" mask="url(#path-1-outside-1_3_66)"/>
</g>
<defs>
<filter id="filter0_d_3_66" x="0.740234" y="0.199219" width="1106.53" height="201.826" filterUnits="userSpaceOnUse" color-interpolation-filters="sRGB">
<feFlood flood-opacity="0" result="BackgroundImageFix"/>
<feColorMatrix in="SourceAlpha" type="matrix" values="0 0 0 0 0 0 0 0 0 0 0 0 0 0 0 0 0 0 127 0" result="hardAlpha"/>
<feOffset dy="4"/>
<feGaussianBlur stdDeviation="10"/>
<feComposite in2="hardAlpha" operator="out"/>
<feColorMatrix type="matrix" values="0 0 0 0 1 0 0 0 0 0.837069 0 0 0 0 0.2125 0 0 0 0.5 0"/>
<feBlend mode="normal" in2="BackgroundImageFix" result="effect1_dropShadow_3_66"/>
<feBlend mode="normal" in="SourceGraphic" in2="effect1_dropShadow_3_66" result="shape"/>
</filter>
<linearGradient id="paint0_linear_3_66" x1="503.091" y1="22.8631" x2="613.753" y2="530.218" gradientUnits="userSpaceOnUse">
<stop stop-color="#EB5D38"/>
<stop offset="0.5" stop-color="#FFD600"/>
</linearGradient>
</defs>
</svg>
