<svg width="346" height="88" viewBox="0 0 346 48" fill="none" xmlns="http://www.w3.org/2000/svg">
<g filter="url(#filter0_d_3_46)">
<mask id="path-1-outside-1_3_46" maskUnits="userSpaceOnUse" x="19" y="15" width="308" height="50" fill="black">
<rect fill="white" x="19" y="15" width="308" height="50"/>
<path d="M31.0039 34H20.9258V17.1953H30.6172V20.2773H24.7109V24.0156H30.207V27.0859H24.7109V30.9297H31.0039V34ZM47.5156 34H43.0273L40.1328 28.5273C40.0234 28.3242 39.9102 27.9492 39.793 27.4023H39.7461C39.6914 27.6602 39.5625 28.0508 39.3594 28.5742L36.4531 34H31.9414L37.2969 25.5977L32.3984 17.1953H37.0039L39.4062 22.2344C39.5938 22.6328 39.7617 23.1055 39.9102 23.6523H39.957C40.0508 23.3242 40.2266 22.8359 40.4844 22.1875L43.1562 17.1953H47.375L42.3359 25.5273L47.5156 34ZM53.3047 28.2109V34H49.5195V17.1953H55.4492C59.6836 17.1953 61.8008 18.9805 61.8008 22.5508C61.8008 24.2383 61.1914 25.6055 59.9727 26.6523C58.7617 27.6914 57.1406 28.2109 55.1094 28.2109H53.3047ZM53.3047 20.1016V25.3398H54.793C56.8086 25.3398 57.8164 24.457 57.8164 22.6914C57.8164 20.9648 56.8086 20.1016 54.793 20.1016H53.3047ZM74.2695 34H64.2617V17.1953H68.0469V30.9297H74.2695V34ZM82.8242 34.293C80.418 34.293 78.457 33.5117 76.9414 31.9492C75.4258 30.3789 74.668 28.3359 74.668 25.8203C74.668 23.1641 75.4375 21.0156 76.9766 19.375C78.5156 17.7344 80.5547 16.9141 83.0938 16.9141C85.4922 16.9141 87.4297 17.6992 88.9062 19.2695C90.3906 20.8398 91.1328 22.9102 91.1328 25.4805C91.1328 28.1211 90.3633 30.25 88.8242 31.8672C87.293 33.4844 85.293 34.293 82.8242 34.293ZM82.9883 20.1719C81.6602 20.1719 80.6055 20.6719 79.8242 21.6719C79.043 22.6641 78.6523 23.9805 78.6523 25.6211C78.6523 27.2852 79.043 28.6016 79.8242 29.5703C80.6055 30.5391 81.6289 31.0234 82.8945 31.0234C84.1992 31.0234 85.2344 30.5547 86 29.6172C86.7656 28.6719 87.1484 27.3633 87.1484 25.6914C87.1484 23.9492 86.7773 22.5938 86.0352 21.625C85.293 20.6562 84.2773 20.1719 82.9883 20.1719ZM108.031 34H103.684L101.07 29.6758C100.875 29.3477 100.688 29.0547 100.508 28.7969C100.328 28.5391 100.145 28.3203 99.957 28.1406C99.7773 27.9531 99.5859 27.8125 99.3828 27.7188C99.1875 27.6172 98.9727 27.5664 98.7383 27.5664H97.7188V34H93.9336V17.1953H99.9336C104.012 17.1953 106.051 18.7188 106.051 21.7656C106.051 22.3516 105.961 22.8945 105.781 23.3945C105.602 23.8867 105.348 24.332 105.02 24.7305C104.691 25.1289 104.293 25.4727 103.824 25.7617C103.363 26.0508 102.848 26.2773 102.277 26.4414V26.4883C102.527 26.5664 102.77 26.6953 103.004 26.875C103.238 27.0469 103.465 27.25 103.684 27.4844C103.902 27.7188 104.109 27.9727 104.305 28.2461C104.508 28.5117 104.691 28.7734 104.855 29.0312L108.031 34ZM97.7188 20.0312V24.707H99.3594C100.172 24.707 100.824 24.4727 101.316 24.0039C101.816 23.5273 102.066 22.9375 102.066 22.2344C102.066 20.7656 101.188 20.0312 99.4297 20.0312H97.7188ZM119.691 34H109.613V17.1953H119.305V20.2773H113.398V24.0156H118.895V27.0859H113.398V30.9297H119.691V34ZM136.121 34.293C133.715 34.293 131.754 33.5117 130.238 31.9492C128.723 30.3789 127.965 28.3359 127.965 25.8203C127.965 23.1641 128.734 21.0156 130.273 19.375C131.812 17.7344 133.852 16.9141 136.391 16.9141C138.789 16.9141 140.727 17.6992 142.203 19.2695C143.688 20.8398 144.43 22.9102 144.43 25.4805C144.43 28.1211 143.66 30.25 142.121 31.8672C140.59 33.4844 138.59 34.293 136.121 34.293ZM136.285 20.1719C134.957 20.1719 133.902 20.6719 133.121 21.6719C132.34 22.6641 131.949 23.9805 131.949 25.6211C131.949 27.2852 132.34 28.6016 133.121 29.5703C133.902 30.5391 134.926 31.0234 136.191 31.0234C137.496 31.0234 138.531 30.5547 139.297 29.6172C140.062 28.6719 140.445 27.3633 140.445 25.6914C140.445 23.9492 140.074 22.5938 139.332 21.625C138.59 20.6562 137.574 20.1719 136.285 20.1719ZM160.93 26.7227C160.93 31.7695 158.578 34.293 153.875 34.293C149.312 34.293 147.031 31.8281 147.031 26.8984V17.1953H150.828V26.9453C150.828 29.6641 151.891 31.0234 154.016 31.0234C156.102 31.0234 157.145 29.7109 157.145 27.0859V17.1953H160.93V26.7227ZM178.695 34H174.348L171.734 29.6758C171.539 29.3477 171.352 29.0547 171.172 28.7969C170.992 28.5391 170.809 28.3203 170.621 28.1406C170.441 27.9531 170.25 27.8125 170.047 27.7188C169.852 27.6172 169.637 27.5664 169.402 27.5664H168.383V34H164.598V17.1953H170.598C174.676 17.1953 176.715 18.7188 176.715 21.7656C176.715 22.3516 176.625 22.8945 176.445 23.3945C176.266 23.8867 176.012 24.332 175.684 24.7305C175.355 25.1289 174.957 25.4727 174.488 25.7617C174.027 26.0508 173.512 26.2773 172.941 26.4414V26.4883C173.191 26.5664 173.434 26.6953 173.668 26.875C173.902 27.0469 174.129 27.25 174.348 27.4844C174.566 27.7188 174.773 27.9727 174.969 28.2461C175.172 28.5117 175.355 28.7734 175.52 29.0312L178.695 34ZM168.383 20.0312V24.707H170.023C170.836 24.707 171.488 24.4727 171.98 24.0039C172.48 23.5273 172.73 22.9375 172.73 22.2344C172.73 20.7656 171.852 20.0312 170.094 20.0312H168.383ZM190.695 34H186.91V17.1953H190.695V34ZM209.645 34H205.824L198.898 23.4414C198.492 22.8242 198.211 22.3594 198.055 22.0469H198.008C198.07 22.6406 198.102 23.5469 198.102 24.7656V34H194.527V17.1953H198.605L205.273 27.4258C205.578 27.8867 205.859 28.3438 206.117 28.7969H206.164C206.102 28.4062 206.07 27.6367 206.07 26.4883V17.1953H209.645V34ZM225.289 20.2773H220.496V34H216.699V20.2773H211.93V17.1953H225.289V20.2773ZM241.648 34H237.301L234.688 29.6758C234.492 29.3477 234.305 29.0547 234.125 28.7969C233.945 28.5391 233.762 28.3203 233.574 28.1406C233.395 27.9531 233.203 27.8125 233 27.7188C232.805 27.6172 232.59 27.5664 232.355 27.5664H231.336V34H227.551V17.1953H233.551C237.629 17.1953 239.668 18.7188 239.668 21.7656C239.668 22.3516 239.578 22.8945 239.398 23.3945C239.219 23.8867 238.965 24.332 238.637 24.7305C238.309 25.1289 237.91 25.4727 237.441 25.7617C236.98 26.0508 236.465 26.2773 235.895 26.4414V26.4883C236.145 26.5664 236.387 26.6953 236.621 26.875C236.855 27.0469 237.082 27.25 237.301 27.4844C237.52 27.7188 237.727 27.9727 237.922 28.2461C238.125 28.5117 238.309 28.7734 238.473 29.0312L241.648 34ZM231.336 20.0312V24.707H232.977C233.789 24.707 234.441 24.4727 234.934 24.0039C235.434 23.5273 235.684 22.9375 235.684 22.2344C235.684 20.7656 234.805 20.0312 233.047 20.0312H231.336ZM247.016 34H243.23V17.1953H247.016V34ZM264.641 32.875C263 33.8203 260.961 34.293 258.523 34.293C255.82 34.293 253.688 33.5469 252.125 32.0547C250.57 30.5547 249.793 28.4922 249.793 25.8672C249.793 23.2266 250.645 21.0742 252.348 19.4102C254.051 17.7461 256.316 16.9141 259.145 16.9141C260.926 16.9141 262.496 17.1602 263.855 17.6523V21.2031C262.559 20.4531 260.973 20.0781 259.098 20.0781C257.527 20.0781 256.246 20.5898 255.254 21.6133C254.27 22.6289 253.777 23.9883 253.777 25.6914C253.777 27.418 254.219 28.7539 255.102 29.6992C255.992 30.6445 257.191 31.1172 258.699 31.1172C259.605 31.1172 260.324 30.9883 260.855 30.7305V27.4492H257.492V24.4258H264.641V32.875ZM281.609 26.7227C281.609 31.7695 279.258 34.293 274.555 34.293C269.992 34.293 267.711 31.8281 267.711 26.8984V17.1953H271.508V26.9453C271.508 29.6641 272.57 31.0234 274.695 31.0234C276.781 31.0234 277.824 29.7109 277.824 27.0859V17.1953H281.609V26.7227ZM289.062 34H285.277V17.1953H289.062V34ZM308.012 34H304.191L297.266 23.4414C296.859 22.8242 296.578 22.3594 296.422 22.0469H296.375C296.438 22.6406 296.469 23.5469 296.469 24.7656V34H292.895V17.1953H296.973L303.641 27.4258C303.945 27.8867 304.227 28.3438 304.484 28.7969H304.531C304.469 28.4062 304.438 27.6367 304.438 26.4883V17.1953H308.012V34ZM325.648 32.875C324.008 33.8203 321.969 34.293 319.531 34.293C316.828 34.293 314.695 33.5469 313.133 32.0547C311.578 30.5547 310.801 28.4922 310.801 25.8672C310.801 23.2266 311.652 21.0742 313.355 19.4102C315.059 17.7461 317.324 16.9141 320.152 16.9141C321.934 16.9141 323.504 17.1602 324.863 17.6523V21.2031C323.566 20.4531 321.98 20.0781 320.105 20.0781C318.535 20.0781 317.254 20.5898 316.262 21.6133C315.277 22.6289 314.785 23.9883 314.785 25.6914C314.785 27.418 315.227 28.7539 316.109 29.6992C317 30.6445 318.199 31.1172 319.707 31.1172C320.613 31.1172 321.332 30.9883 321.863 30.7305V27.4492H318.5V24.4258H325.648V32.875ZM120.465 62.4492V59.2266C121.59 60.0469 122.902 60.457 124.402 60.457C125.348 60.457 126.082 60.2539 126.605 59.8477C127.137 59.4414 127.402 58.875 127.402 58.1484C127.402 57.3984 127.074 56.8203 126.418 56.4141C125.77 56.0078 124.875 55.8047 123.734 55.8047H122.176V52.9688H123.617C125.805 52.9688 126.898 52.2422 126.898 50.7891C126.898 49.4219 126.059 48.7383 124.379 48.7383C123.254 48.7383 122.16 49.1016 121.098 49.8281V46.8047C122.277 46.2109 123.652 45.9141 125.223 45.9141C126.941 45.9141 128.277 46.3008 129.23 47.0742C130.191 47.8477 130.672 48.8516 130.672 50.0859C130.672 52.2812 129.559 53.6562 127.332 54.2109V54.2695C128.52 54.418 129.457 54.8516 130.145 55.5703C130.832 56.2812 131.176 57.1562 131.176 58.1953C131.176 59.7656 130.602 61.0078 129.453 61.9219C128.305 62.8359 126.719 63.293 124.695 63.293C122.961 63.293 121.551 63.0117 120.465 62.4492ZM134.82 63V46.1953H140.773C146.742 46.1953 149.727 48.9258 149.727 54.3867C149.727 57.0039 148.91 59.0938 147.277 60.6562C145.652 62.2188 143.484 63 140.773 63H134.82ZM138.605 49.2773V59.9297H140.48C142.121 59.9297 143.406 59.4375 144.336 58.4531C145.273 57.4688 145.742 56.1289 145.742 54.4336C145.742 52.832 145.277 51.5742 144.348 50.6602C143.426 49.7383 142.129 49.2773 140.457 49.2773H138.605ZM172.941 61.875C171.301 62.8203 169.262 63.293 166.824 63.293C164.121 63.293 161.988 62.5469 160.426 61.0547C158.871 59.5547 158.094 57.4922 158.094 54.8672C158.094 52.2266 158.945 50.0742 160.648 48.4102C162.352 46.7461 164.617 45.9141 167.445 45.9141C169.227 45.9141 170.797 46.1602 172.156 46.6523V50.2031C170.859 49.4531 169.273 49.0781 167.398 49.0781C165.828 49.0781 164.547 49.5898 163.555 50.6133C162.57 51.6289 162.078 52.9883 162.078 54.6914C162.078 56.418 162.52 57.7539 163.402 58.6992C164.293 59.6445 165.492 60.1172 167 60.1172C167.906 60.1172 168.625 59.9883 169.156 59.7305V56.4492H165.793V53.4258H172.941V61.875ZM190.988 63H186.863L185.668 59.2617H179.691L178.508 63H174.406L180.523 46.1953H185.012L190.988 63ZM184.801 56.3555L182.996 50.707C182.863 50.2852 182.77 49.7812 182.715 49.1953H182.621C182.582 49.6875 182.484 50.1758 182.328 50.6602L180.5 56.3555H184.801ZM212.234 63H208.496V52.9453C208.496 51.8594 208.543 50.6602 208.637 49.3477H208.543C208.348 50.3789 208.172 51.1211 208.016 51.5742L204.078 63H200.984L196.977 51.6914C196.867 51.3867 196.691 50.6055 196.449 49.3477H196.344C196.445 51.0039 196.496 52.457 196.496 53.707V63H193.086V46.1953H198.629L202.062 56.1562C202.336 56.9531 202.535 57.7539 202.66 58.5586H202.73C202.941 57.6289 203.164 56.8203 203.398 56.1328L206.832 46.1953H212.234V63ZM226.133 63H216.055V46.1953H225.746V49.2773H219.84V53.0156H225.336V56.0859H219.84V59.9297H226.133V63Z"/>
</mask>
<path d="M31.0039 34H20.9258V17.1953H30.6172V20.2773H24.7109V24.0156H30.207V27.0859H24.7109V30.9297H31.0039V34ZM47.5156 34H43.0273L40.1328 28.5273C40.0234 28.3242 39.9102 27.9492 39.793 27.4023H39.7461C39.6914 27.6602 39.5625 28.0508 39.3594 28.5742L36.4531 34H31.9414L37.2969 25.5977L32.3984 17.1953H37.0039L39.4062 22.2344C39.5938 22.6328 39.7617 23.1055 39.9102 23.6523H39.957C40.0508 23.3242 40.2266 22.8359 40.4844 22.1875L43.1562 17.1953H47.375L42.3359 25.5273L47.5156 34ZM53.3047 28.2109V34H49.5195V17.1953H55.4492C59.6836 17.1953 61.8008 18.9805 61.8008 22.5508C61.8008 24.2383 61.1914 25.6055 59.9727 26.6523C58.7617 27.6914 57.1406 28.2109 55.1094 28.2109H53.3047ZM53.3047 20.1016V25.3398H54.793C56.8086 25.3398 57.8164 24.457 57.8164 22.6914C57.8164 20.9648 56.8086 20.1016 54.793 20.1016H53.3047ZM74.2695 34H64.2617V17.1953H68.0469V30.9297H74.2695V34ZM82.8242 34.293C80.418 34.293 78.457 33.5117 76.9414 31.9492C75.4258 30.3789 74.668 28.3359 74.668 25.8203C74.668 23.1641 75.4375 21.0156 76.9766 19.375C78.5156 17.7344 80.5547 16.9141 83.0938 16.9141C85.4922 16.9141 87.4297 17.6992 88.9062 19.2695C90.3906 20.8398 91.1328 22.9102 91.1328 25.4805C91.1328 28.1211 90.3633 30.25 88.8242 31.8672C87.293 33.4844 85.293 34.293 82.8242 34.293ZM82.9883 20.1719C81.6602 20.1719 80.6055 20.6719 79.8242 21.6719C79.043 22.6641 78.6523 23.9805 78.6523 25.6211C78.6523 27.2852 79.043 28.6016 79.8242 29.5703C80.6055 30.5391 81.6289 31.0234 82.8945 31.0234C84.1992 31.0234 85.2344 30.5547 86 29.6172C86.7656 28.6719 87.1484 27.3633 87.1484 25.6914C87.1484 23.9492 86.7773 22.5938 86.0352 21.625C85.293 20.6562 84.2773 20.1719 82.9883 20.1719ZM108.031 34H103.684L101.07 29.6758C100.875 29.3477 100.688 29.0547 100.508 28.7969C100.328 28.5391 100.145 28.3203 99.957 28.1406C99.7773 27.9531 99.5859 27.8125 99.3828 27.7188C99.1875 27.6172 98.9727 27.5664 98.7383 27.5664H97.7188V34H93.9336V17.1953H99.9336C104.012 17.1953 106.051 18.7188 106.051 21.7656C106.051 22.3516 105.961 22.8945 105.781 23.3945C105.602 23.8867 105.348 24.332 105.02 24.7305C104.691 25.1289 104.293 25.4727 103.824 25.7617C103.363 26.0508 102.848 26.2773 102.277 26.4414V26.4883C102.527 26.5664 102.77 26.6953 103.004 26.875C103.238 27.0469 103.465 27.25 103.684 27.4844C103.902 27.7188 104.109 27.9727 104.305 28.2461C104.508 28.5117 104.691 28.7734 104.855 29.0312L108.031 34ZM97.7188 20.0312V24.707H99.3594C100.172 24.707 100.824 24.4727 101.316 24.0039C101.816 23.5273 102.066 22.9375 102.066 22.2344C102.066 20.7656 101.188 20.0312 99.4297 20.0312H97.7188ZM119.691 34H109.613V17.1953H119.305V20.2773H113.398V24.0156H118.895V27.0859H113.398V30.9297H119.691V34ZM136.121 34.293C133.715 34.293 131.754 33.5117 130.238 31.9492C128.723 30.3789 127.965 28.3359 127.965 25.8203C127.965 23.1641 128.734 21.0156 130.273 19.375C131.812 17.7344 133.852 16.9141 136.391 16.9141C138.789 16.9141 140.727 17.6992 142.203 19.2695C143.688 20.8398 144.43 22.9102 144.43 25.4805C144.43 28.1211 143.66 30.25 142.121 31.8672C140.59 33.4844 138.59 34.293 136.121 34.293ZM136.285 20.1719C134.957 20.1719 133.902 20.6719 133.121 21.6719C132.34 22.6641 131.949 23.9805 131.949 25.6211C131.949 27.2852 132.34 28.6016 133.121 29.5703C133.902 30.5391 134.926 31.0234 136.191 31.0234C137.496 31.0234 138.531 30.5547 139.297 29.6172C140.062 28.6719 140.445 27.3633 140.445 25.6914C140.445 23.9492 140.074 22.5938 139.332 21.625C138.59 20.6562 137.574 20.1719 136.285 20.1719ZM160.93 26.7227C160.93 31.7695 158.578 34.293 153.875 34.293C149.312 34.293 147.031 31.8281 147.031 26.8984V17.1953H150.828V26.9453C150.828 29.6641 151.891 31.0234 154.016 31.0234C156.102 31.0234 157.145 29.7109 157.145 27.0859V17.1953H160.93V26.7227ZM178.695 34H174.348L171.734 29.6758C171.539 29.3477 171.352 29.0547 171.172 28.7969C170.992 28.5391 170.809 28.3203 170.621 28.1406C170.441 27.9531 170.25 27.8125 170.047 27.7188C169.852 27.6172 169.637 27.5664 169.402 27.5664H168.383V34H164.598V17.1953H170.598C174.676 17.1953 176.715 18.7188 176.715 21.7656C176.715 22.3516 176.625 22.8945 176.445 23.3945C176.266 23.8867 176.012 24.332 175.684 24.7305C175.355 25.1289 174.957 25.4727 174.488 25.7617C174.027 26.0508 173.512 26.2773 172.941 26.4414V26.4883C173.191 26.5664 173.434 26.6953 173.668 26.875C173.902 27.0469 174.129 27.25 174.348 27.4844C174.566 27.7188 174.773 27.9727 174.969 28.2461C175.172 28.5117 175.355 28.7734 175.52 29.0312L178.695 34ZM168.383 20.0312V24.707H170.023C170.836 24.707 171.488 24.4727 171.98 24.0039C172.48 23.5273 172.73 22.9375 172.73 22.2344C172.73 20.7656 171.852 20.0312 170.094 20.0312H168.383ZM190.695 34H186.91V17.1953H190.695V34ZM209.645 34H205.824L198.898 23.4414C198.492 22.8242 198.211 22.3594 198.055 22.0469H198.008C198.07 22.6406 198.102 23.5469 198.102 24.7656V34H194.527V17.1953H198.605L205.273 27.4258C205.578 27.8867 205.859 28.3438 206.117 28.7969H206.164C206.102 28.4062 206.07 27.6367 206.07 26.4883V17.1953H209.645V34ZM225.289 20.2773H220.496V34H216.699V20.2773H211.93V17.1953H225.289V20.2773ZM241.648 34H237.301L234.688 29.6758C234.492 29.3477 234.305 29.0547 234.125 28.7969C233.945 28.5391 233.762 28.3203 233.574 28.1406C233.395 27.9531 233.203 27.8125 233 27.7188C232.805 27.6172 232.59 27.5664 232.355 27.5664H231.336V34H227.551V17.1953H233.551C237.629 17.1953 239.668 18.7188 239.668 21.7656C239.668 22.3516 239.578 22.8945 239.398 23.3945C239.219 23.8867 238.965 24.332 238.637 24.7305C238.309 25.1289 237.91 25.4727 237.441 25.7617C236.98 26.0508 236.465 26.2773 235.895 26.4414V26.4883C236.145 26.5664 236.387 26.6953 236.621 26.875C236.855 27.0469 237.082 27.25 237.301 27.4844C237.52 27.7188 237.727 27.9727 237.922 28.2461C238.125 28.5117 238.309 28.7734 238.473 29.0312L241.648 34ZM231.336 20.0312V24.707H232.977C233.789 24.707 234.441 24.4727 234.934 24.0039C235.434 23.5273 235.684 22.9375 235.684 22.2344C235.684 20.7656 234.805 20.0312 233.047 20.0312H231.336ZM247.016 34H243.23V17.1953H247.016V34ZM264.641 32.875C263 33.8203 260.961 34.293 258.523 34.293C255.82 34.293 253.688 33.5469 252.125 32.0547C250.57 30.5547 249.793 28.4922 249.793 25.8672C249.793 23.2266 250.645 21.0742 252.348 19.4102C254.051 17.7461 256.316 16.9141 259.145 16.9141C260.926 16.9141 262.496 17.1602 263.855 17.6523V21.2031C262.559 20.4531 260.973 20.0781 259.098 20.0781C257.527 20.0781 256.246 20.5898 255.254 21.6133C254.27 22.6289 253.777 23.9883 253.777 25.6914C253.777 27.418 254.219 28.7539 255.102 29.6992C255.992 30.6445 257.191 31.1172 258.699 31.1172C259.605 31.1172 260.324 30.9883 260.855 30.7305V27.4492H257.492V24.4258H264.641V32.875ZM281.609 26.7227C281.609 31.7695 279.258 34.293 274.555 34.293C269.992 34.293 267.711 31.8281 267.711 26.8984V17.1953H271.508V26.9453C271.508 29.6641 272.57 31.0234 274.695 31.0234C276.781 31.0234 277.824 29.7109 277.824 27.0859V17.1953H281.609V26.7227ZM289.062 34H285.277V17.1953H289.062V34ZM308.012 34H304.191L297.266 23.4414C296.859 22.8242 296.578 22.3594 296.422 22.0469H296.375C296.438 22.6406 296.469 23.5469 296.469 24.7656V34H292.895V17.1953H296.973L303.641 27.4258C303.945 27.8867 304.227 28.3438 304.484 28.7969H304.531C304.469 28.4062 304.438 27.6367 304.438 26.4883V17.1953H308.012V34ZM325.648 32.875C324.008 33.8203 321.969 34.293 319.531 34.293C316.828 34.293 314.695 33.5469 313.133 32.0547C311.578 30.5547 310.801 28.4922 310.801 25.8672C310.801 23.2266 311.652 21.0742 313.355 19.4102C315.059 17.7461 317.324 16.9141 320.152 16.9141C321.934 16.9141 323.504 17.1602 324.863 17.6523V21.2031C323.566 20.4531 321.98 20.0781 320.105 20.0781C318.535 20.0781 317.254 20.5898 316.262 21.6133C315.277 22.6289 314.785 23.9883 314.785 25.6914C314.785 27.418 315.227 28.7539 316.109 29.6992C317 30.6445 318.199 31.1172 319.707 31.1172C320.613 31.1172 321.332 30.9883 321.863 30.7305V27.4492H318.5V24.4258H325.648V32.875ZM120.465 62.4492V59.2266C121.59 60.0469 122.902 60.457 124.402 60.457C125.348 60.457 126.082 60.2539 126.605 59.8477C127.137 59.4414 127.402 58.875 127.402 58.1484C127.402 57.3984 127.074 56.8203 126.418 56.4141C125.77 56.0078 124.875 55.8047 123.734 55.8047H122.176V52.9688H123.617C125.805 52.9688 126.898 52.2422 126.898 50.7891C126.898 49.4219 126.059 48.7383 124.379 48.7383C123.254 48.7383 122.16 49.1016 121.098 49.8281V46.8047C122.277 46.2109 123.652 45.9141 125.223 45.9141C126.941 45.9141 128.277 46.3008 129.23 47.0742C130.191 47.8477 130.672 48.8516 130.672 50.0859C130.672 52.2812 129.559 53.6562 127.332 54.2109V54.2695C128.52 54.418 129.457 54.8516 130.145 55.5703C130.832 56.2812 131.176 57.1562 131.176 58.1953C131.176 59.7656 130.602 61.0078 129.453 61.9219C128.305 62.8359 126.719 63.293 124.695 63.293C122.961 63.293 121.551 63.0117 120.465 62.4492ZM134.82 63V46.1953H140.773C146.742 46.1953 149.727 48.9258 149.727 54.3867C149.727 57.0039 148.91 59.0938 147.277 60.6562C145.652 62.2188 143.484 63 140.773 63H134.82ZM138.605 49.2773V59.9297H140.48C142.121 59.9297 143.406 59.4375 144.336 58.4531C145.273 57.4688 145.742 56.1289 145.742 54.4336C145.742 52.832 145.277 51.5742 144.348 50.6602C143.426 49.7383 142.129 49.2773 140.457 49.2773H138.605ZM172.941 61.875C171.301 62.8203 169.262 63.293 166.824 63.293C164.121 63.293 161.988 62.5469 160.426 61.0547C158.871 59.5547 158.094 57.4922 158.094 54.8672C158.094 52.2266 158.945 50.0742 160.648 48.4102C162.352 46.7461 164.617 45.9141 167.445 45.9141C169.227 45.9141 170.797 46.1602 172.156 46.6523V50.2031C170.859 49.4531 169.273 49.0781 167.398 49.0781C165.828 49.0781 164.547 49.5898 163.555 50.6133C162.57 51.6289 162.078 52.9883 162.078 54.6914C162.078 56.418 162.52 57.7539 163.402 58.6992C164.293 59.6445 165.492 60.1172 167 60.1172C167.906 60.1172 168.625 59.9883 169.156 59.7305V56.4492H165.793V53.4258H172.941V61.875ZM190.988 63H186.863L185.668 59.2617H179.691L178.508 63H174.406L180.523 46.1953H185.012L190.988 63ZM184.801 56.3555L182.996 50.707C182.863 50.2852 182.77 49.7812 182.715 49.1953H182.621C182.582 49.6875 182.484 50.1758 182.328 50.6602L180.5 56.3555H184.801ZM212.234 63H208.496V52.9453C208.496 51.8594 208.543 50.6602 208.637 49.3477H208.543C208.348 50.3789 208.172 51.1211 208.016 51.5742L204.078 63H200.984L196.977 51.6914C196.867 51.3867 196.691 50.6055 196.449 49.3477H196.344C196.445 51.0039 196.496 52.457 196.496 53.707V63H193.086V46.1953H198.629L202.062 56.1562C202.336 56.9531 202.535 57.7539 202.66 58.5586H202.73C202.941 57.6289 203.164 56.8203 203.398 56.1328L206.832 46.1953H212.234V63ZM226.133 63H216.055V46.1953H225.746V49.2773H219.84V53.0156H225.336V56.0859H219.84V59.9297H226.133V63Z" fill="url(#paint0_linear_3_46)"/>
<path d="M31.0039 34V35H32.0039V34H31.0039ZM20.9258 34H19.9258V35H20.9258V34ZM20.9258 17.1953V16.1953H19.9258V17.1953H20.9258ZM30.6172 17.1953H31.6172V16.1953H30.6172V17.1953ZM30.6172 20.2773V21.2773H31.6172V20.2773H30.6172ZM24.7109 20.2773V19.2773H23.7109V20.2773H24.7109ZM24.7109 24.0156H23.7109V25.0156H24.7109V24.0156ZM30.207 24.0156H31.207V23.0156H30.207V24.0156ZM30.207 27.0859V28.0859H31.207V27.0859H30.207ZM24.7109 27.0859V26.0859H23.7109V27.0859H24.7109ZM24.7109 30.9297H23.7109V31.9297H24.7109V30.9297ZM31.0039 30.9297H32.0039V29.9297H31.0039V30.9297ZM31.0039 33H20.9258V35H31.0039V33ZM21.9258 34V17.1953H19.9258V34H21.9258ZM20.9258 18.1953H30.6172V16.1953H20.9258V18.1953ZM29.6172 17.1953V20.2773H31.6172V17.1953H29.6172ZM30.6172 19.2773H24.7109V21.2773H30.6172V19.2773ZM23.7109 20.2773V24.0156H25.7109V20.2773H23.7109ZM24.7109 25.0156H30.207V23.0156H24.7109V25.0156ZM29.207 24.0156V27.0859H31.207V24.0156H29.207ZM30.207 26.0859H24.7109V28.0859H30.207V26.0859ZM23.7109 27.0859V30.9297H25.7109V27.0859H23.7109ZM24.7109 31.9297H31.0039V29.9297H24.7109V31.9297ZM30.0039 30.9297V34H32.0039V30.9297H30.0039ZM47.5156 34V35H49.299L48.3688 33.4784L47.5156 34ZM43.0273 34L42.1434 34.4675L42.425 35H43.0273V34ZM40.1328 28.5273L41.0168 28.0598L41.0133 28.0532L40.1328 28.5273ZM39.793 27.4023L40.7708 27.1928L40.6014 26.4023H39.793V27.4023ZM39.7461 27.4023V26.4023H38.936L38.7679 27.1948L39.7461 27.4023ZM39.3594 28.5742L40.2409 29.0464L40.2696 28.9927L40.2916 28.936L39.3594 28.5742ZM36.4531 34V35H37.0519L37.3346 34.4722L36.4531 34ZM31.9414 34L31.0981 33.4625L30.1182 35H31.9414V34ZM37.2969 25.5977L38.1401 26.1351L38.4679 25.6209L38.1608 25.094L37.2969 25.5977ZM32.3984 17.1953V16.1953H30.6579L31.5345 17.699L32.3984 17.1953ZM37.0039 17.1953L37.9066 16.765L37.635 16.1953H37.0039V17.1953ZM39.4062 22.2344L40.3111 21.8086L40.3089 21.804L39.4062 22.2344ZM39.9102 23.6523L38.9451 23.9143L39.1454 24.6523H39.9102V23.6523ZM39.957 23.6523V24.6523H40.7113L40.9186 23.9271L39.957 23.6523ZM40.4844 22.1875L39.6027 21.7156L39.576 21.7655L39.5551 21.818L40.4844 22.1875ZM43.1562 17.1953V16.1953H42.5572L42.2746 16.7234L43.1562 17.1953ZM47.375 17.1953L48.2307 17.7128L49.1484 16.1953H47.375V17.1953ZM42.3359 25.5273L41.4803 25.0098L41.1656 25.5301L41.4827 26.0489L42.3359 25.5273ZM47.5156 33H43.0273V35H47.5156V33ZM43.9113 33.5325L41.0168 28.0598L39.2488 28.9949L42.1434 34.4675L43.9113 33.5325ZM41.0133 28.0532C40.9786 27.9888 40.8883 27.7414 40.7708 27.1928L38.8152 27.6119C38.932 28.1571 39.0683 28.6596 39.2523 29.0014L41.0133 28.0532ZM39.793 26.4023H39.7461V28.4023H39.793V26.4023ZM38.7679 27.1948C38.731 27.3688 38.6274 27.6962 38.4271 28.2124L40.2916 28.936C40.4976 28.4054 40.6519 27.9515 40.7243 27.6098L38.7679 27.1948ZM38.4779 28.1021L35.5716 33.5278L37.3346 34.4722L40.2409 29.0464L38.4779 28.1021ZM36.4531 33H31.9414V35H36.4531V33ZM32.7847 34.5375L38.1401 26.1351L36.4536 25.0602L31.0981 33.4625L32.7847 34.5375ZM38.1608 25.094L33.2623 16.6917L31.5345 17.699L36.433 26.1013L38.1608 25.094ZM32.3984 18.1953H37.0039V16.1953H32.3984V18.1953ZM36.1012 17.6257L38.5036 22.6647L40.3089 21.804L37.9066 16.765L36.1012 17.6257ZM38.5014 22.6602C38.6582 22.9934 38.8078 23.4086 38.9451 23.9143L40.8752 23.3904C40.7156 22.8023 40.5293 22.2722 40.3111 21.8086L38.5014 22.6602ZM39.9102 24.6523H39.957V22.6523H39.9102V24.6523ZM40.9186 23.9271C40.9979 23.6493 41.1582 23.1994 41.4136 22.557L39.5551 21.818C39.2949 22.4725 39.1037 22.9991 38.9955 23.3776L40.9186 23.9271ZM41.366 22.6594L44.0379 17.6672L42.2746 16.7234L39.6027 21.7156L41.366 22.6594ZM43.1562 18.1953H47.375V16.1953H43.1562V18.1953ZM46.5193 16.6778L41.4803 25.0098L43.1916 26.0448L48.2307 17.7128L46.5193 16.6778ZM41.4827 26.0489L46.6624 34.5216L48.3688 33.4784L43.1891 25.0058L41.4827 26.0489ZM53.3047 28.2109V27.2109H52.3047V28.2109H53.3047ZM53.3047 34V35H54.3047V34H53.3047ZM49.5195 34H48.5195V35H49.5195V34ZM49.5195 17.1953V16.1953H48.5195V17.1953H49.5195ZM59.9727 26.6523L60.6239 27.4113L60.6242 27.4109L59.9727 26.6523ZM53.3047 20.1016V19.1016H52.3047V20.1016H53.3047ZM53.3047 25.3398H52.3047V26.3398H53.3047V25.3398ZM52.3047 28.2109V34H54.3047V28.2109H52.3047ZM53.3047 33H49.5195V35H53.3047V33ZM50.5195 34V17.1953H48.5195V34H50.5195ZM49.5195 18.1953H55.4492V16.1953H49.5195V18.1953ZM55.4492 18.1953C57.4499 18.1953 58.7641 18.6206 59.5683 19.2987C60.3398 19.9492 60.8008 20.9687 60.8008 22.5508H62.8008C62.8008 20.5625 62.2032 18.9043 60.8575 17.7697C59.5445 16.6626 57.6829 16.1953 55.4492 16.1953V18.1953ZM60.8008 22.5508C60.8008 23.9635 60.3063 25.0475 59.3211 25.8938L60.6242 27.4109C62.0766 26.1634 62.8008 24.5131 62.8008 22.5508H60.8008ZM59.3215 25.8934C58.3369 26.7383 56.9687 27.2109 55.1094 27.2109V29.2109C57.3126 29.2109 59.1866 28.6445 60.6239 27.4113L59.3215 25.8934ZM55.1094 27.2109H53.3047V29.2109H55.1094V27.2109ZM52.3047 20.1016V25.3398H54.3047V20.1016H52.3047ZM53.3047 26.3398H54.793V24.3398H53.3047V26.3398ZM54.793 26.3398C55.9248 26.3398 56.9604 26.0948 57.7195 25.4299C58.5038 24.7429 58.8164 23.7653 58.8164 22.6914H56.8164C56.8164 23.3831 56.6251 23.7298 56.4016 23.9255C56.1529 24.1434 55.6768 24.3398 54.793 24.3398V26.3398ZM58.8164 22.6914C58.8164 21.6301 58.4994 20.6648 57.7111 19.9896C56.9524 19.3397 55.9203 19.1016 54.793 19.1016V21.1016C55.6813 21.1016 56.1609 21.2951 56.41 21.5085C56.6295 21.6965 56.8164 22.0262 56.8164 22.6914H58.8164ZM54.793 19.1016H53.3047V21.1016H54.793V19.1016ZM74.2695 34V35H75.2695V34H74.2695ZM64.2617 34H63.2617V35H64.2617V34ZM64.2617 17.1953V16.1953H63.2617V17.1953H64.2617ZM68.0469 17.1953H69.0469V16.1953H68.0469V17.1953ZM68.0469 30.9297H67.0469V31.9297H68.0469V30.9297ZM74.2695 30.9297H75.2695V29.9297H74.2695V30.9297ZM74.2695 33H64.2617V35H74.2695V33ZM65.2617 34V17.1953H63.2617V34H65.2617ZM64.2617 18.1953H68.0469V16.1953H64.2617V18.1953ZM67.0469 17.1953V30.9297H69.0469V17.1953H67.0469ZM68.0469 31.9297H74.2695V29.9297H68.0469V31.9297ZM73.2695 30.9297V34H75.2695V30.9297H73.2695ZM76.9414 31.9492L76.2219 32.6437L76.2236 32.6455L76.9414 31.9492ZM76.9766 19.375L76.2472 18.6908L76.9766 19.375ZM88.9062 19.2695L88.1777 19.9546L88.1795 19.9565L88.9062 19.2695ZM88.8242 31.8672L88.0998 31.1778L88.0981 31.1796L88.8242 31.8672ZM79.8242 21.6719L80.6099 22.2905L80.6122 22.2875L79.8242 21.6719ZM86 29.6172L86.7745 30.2497L86.7771 30.2466L86 29.6172ZM82.8242 33.293C80.657 33.293 78.9657 32.5998 77.6592 31.253L76.2236 32.6455C77.9484 34.4236 80.1789 35.293 82.8242 35.293V33.293ZM77.6609 31.2548C76.3528 29.8994 75.668 28.1195 75.668 25.8203H73.668C73.668 28.5524 74.4988 30.8584 76.2219 32.6437L77.6609 31.2548ZM75.668 25.8203C75.668 23.3693 76.3715 21.4816 77.7059 20.0592L76.2472 18.6908C74.5035 20.5497 73.668 22.9588 73.668 25.8203H75.668ZM77.7059 20.0592C79.0307 18.647 80.7918 17.9141 83.0938 17.9141V15.9141C80.3176 15.9141 78.0006 16.8218 76.2472 18.6908L77.7059 20.0592ZM83.0938 17.9141C85.2507 17.9141 86.9125 18.609 88.1777 19.9546L89.6348 18.5845C87.9469 16.7894 85.7337 15.9141 83.0938 15.9141V17.9141ZM88.1795 19.9565C89.456 21.3068 90.1328 23.1141 90.1328 25.4805H92.1328C92.1328 22.7062 91.3253 20.3729 89.633 18.5826L88.1795 19.9565ZM90.1328 25.4805C90.1328 27.9145 89.4302 29.7799 88.0998 31.1778L89.5486 32.5566C91.2963 30.7201 92.1328 28.3277 92.1328 25.4805H90.1328ZM88.0981 31.1796C86.7772 32.5746 85.0512 33.293 82.8242 33.293V35.293C85.5347 35.293 87.8087 34.3941 89.5504 32.5547L88.0981 31.1796ZM82.9883 19.1719C81.369 19.1719 80.017 19.8008 79.0362 21.0562L80.6122 22.2875C81.194 21.5429 81.9513 21.1719 82.9883 21.1719V19.1719ZM79.0385 21.0532C78.0817 22.2684 77.6523 23.8237 77.6523 25.6211H79.6523C79.6523 24.1372 80.0042 23.0597 80.6099 22.2905L79.0385 21.0532ZM77.6523 25.6211C77.6523 27.4365 78.0793 28.9996 79.0458 30.1981L80.6026 28.9426C80.0067 28.2035 79.6523 27.1338 79.6523 25.6211H77.6523ZM79.0458 30.1981C80.0206 31.4068 81.3325 32.0234 82.8945 32.0234V30.0234C81.9253 30.0234 81.1903 29.6713 80.6026 28.9426L79.0458 30.1981ZM82.8945 32.0234C84.4727 32.0234 85.8027 31.4397 86.7745 30.2497L85.2255 28.9847C84.666 29.6697 83.9257 30.0234 82.8945 30.0234V32.0234ZM86.7771 30.2466C87.7327 29.0667 88.1484 27.5073 88.1484 25.6914H86.1484C86.1484 27.2192 85.7986 28.277 85.2229 28.9878L86.7771 30.2466ZM88.1484 25.6914C88.1484 23.8207 87.7514 22.2209 86.829 21.0168L85.2413 22.2332C85.8033 22.9666 86.1484 24.0778 86.1484 25.6914H88.1484ZM86.829 21.0168C85.8855 19.7854 84.5681 19.1719 82.9883 19.1719V21.1719C83.9865 21.1719 84.7004 21.5271 85.2413 22.2332L86.829 21.0168ZM108.031 34V35H109.857L108.874 33.4615L108.031 34ZM103.684 34L102.828 34.5172L103.119 35H103.684V34ZM101.07 29.6758L100.211 30.1873L100.214 30.193L101.07 29.6758ZM99.957 28.1406L99.235 28.8325L99.2498 28.8479L99.2651 28.8626L99.957 28.1406ZM99.3828 27.7188L98.9215 28.606L98.9424 28.6168L98.9638 28.6267L99.3828 27.7188ZM97.7188 27.5664V26.5664H96.7188V27.5664H97.7188ZM97.7188 34V35H98.7188V34H97.7188ZM93.9336 34H92.9336V35H93.9336V34ZM93.9336 17.1953V16.1953H92.9336V17.1953H93.9336ZM105.781 23.3945L106.721 23.7375L106.722 23.7327L105.781 23.3945ZM103.824 25.7617L103.299 24.9105L103.293 24.9145L103.824 25.7617ZM102.277 26.4414L102.001 25.4804L101.277 25.6885V26.4414H102.277ZM102.277 26.4883H101.277V27.2235L101.979 27.4428L102.277 26.4883ZM103.004 26.875L102.395 27.6686L102.404 27.6751L102.413 27.6814L103.004 26.875ZM104.305 28.2461L103.491 28.8273L103.5 28.8406L103.51 28.8535L104.305 28.2461ZM104.855 29.0312L104.012 29.5681L104.013 29.5698L104.855 29.0312ZM97.7188 20.0312V19.0312H96.7188V20.0312H97.7188ZM97.7188 24.707H96.7188V25.707H97.7188V24.707ZM101.316 24.0039L102.006 24.728L102.006 24.7278L101.316 24.0039ZM108.031 33H103.684V35H108.031V33ZM104.539 33.4828L101.926 29.1586L100.214 30.193L102.828 34.5172L104.539 33.4828ZM101.93 29.1643C101.725 28.8198 101.524 28.5062 101.328 28.2251L99.6874 29.3687C99.8509 29.6032 100.025 29.8755 100.211 30.1873L101.93 29.1643ZM101.328 28.2251C101.118 27.924 100.893 27.6524 100.649 27.4186L99.2651 28.8626C99.3962 28.9883 99.5379 29.1542 99.6874 29.3687L101.328 28.2251ZM100.679 27.4487C100.426 27.1852 100.135 26.9647 99.8019 26.8108L98.9638 28.6267C99.0366 28.6603 99.1282 28.721 99.235 28.8325L100.679 27.4487ZM99.8442 26.8315C99.4972 26.6511 99.1226 26.5664 98.7383 26.5664V28.5664C98.8227 28.5664 98.8778 28.5833 98.9215 28.606L99.8442 26.8315ZM98.7383 26.5664H97.7188V28.5664H98.7383V26.5664ZM96.7188 27.5664V34H98.7188V27.5664H96.7188ZM97.7188 33H93.9336V35H97.7188V33ZM94.9336 34V17.1953H92.9336V34H94.9336ZM93.9336 18.1953H99.9336V16.1953H93.9336V18.1953ZM99.9336 18.1953C101.877 18.1953 103.153 18.5634 103.923 19.139C104.639 19.6736 105.051 20.4876 105.051 21.7656H107.051C107.051 19.9968 106.443 18.5256 105.12 17.5368C103.851 16.5889 102.068 16.1953 99.9336 16.1953V18.1953ZM105.051 21.7656C105.051 22.2481 104.977 22.6754 104.84 23.0563L106.722 23.7327C106.945 23.1137 107.051 22.455 107.051 21.7656H105.051ZM104.842 23.0516C104.7 23.4391 104.503 23.7851 104.248 24.0948L105.791 25.3662C106.193 24.879 106.503 24.3344 106.721 23.7375L104.842 23.0516ZM104.248 24.0948C103.994 24.4028 103.681 24.6753 103.299 24.9105L104.349 26.6129C104.905 26.27 105.389 25.8551 105.791 25.3662L104.248 24.0948ZM103.293 24.9145C102.918 25.1496 102.489 25.3398 102.001 25.4804L102.554 27.4024C103.206 27.2148 103.809 26.9519 104.356 26.6089L103.293 24.9145ZM101.277 26.4414V26.4883H103.277V26.4414H101.277ZM101.979 27.4428C102.104 27.4817 102.242 27.5513 102.395 27.6686L103.612 26.0814C103.297 25.8393 102.951 25.6511 102.576 25.5338L101.979 27.4428ZM102.413 27.6814C102.592 27.8128 102.772 27.9733 102.953 28.1667L104.415 26.8021C104.158 26.5267 103.885 26.2809 103.595 26.0686L102.413 27.6814ZM102.953 28.1667C103.14 28.3677 103.32 28.5877 103.491 28.8273L105.118 27.6649C104.899 27.3577 104.665 27.0698 104.415 26.8021L102.953 28.1667ZM103.51 28.8535C103.698 29.0985 103.865 29.3367 104.012 29.5681L105.699 28.4944C105.518 28.2102 105.318 27.925 105.099 27.6386L103.51 28.8535ZM104.013 29.5698L107.189 34.5385L108.874 33.4615L105.698 28.4927L104.013 29.5698ZM96.7188 20.0312V24.707H98.7188V20.0312H96.7188ZM97.7188 25.707H99.3594V23.707H97.7188V25.707ZM99.3594 25.707C100.375 25.707 101.293 25.4076 102.006 24.728L100.627 23.2798C100.356 23.5378 99.9685 23.707 99.3594 23.707V25.707ZM102.006 24.7278C102.708 24.0587 103.066 23.2055 103.066 22.2344H101.066C101.066 22.6695 100.924 22.996 100.626 23.28L102.006 24.7278ZM103.066 22.2344C103.066 21.2939 102.776 20.423 102.048 19.8146C101.355 19.2351 100.423 19.0312 99.4297 19.0312V21.0312C100.194 21.0312 100.581 21.1946 100.766 21.3494C100.917 21.4755 101.066 21.7061 101.066 22.2344H103.066ZM99.4297 19.0312H97.7188V21.0312H99.4297V19.0312ZM119.691 34V35H120.691V34H119.691ZM109.613 34H108.613V35H109.613V34ZM109.613 17.1953V16.1953H108.613V17.1953H109.613ZM119.305 17.1953H120.305V16.1953H119.305V17.1953ZM119.305 20.2773V21.2773H120.305V20.2773H119.305ZM113.398 20.2773V19.2773H112.398V20.2773H113.398ZM113.398 24.0156H112.398V25.0156H113.398V24.0156ZM118.895 24.0156H119.895V23.0156H118.895V24.0156ZM118.895 27.0859V28.0859H119.895V27.0859H118.895ZM113.398 27.0859V26.0859H112.398V27.0859H113.398ZM113.398 30.9297H112.398V31.9297H113.398V30.9297ZM119.691 30.9297H120.691V29.9297H119.691V30.9297ZM119.691 33H109.613V35H119.691V33ZM110.613 34V17.1953H108.613V34H110.613ZM109.613 18.1953H119.305V16.1953H109.613V18.1953ZM118.305 17.1953V20.2773H120.305V17.1953H118.305ZM119.305 19.2773H113.398V21.2773H119.305V19.2773ZM112.398 20.2773V24.0156H114.398V20.2773H112.398ZM113.398 25.0156H118.895V23.0156H113.398V25.0156ZM117.895 24.0156V27.0859H119.895V24.0156H117.895ZM118.895 26.0859H113.398V28.0859H118.895V26.0859ZM112.398 27.0859V30.9297H114.398V27.0859H112.398ZM113.398 31.9297H119.691V29.9297H113.398V31.9297ZM118.691 30.9297V34H120.691V30.9297H118.691ZM130.238 31.9492L129.519 32.6437L129.52 32.6455L130.238 31.9492ZM130.273 19.375L129.544 18.6908L130.273 19.375ZM142.203 19.2695L141.475 19.9546L141.476 19.9565L142.203 19.2695ZM142.121 31.8672L141.397 31.1778L141.395 31.1796L142.121 31.8672ZM133.121 21.6719L133.907 22.2905L133.909 22.2875L133.121 21.6719ZM139.297 29.6172L140.071 30.2497L140.074 30.2466L139.297 29.6172ZM136.121 33.293C133.954 33.293 132.263 32.5998 130.956 31.253L129.52 32.6455C131.245 34.4236 133.476 35.293 136.121 35.293V33.293ZM130.958 31.2548C129.65 29.8994 128.965 28.1195 128.965 25.8203H126.965C126.965 28.5524 127.796 30.8584 129.519 32.6437L130.958 31.2548ZM128.965 25.8203C128.965 23.3693 129.668 21.4816 131.003 20.0592L129.544 18.6908C127.8 20.5497 126.965 22.9588 126.965 25.8203H128.965ZM131.003 20.0592C132.328 18.647 134.089 17.9141 136.391 17.9141V15.9141C133.614 15.9141 131.297 16.8218 129.544 18.6908L131.003 20.0592ZM136.391 17.9141C138.548 17.9141 140.209 18.609 141.475 19.9546L142.932 18.5845C141.244 16.7894 139.031 15.9141 136.391 15.9141V17.9141ZM141.476 19.9565C142.753 21.3068 143.43 23.1141 143.43 25.4805H145.43C145.43 22.7062 144.622 20.3729 142.93 18.5826L141.476 19.9565ZM143.43 25.4805C143.43 27.9145 142.727 29.7799 141.397 31.1778L142.845 32.5566C144.593 30.7201 145.43 28.3277 145.43 25.4805H143.43ZM141.395 31.1796C140.074 32.5746 138.348 33.293 136.121 33.293V35.293C138.832 35.293 141.106 34.3941 142.847 32.5547L141.395 31.1796ZM136.285 19.1719C134.666 19.1719 133.314 19.8008 132.333 21.0562L133.909 22.2875C134.491 21.5429 135.248 21.1719 136.285 21.1719V19.1719ZM132.335 21.0532C131.379 22.2684 130.949 23.8237 130.949 25.6211H132.949C132.949 24.1372 133.301 23.0597 133.907 22.2905L132.335 21.0532ZM130.949 25.6211C130.949 27.4365 131.376 28.9996 132.343 30.1981L133.9 28.9426C133.304 28.2035 132.949 27.1338 132.949 25.6211H130.949ZM132.343 30.1981C133.317 31.4068 134.629 32.0234 136.191 32.0234V30.0234C135.222 30.0234 134.487 29.6713 133.9 28.9426L132.343 30.1981ZM136.191 32.0234C137.77 32.0234 139.1 31.4397 140.071 30.2497L138.522 28.9847C137.963 29.6697 137.223 30.0234 136.191 30.0234V32.0234ZM140.074 30.2466C141.03 29.0667 141.445 27.5073 141.445 25.6914H139.445C139.445 27.2192 139.095 28.277 138.52 28.9878L140.074 30.2466ZM141.445 25.6914C141.445 23.8207 141.048 22.2209 140.126 21.0168L138.538 22.2332C139.1 22.9666 139.445 24.0778 139.445 25.6914H141.445ZM140.126 21.0168C139.182 19.7854 137.865 19.1719 136.285 19.1719V21.1719C137.283 21.1719 137.997 21.5271 138.538 22.2332L140.126 21.0168ZM147.031 17.1953V16.1953H146.031V17.1953H147.031ZM150.828 17.1953H151.828V16.1953H150.828V17.1953ZM157.145 17.1953V16.1953H156.145V17.1953H157.145ZM160.93 17.1953H161.93V16.1953H160.93V17.1953ZM159.93 26.7227C159.93 29.1088 159.372 30.7122 158.434 31.7186C157.509 32.7118 156.054 33.293 153.875 33.293V35.293C156.399 35.293 158.472 34.6124 159.898 33.0821C161.311 31.5652 161.93 29.3834 161.93 26.7227H159.93ZM153.875 33.293C151.769 33.293 150.367 32.7276 149.476 31.7651C148.572 30.788 148.031 29.2275 148.031 26.8984H146.031C146.031 29.499 146.631 31.6359 148.008 33.1236C149.399 34.6259 151.419 35.293 153.875 35.293V33.293ZM148.031 26.8984V17.1953H146.031V26.8984H148.031ZM147.031 18.1953H150.828V16.1953H147.031V18.1953ZM149.828 17.1953V26.9453H151.828V17.1953H149.828ZM149.828 26.9453C149.828 28.4075 150.109 29.6884 150.837 30.6197C151.602 31.5979 152.724 32.0234 154.016 32.0234V30.0234C153.182 30.0234 152.711 29.7693 152.413 29.3881C152.078 28.96 151.828 28.2018 151.828 26.9453H149.828ZM154.016 32.0234C155.282 32.0234 156.388 31.6137 157.145 30.6612C157.867 29.7526 158.145 28.5041 158.145 27.0859H156.145C156.145 28.2928 155.9 29.0131 155.579 29.4169C155.293 29.7769 154.836 30.0234 154.016 30.0234V32.0234ZM158.145 27.0859V17.1953H156.145V27.0859H158.145ZM157.145 18.1953H160.93V16.1953H157.145V18.1953ZM159.93 17.1953V26.7227H161.93V17.1953H159.93ZM178.695 34V35H180.521L179.538 33.4615L178.695 34ZM174.348 34L173.492 34.5172L173.784 35H174.348V34ZM171.734 29.6758L170.875 30.1873L170.879 30.193L171.734 29.6758ZM170.621 28.1406L169.899 28.8325L169.914 28.8479L169.929 28.8626L170.621 28.1406ZM170.047 27.7188L169.586 28.606L169.606 28.6168L169.628 28.6267L170.047 27.7188ZM168.383 27.5664V26.5664H167.383V27.5664H168.383ZM168.383 34V35H169.383V34H168.383ZM164.598 34H163.598V35H164.598V34ZM164.598 17.1953V16.1953H163.598V17.1953H164.598ZM176.445 23.3945L177.385 23.7375L177.386 23.7327L176.445 23.3945ZM174.488 25.7617L173.963 24.9105L173.957 24.9145L174.488 25.7617ZM172.941 26.4414L172.665 25.4804L171.941 25.6885V26.4414H172.941ZM172.941 26.4883H171.941V27.2235L172.643 27.4428L172.941 26.4883ZM173.668 26.875L173.06 27.6686L173.068 27.6751L173.077 27.6814L173.668 26.875ZM174.969 28.2461L174.155 28.8273L174.164 28.8406L174.174 28.8535L174.969 28.2461ZM175.52 29.0312L174.676 29.5681L174.677 29.5698L175.52 29.0312ZM168.383 20.0312V19.0312H167.383V20.0312H168.383ZM168.383 24.707H167.383V25.707H168.383V24.707ZM171.98 24.0039L172.67 24.728L172.67 24.7278L171.98 24.0039ZM178.695 33H174.348V35H178.695V33ZM175.204 33.4828L172.59 29.1586L170.879 30.193L173.492 34.5172L175.204 33.4828ZM172.594 29.1643C172.389 28.8198 172.188 28.5062 171.992 28.2251L170.351 29.3687C170.515 29.6032 170.69 29.8755 170.875 30.1873L172.594 29.1643ZM171.992 28.2251C171.782 27.924 171.557 27.6524 171.313 27.4186L169.929 28.8626C170.06 28.9883 170.202 29.1542 170.351 29.3687L171.992 28.2251ZM171.343 27.4487C171.091 27.1852 170.799 26.9647 170.466 26.8108L169.628 28.6267C169.701 28.6603 169.792 28.721 169.899 28.8325L171.343 27.4487ZM170.508 26.8315C170.161 26.6511 169.787 26.5664 169.402 26.5664V28.5664C169.487 28.5664 169.542 28.5833 169.586 28.606L170.508 26.8315ZM169.402 26.5664H168.383V28.5664H169.402V26.5664ZM167.383 27.5664V34H169.383V27.5664H167.383ZM168.383 33H164.598V35H168.383V33ZM165.598 34V17.1953H163.598V34H165.598ZM164.598 18.1953H170.598V16.1953H164.598V18.1953ZM170.598 18.1953C172.541 18.1953 173.817 18.5634 174.587 19.139C175.303 19.6736 175.715 20.4876 175.715 21.7656H177.715C177.715 19.9968 177.108 18.5256 175.784 17.5368C174.515 16.5889 172.732 16.1953 170.598 16.1953V18.1953ZM175.715 21.7656C175.715 22.2481 175.641 22.6754 175.504 23.0563L177.386 23.7327C177.609 23.1137 177.715 22.455 177.715 21.7656H175.715ZM175.506 23.0516C175.365 23.4391 175.167 23.7851 174.912 24.0948L176.456 25.3662C176.857 24.879 177.167 24.3344 177.385 23.7375L175.506 23.0516ZM174.912 24.0948C174.658 24.4028 174.345 24.6753 173.963 24.9105L175.013 26.6129C175.569 26.27 176.053 25.8551 176.456 25.3662L174.912 24.0948ZM173.957 24.9145C173.582 25.1496 173.154 25.3398 172.665 25.4804L173.218 27.4024C173.87 27.2148 174.473 26.9519 175.02 26.6089L173.957 24.9145ZM171.941 26.4414V26.4883H173.941V26.4414H171.941ZM172.643 27.4428C172.768 27.4817 172.907 27.5513 173.06 27.6686L174.276 26.0814C173.961 25.8393 173.615 25.6511 173.24 25.5338L172.643 27.4428ZM173.077 27.6814C173.256 27.8128 173.436 27.9733 173.617 28.1667L175.079 26.8021C174.822 26.5267 174.549 26.2809 174.259 26.0686L173.077 27.6814ZM173.617 28.1667C173.804 28.3677 173.984 28.5877 174.155 28.8273L175.782 27.6649C175.563 27.3577 175.329 27.0698 175.079 26.8021L173.617 28.1667ZM174.174 28.8535C174.362 29.0985 174.529 29.3367 174.676 29.5681L176.363 28.4944C176.182 28.2102 175.982 27.925 175.763 27.6386L174.174 28.8535ZM174.677 29.5698L177.853 34.5385L179.538 33.4615L176.362 28.4927L174.677 29.5698ZM167.383 20.0312V24.707H169.383V20.0312H167.383ZM168.383 25.707H170.023V23.707H168.383V25.707ZM170.023 25.707C171.039 25.707 171.957 25.4076 172.67 24.728L171.291 23.2798C171.02 23.5378 170.633 23.707 170.023 23.707V25.707ZM172.67 24.7278C173.372 24.0587 173.73 23.2055 173.73 22.2344H171.73C171.73 22.6695 171.589 22.996 171.291 23.28L172.67 24.7278ZM173.73 22.2344C173.73 21.2939 173.441 20.423 172.712 19.8146C172.019 19.2351 171.087 19.0312 170.094 19.0312V21.0312C170.858 21.0312 171.245 21.1946 171.43 21.3494C171.581 21.4755 171.73 21.7061 171.73 22.2344H173.73ZM170.094 19.0312H168.383V21.0312H170.094V19.0312ZM190.695 34V35H191.695V34H190.695ZM186.91 34H185.91V35H186.91V34ZM186.91 17.1953V16.1953H185.91V17.1953H186.91ZM190.695 17.1953H191.695V16.1953H190.695V17.1953ZM190.695 33H186.91V35H190.695V33ZM187.91 34V17.1953H185.91V34H187.91ZM186.91 18.1953H190.695V16.1953H186.91V18.1953ZM189.695 17.1953V34H191.695V17.1953H189.695ZM209.645 34V35H210.645V34H209.645ZM205.824 34L204.988 34.5485L205.284 35H205.824V34ZM198.898 23.4414L199.735 22.8929L199.734 22.8916L198.898 23.4414ZM198.055 22.0469L198.949 21.5997L198.673 21.0469H198.055V22.0469ZM198.008 22.0469V21.0469H196.897L197.013 22.1516L198.008 22.0469ZM198.102 34V35H199.102V34H198.102ZM194.527 34H193.527V35H194.527V34ZM194.527 17.1953V16.1953H193.527V17.1953H194.527ZM198.605 17.1953L199.443 16.6493L199.147 16.1953H198.605V17.1953ZM205.273 27.4258L204.436 27.9718L204.439 27.9772L205.273 27.4258ZM206.117 28.7969L205.248 29.2914L205.536 29.7969H206.117V28.7969ZM206.164 28.7969V29.7969H207.337L207.152 28.6389L206.164 28.7969ZM206.07 17.1953V16.1953H205.07V17.1953H206.07ZM209.645 17.1953H210.645V16.1953H209.645V17.1953ZM209.645 33H205.824V35H209.645V33ZM206.66 33.4515L199.735 22.8929L198.062 23.9899L204.988 34.5485L206.66 33.4515ZM199.734 22.8916C199.331 22.2795 199.077 21.856 198.949 21.5997L197.16 22.4941C197.345 22.8627 197.654 23.3689 198.063 23.9912L199.734 22.8916ZM198.055 21.0469H198.008V23.0469H198.055V21.0469ZM197.013 22.1516C197.07 22.6908 197.102 23.5537 197.102 24.7656H199.102C199.102 23.54 199.071 22.5905 199.002 21.9422L197.013 22.1516ZM197.102 24.7656V34H199.102V24.7656H197.102ZM198.102 33H194.527V35H198.102V33ZM195.527 34V17.1953H193.527V34H195.527ZM194.527 18.1953H198.605V16.1953H194.527V18.1953ZM197.768 17.7413L204.436 27.9718L206.111 26.8797L199.443 16.6493L197.768 17.7413ZM204.439 27.9772C204.732 28.4207 205.002 28.8587 205.248 29.2914L206.986 28.3024C206.717 27.8288 206.424 27.3528 206.108 26.8743L204.439 27.9772ZM206.117 29.7969H206.164V27.7969H206.117V29.7969ZM207.152 28.6389C207.104 28.3392 207.07 27.6482 207.07 26.4883H205.07C205.07 27.6252 205.1 28.4733 205.177 28.9549L207.152 28.6389ZM207.07 26.4883V17.1953H205.07V26.4883H207.07ZM206.07 18.1953H209.645V16.1953H206.07V18.1953ZM208.645 17.1953V34H210.645V17.1953H208.645ZM225.289 20.2773V21.2773H226.289V20.2773H225.289ZM220.496 20.2773V19.2773H219.496V20.2773H220.496ZM220.496 34V35H221.496V34H220.496ZM216.699 34H215.699V35H216.699V34ZM216.699 20.2773H217.699V19.2773H216.699V20.2773ZM211.93 20.2773H210.93V21.2773H211.93V20.2773ZM211.93 17.1953V16.1953H210.93V17.1953H211.93ZM225.289 17.1953H226.289V16.1953H225.289V17.1953ZM225.289 19.2773H220.496V21.2773H225.289V19.2773ZM219.496 20.2773V34H221.496V20.2773H219.496ZM220.496 33H216.699V35H220.496V33ZM217.699 34V20.2773H215.699V34H217.699ZM216.699 19.2773H211.93V21.2773H216.699V19.2773ZM212.93 20.2773V17.1953H210.93V20.2773H212.93ZM211.93 18.1953H225.289V16.1953H211.93V18.1953ZM224.289 17.1953V20.2773H226.289V17.1953H224.289ZM241.648 34V35H243.474L242.491 33.4615L241.648 34ZM237.301 34L236.445 34.5172L236.737 35H237.301V34ZM234.688 29.6758L233.828 30.1873L233.832 30.193L234.688 29.6758ZM233.574 28.1406L232.852 28.8325L232.867 28.8479L232.882 28.8626L233.574 28.1406ZM233 27.7188L232.539 28.606L232.56 28.6168L232.581 28.6267L233 27.7188ZM231.336 27.5664V26.5664H230.336V27.5664H231.336ZM231.336 34V35H232.336V34H231.336ZM227.551 34H226.551V35H227.551V34ZM227.551 17.1953V16.1953H226.551V17.1953H227.551ZM239.398 23.3945L240.338 23.7375L240.34 23.7327L239.398 23.3945ZM237.441 25.7617L236.917 24.9105L236.91 24.9145L237.441 25.7617ZM235.895 26.4414L235.618 25.4804L234.895 25.6885V26.4414H235.895ZM235.895 26.4883H234.895V27.2235L235.596 27.4428L235.895 26.4883ZM236.621 26.875L236.013 27.6686L236.021 27.6751L236.03 27.6814L236.621 26.875ZM237.922 28.2461L237.108 28.8273L237.118 28.8406L237.128 28.8535L237.922 28.2461ZM238.473 29.0312L237.629 29.5681L237.63 29.5698L238.473 29.0312ZM231.336 20.0312V19.0312H230.336V20.0312H231.336ZM231.336 24.707H230.336V25.707H231.336V24.707ZM234.934 24.0039L235.623 24.728L235.624 24.7278L234.934 24.0039ZM241.648 33H237.301V35H241.648V33ZM238.157 33.4828L235.543 29.1586L233.832 30.193L236.445 34.5172L238.157 33.4828ZM235.547 29.1643C235.342 28.8198 235.141 28.5062 234.945 28.2251L233.305 29.3687C233.468 29.6032 233.643 29.8755 233.828 30.1873L235.547 29.1643ZM234.945 28.2251C234.736 27.924 234.51 27.6524 234.266 27.4186L232.882 28.8626C233.013 28.9883 233.155 29.1542 233.305 29.3687L234.945 28.2251ZM234.296 27.4487C234.044 27.1852 233.753 26.9647 233.419 26.8108L232.581 28.6267C232.654 28.6603 232.745 28.721 232.852 28.8325L234.296 27.4487ZM233.461 26.8315C233.114 26.6511 232.74 26.5664 232.355 26.5664V28.5664C232.44 28.5664 232.495 28.5833 232.539 28.606L233.461 26.8315ZM232.355 26.5664H231.336V28.5664H232.355V26.5664ZM230.336 27.5664V34H232.336V27.5664H230.336ZM231.336 33H227.551V35H231.336V33ZM228.551 34V17.1953H226.551V34H228.551ZM227.551 18.1953H233.551V16.1953H227.551V18.1953ZM233.551 18.1953C235.494 18.1953 236.77 18.5634 237.54 19.139C238.256 19.6736 238.668 20.4876 238.668 21.7656H240.668C240.668 19.9968 240.061 18.5256 238.737 17.5368C237.469 16.5889 235.685 16.1953 233.551 16.1953V18.1953ZM238.668 21.7656C238.668 22.2481 238.594 22.6754 238.457 23.0563L240.34 23.7327C240.562 23.1137 240.668 22.455 240.668 21.7656H238.668ZM238.459 23.0516C238.318 23.4391 238.12 23.7851 237.865 24.0948L239.409 25.3662C239.81 24.879 240.12 24.3344 240.338 23.7375L238.459 23.0516ZM237.865 24.0948C237.611 24.4028 237.298 24.6753 236.917 24.9105L237.966 26.6129C238.522 26.27 239.006 25.8551 239.409 25.3662L237.865 24.0948ZM236.91 24.9145C236.535 25.1496 236.107 25.3398 235.618 25.4804L236.171 27.4024C236.823 27.2148 237.426 26.9519 237.973 26.6089L236.91 24.9145ZM234.895 26.4414V26.4883H236.895V26.4414H234.895ZM235.596 27.4428C235.721 27.4817 235.86 27.5513 236.013 27.6686L237.23 26.0814C236.914 25.8393 236.568 25.6511 236.193 25.5338L235.596 27.4428ZM236.03 27.6814C236.209 27.8128 236.389 27.9733 236.57 28.1667L238.032 26.8021C237.775 26.5267 237.502 26.2809 237.212 26.0686L236.03 27.6814ZM236.57 28.1667C236.757 28.3677 236.937 28.5877 237.108 28.8273L238.736 27.6649C238.516 27.3577 238.282 27.0698 238.032 26.8021L236.57 28.1667ZM237.128 28.8535C237.315 29.0985 237.482 29.3367 237.629 29.5681L239.316 28.4944C239.135 28.2102 238.935 27.925 238.716 27.6386L237.128 28.8535ZM237.63 29.5698L240.806 34.5385L242.491 33.4615L239.315 28.4927L237.63 29.5698ZM230.336 20.0312V24.707H232.336V20.0312H230.336ZM231.336 25.707H232.977V23.707H231.336V25.707ZM232.977 25.707C233.992 25.707 234.91 25.4076 235.623 24.728L234.244 23.2798C233.973 23.5378 233.586 23.707 232.977 23.707V25.707ZM235.624 24.7278C236.326 24.0587 236.684 23.2055 236.684 22.2344H234.684C234.684 22.6695 234.542 22.996 234.244 23.28L235.624 24.7278ZM236.684 22.2344C236.684 21.2939 236.394 20.423 235.666 19.8146C234.972 19.2351 234.041 19.0312 233.047 19.0312V21.0312C233.811 21.0312 234.198 21.1946 234.383 21.3494C234.534 21.4755 234.684 21.7061 234.684 22.2344H236.684ZM233.047 19.0312H231.336V21.0312H233.047V19.0312ZM247.016 34V35H248.016V34H247.016ZM243.23 34H242.23V35H243.23V34ZM243.23 17.1953V16.1953H242.23V17.1953H243.23ZM247.016 17.1953H248.016V16.1953H247.016V17.1953ZM247.016 33H243.23V35H247.016V33ZM244.23 34V17.1953H242.23V34H244.23ZM243.23 18.1953H247.016V16.1953H243.23V18.1953ZM246.016 17.1953V34H248.016V17.1953H246.016ZM264.641 32.875L265.14 33.7415L265.641 33.4529V32.875H264.641ZM252.125 32.0547L251.431 32.7743L251.434 32.7779L252.125 32.0547ZM263.855 17.6523H264.855V16.9509L264.196 16.7121L263.855 17.6523ZM263.855 21.2031L263.355 22.0688L264.855 22.9366V21.2031H263.855ZM255.254 21.6133L254.536 20.9172L254.536 20.9173L255.254 21.6133ZM255.102 29.6992L254.371 30.3818L254.374 30.385L255.102 29.6992ZM260.855 30.7305L261.292 31.6301L261.855 31.3567V30.7305H260.855ZM260.855 27.4492H261.855V26.4492H260.855V27.4492ZM257.492 27.4492H256.492V28.4492H257.492V27.4492ZM257.492 24.4258V23.4258H256.492V24.4258H257.492ZM264.641 24.4258H265.641V23.4258H264.641V24.4258ZM264.141 32.0085C262.69 32.8447 260.835 33.293 258.523 33.293V35.293C261.087 35.293 263.31 34.7959 265.14 33.7415L264.141 32.0085ZM258.523 33.293C256.01 33.293 254.148 32.6042 252.816 31.3315L251.434 32.7779C253.227 34.4896 255.631 35.293 258.523 35.293V33.293ZM252.819 31.335C251.501 30.0629 250.793 28.2834 250.793 25.8672H248.793C248.793 28.701 249.64 31.0464 251.431 32.7743L252.819 31.335ZM250.793 25.8672C250.793 23.4635 251.558 21.5799 253.047 20.1254L251.649 18.6949C249.731 20.5685 248.793 22.9896 248.793 25.8672H250.793ZM253.047 20.1254C254.528 18.6775 256.525 17.9141 259.145 17.9141V15.9141C256.108 15.9141 253.573 16.8146 251.649 18.6949L253.047 20.1254ZM259.145 17.9141C260.836 17.9141 262.287 18.1479 263.515 18.5926L264.196 16.7121C262.705 16.1724 261.016 15.9141 259.145 15.9141V17.9141ZM262.855 17.6523V21.2031H264.855V17.6523H262.855ZM264.356 20.3375C262.873 19.4799 261.105 19.0781 259.098 19.0781V21.0781C260.841 21.0781 262.244 21.4263 263.355 22.0688L264.356 20.3375ZM259.098 19.0781C257.287 19.0781 255.737 19.6787 254.536 20.9172L255.972 22.3093C256.756 21.5009 257.768 21.0781 259.098 21.0781V19.0781ZM254.536 20.9173C253.335 22.1564 252.777 23.7849 252.777 25.6914H254.777C254.777 24.1917 255.204 23.1014 255.972 22.3093L254.536 20.9173ZM252.777 25.6914C252.777 27.5846 253.264 29.1963 254.371 30.3818L255.832 29.0167C255.174 28.3115 254.777 27.2513 254.777 25.6914H252.777ZM254.374 30.385C255.484 31.5635 256.964 32.1172 258.699 32.1172V30.1172C257.419 30.1172 256.5 29.7255 255.829 29.0135L254.374 30.385ZM258.699 32.1172C259.683 32.1172 260.571 31.9798 261.292 31.6301L260.419 29.8308C260.077 29.9967 259.527 30.1172 258.699 30.1172V32.1172ZM261.855 30.7305V27.4492H259.855V30.7305H261.855ZM260.855 26.4492H257.492V28.4492H260.855V26.4492ZM258.492 27.4492V24.4258H256.492V27.4492H258.492ZM257.492 25.4258H264.641V23.4258H257.492V25.4258ZM263.641 24.4258V32.875H265.641V24.4258H263.641ZM267.711 17.1953V16.1953H266.711V17.1953H267.711ZM271.508 17.1953H272.508V16.1953H271.508V17.1953ZM277.824 17.1953V16.1953H276.824V17.1953H277.824ZM281.609 17.1953H282.609V16.1953H281.609V17.1953ZM280.609 26.7227C280.609 29.1088 280.052 30.7122 279.114 31.7186C278.189 32.7118 276.733 33.293 274.555 33.293V35.293C277.079 35.293 279.151 34.6124 280.577 33.0821C281.991 31.5652 282.609 29.3834 282.609 26.7227H280.609ZM274.555 33.293C272.448 33.293 271.047 32.7276 270.156 31.7651C269.251 30.788 268.711 29.2275 268.711 26.8984H266.711C266.711 29.499 267.311 31.6359 268.688 33.1236C270.078 34.6259 272.099 35.293 274.555 35.293V33.293ZM268.711 26.8984V17.1953H266.711V26.8984H268.711ZM267.711 18.1953H271.508V16.1953H267.711V18.1953ZM270.508 17.1953V26.9453H272.508V17.1953H270.508ZM270.508 26.9453C270.508 28.4075 270.789 29.6884 271.517 30.6197C272.281 31.5979 273.404 32.0234 274.695 32.0234V30.0234C273.862 30.0234 273.391 29.7693 273.093 29.3881C272.758 28.96 272.508 28.2018 272.508 26.9453H270.508ZM274.695 32.0234C275.961 32.0234 277.068 31.6137 277.825 30.6612C278.547 29.7526 278.824 28.5041 278.824 27.0859H276.824C276.824 28.2928 276.58 29.0131 276.259 29.4169C275.973 29.7769 275.515 30.0234 274.695 30.0234V32.0234ZM278.824 27.0859V17.1953H276.824V27.0859H278.824ZM277.824 18.1953H281.609V16.1953H277.824V18.1953ZM280.609 17.1953V26.7227H282.609V17.1953H280.609ZM289.062 34V35H290.062V34H289.062ZM285.277 34H284.277V35H285.277V34ZM285.277 17.1953V16.1953H284.277V17.1953H285.277ZM289.062 17.1953H290.062V16.1953H289.062V17.1953ZM289.062 33H285.277V35H289.062V33ZM286.277 34V17.1953H284.277V34H286.277ZM285.277 18.1953H289.062V16.1953H285.277V18.1953ZM288.062 17.1953V34H290.062V17.1953H288.062ZM308.012 34V35H309.012V34H308.012ZM304.191 34L303.355 34.5485L303.651 35H304.191V34ZM297.266 23.4414L298.102 22.8929L298.101 22.8916L297.266 23.4414ZM296.422 22.0469L297.316 21.5997L297.04 21.0469H296.422V22.0469ZM296.375 22.0469V21.0469H295.264L295.38 22.1516L296.375 22.0469ZM296.469 34V35H297.469V34H296.469ZM292.895 34H291.895V35H292.895V34ZM292.895 17.1953V16.1953H291.895V17.1953H292.895ZM296.973 17.1953L297.81 16.6493L297.515 16.1953H296.973V17.1953ZM303.641 27.4258L302.803 27.9718L302.806 27.9772L303.641 27.4258ZM304.484 28.7969L303.615 29.2914L303.903 29.7969H304.484V28.7969ZM304.531 28.7969V29.7969H305.704L305.519 28.6389L304.531 28.7969ZM304.438 17.1953V16.1953H303.438V17.1953H304.438ZM308.012 17.1953H309.012V16.1953H308.012V17.1953ZM308.012 33H304.191V35H308.012V33ZM305.028 33.4515L298.102 22.8929L296.429 23.9899L303.355 34.5485L305.028 33.4515ZM298.101 22.8916C297.698 22.2795 297.444 21.856 297.316 21.5997L295.527 22.4941C295.712 22.8627 296.021 23.3689 296.43 23.9912L298.101 22.8916ZM296.422 21.0469H296.375V23.0469H296.422V21.0469ZM295.38 22.1516C295.437 22.6908 295.469 23.5537 295.469 24.7656H297.469C297.469 23.54 297.438 22.5905 297.37 21.9422L295.38 22.1516ZM295.469 24.7656V34H297.469V24.7656H295.469ZM296.469 33H292.895V35H296.469V33ZM293.895 34V17.1953H291.895V34H293.895ZM292.895 18.1953H296.973V16.1953H292.895V18.1953ZM296.135 17.7413L302.803 27.9718L304.478 26.8797L297.81 16.6493L296.135 17.7413ZM302.806 27.9772C303.1 28.4207 303.369 28.8587 303.615 29.2914L305.354 28.3024C305.084 27.8288 304.791 27.3528 304.475 26.8743L302.806 27.9772ZM304.484 29.7969H304.531V27.7969H304.484V29.7969ZM305.519 28.6389C305.471 28.3392 305.438 27.6482 305.438 26.4883H303.438C303.438 27.6252 303.467 28.4733 303.544 28.9549L305.519 28.6389ZM305.438 26.4883V17.1953H303.438V26.4883H305.438ZM304.438 18.1953H308.012V16.1953H304.438V18.1953ZM307.012 17.1953V34H309.012V17.1953H307.012ZM325.648 32.875L326.148 33.7415L326.648 33.4529V32.875H325.648ZM313.133 32.0547L312.438 32.7743L312.442 32.7779L313.133 32.0547ZM324.863 17.6523H325.863V16.9509L325.204 16.7121L324.863 17.6523ZM324.863 21.2031L324.363 22.0688L325.863 22.9366V21.2031H324.863ZM316.262 21.6133L315.544 20.9172L315.544 20.9173L316.262 21.6133ZM316.109 29.6992L315.379 30.3818L315.382 30.385L316.109 29.6992ZM321.863 30.7305L322.3 31.6301L322.863 31.3567V30.7305H321.863ZM321.863 27.4492H322.863V26.4492H321.863V27.4492ZM318.5 27.4492H317.5V28.4492H318.5V27.4492ZM318.5 24.4258V23.4258H317.5V24.4258H318.5ZM325.648 24.4258H326.648V23.4258H325.648V24.4258ZM325.149 32.0085C323.698 32.8447 321.843 33.293 319.531 33.293V35.293C322.095 35.293 324.318 34.7959 326.148 33.7415L325.149 32.0085ZM319.531 33.293C317.018 33.293 315.156 32.6042 313.823 31.3315L312.442 32.7779C314.235 34.4896 316.639 35.293 319.531 35.293V33.293ZM313.827 31.335C312.509 30.0629 311.801 28.2834 311.801 25.8672H309.801C309.801 28.701 310.648 31.0464 312.438 32.7743L313.827 31.335ZM311.801 25.8672C311.801 23.4635 312.566 21.5799 314.054 20.1254L312.657 18.6949C310.739 20.5685 309.801 22.9896 309.801 25.8672H311.801ZM314.054 20.1254C315.536 18.6775 317.533 17.9141 320.152 17.9141V15.9141C317.115 15.9141 314.581 16.8146 312.657 18.6949L314.054 20.1254ZM320.152 17.9141C321.843 17.9141 323.295 18.1479 324.523 18.5926L325.204 16.7121C323.713 16.1724 322.024 15.9141 320.152 15.9141V17.9141ZM323.863 17.6523V21.2031H325.863V17.6523H323.863ZM325.364 20.3375C323.881 19.4799 322.113 19.0781 320.105 19.0781V21.0781C321.848 21.0781 323.252 21.4263 324.363 22.0688L325.364 20.3375ZM320.105 19.0781C318.295 19.0781 316.744 19.6787 315.544 20.9172L316.98 22.3093C317.763 21.5009 318.775 21.0781 320.105 21.0781V19.0781ZM315.544 20.9173C314.343 22.1564 313.785 23.7849 313.785 25.6914H315.785C315.785 24.1917 316.212 23.1014 316.98 22.3093L315.544 20.9173ZM313.785 25.6914C313.785 27.5846 314.271 29.1963 315.379 30.3818L316.84 29.0167C316.182 28.3115 315.785 27.2513 315.785 25.6914H313.785ZM315.382 30.385C316.492 31.5635 317.972 32.1172 319.707 32.1172V30.1172C318.426 30.1172 317.508 29.7255 316.837 29.0135L315.382 30.385ZM319.707 32.1172C320.691 32.1172 321.579 31.9798 322.3 31.6301L321.427 29.8308C321.085 29.9967 320.535 30.1172 319.707 30.1172V32.1172ZM322.863 30.7305V27.4492H320.863V30.7305H322.863ZM321.863 26.4492H318.5V28.4492H321.863V26.4492ZM319.5 27.4492V24.4258H317.5V27.4492H319.5ZM318.5 25.4258H325.648V23.4258H318.5V25.4258ZM324.648 24.4258V32.875H326.648V24.4258H324.648ZM120.465 62.4492H119.465V63.0574L120.005 63.3372L120.465 62.4492ZM120.465 59.2266L121.054 58.4186L119.465 57.2598V59.2266H120.465ZM126.605 59.8477L125.998 59.0533L125.992 59.0577L126.605 59.8477ZM126.418 56.4141L125.887 57.2615L125.892 57.2643L126.418 56.4141ZM122.176 55.8047H121.176V56.8047H122.176V55.8047ZM122.176 52.9688V51.9688H121.176V52.9688H122.176ZM121.098 49.8281H120.098V51.7234L121.662 50.6536L121.098 49.8281ZM121.098 46.8047L120.648 45.9114L120.098 46.1885V46.8047H121.098ZM129.23 47.0742L128.6 47.8507L128.603 47.8532L129.23 47.0742ZM127.332 54.2109L127.09 53.2406L126.332 53.4295V54.2109H127.332ZM127.332 54.2695H126.332V55.1523L127.208 55.2618L127.332 54.2695ZM130.145 55.5703L129.422 56.2615L129.426 56.2655L130.145 55.5703ZM121.465 62.4492V59.2266H119.465V62.4492H121.465ZM119.876 60.0346C121.185 60.9895 122.708 61.457 124.402 61.457V59.457C123.097 59.457 121.994 59.1043 121.054 58.4186L119.876 60.0346ZM124.402 61.457C125.478 61.457 126.459 61.2274 127.219 60.6376L125.992 59.0577C125.705 59.2804 125.218 59.457 124.402 59.457V61.457ZM127.213 60.642C128.015 60.0285 128.402 59.1554 128.402 58.1484H126.402C126.402 58.5946 126.258 58.8544 125.998 59.0533L127.213 60.642ZM128.402 58.1484C128.402 57.04 127.885 56.1459 126.944 55.5638L125.892 57.2643C126.264 57.4948 126.402 57.7569 126.402 58.1484H128.402ZM126.949 55.5666C126.081 55.0232 124.977 54.8047 123.734 54.8047V56.8047C124.773 56.8047 125.458 56.9925 125.887 57.2615L126.949 55.5666ZM123.734 54.8047H122.176V56.8047H123.734V54.8047ZM123.176 55.8047V52.9688H121.176V55.8047H123.176ZM122.176 53.9688H123.617V51.9688H122.176V53.9688ZM123.617 53.9688C124.79 53.9688 125.844 53.7797 126.631 53.2568C127.491 52.686 127.898 51.8085 127.898 50.7891H125.898C125.898 51.2228 125.759 51.4351 125.525 51.5909C125.218 51.7945 124.632 51.9688 123.617 51.9688V53.9688ZM127.898 50.7891C127.898 49.8907 127.612 49.0555 126.9 48.4754C126.227 47.9274 125.329 47.7383 124.379 47.7383V49.7383C125.109 49.7383 125.471 49.8909 125.637 50.0265C125.764 50.1301 125.898 50.3203 125.898 50.7891H127.898ZM124.379 47.7383C123.024 47.7383 121.737 48.1793 120.533 49.0027L121.662 50.6536C122.583 50.0238 123.483 49.7383 124.379 49.7383V47.7383ZM122.098 49.8281V46.8047H120.098V49.8281H122.098ZM121.547 47.6979C122.563 47.1865 123.779 46.9141 125.223 46.9141V44.9141C123.526 44.9141 121.991 45.2354 120.648 45.9114L121.547 47.6979ZM125.223 46.9141C126.802 46.9141 127.885 47.2701 128.6 47.8507L129.861 46.2977C128.67 45.3314 127.08 44.9141 125.223 44.9141V46.9141ZM128.603 47.8532C129.328 48.4367 129.672 49.1541 129.672 50.0859H131.672C131.672 48.5491 131.054 47.2586 129.857 46.2952L128.603 47.8532ZM129.672 50.0859C129.672 51.0112 129.44 51.6645 129.06 52.1344C128.676 52.6089 128.056 53.0001 127.09 53.2406L127.574 55.1813C128.835 54.8671 129.885 54.2935 130.614 53.3929C131.347 52.4878 131.672 51.356 131.672 50.0859H129.672ZM126.332 54.2109V54.2695H128.332V54.2109H126.332ZM127.208 55.2618C128.215 55.3877 128.924 55.741 129.422 56.2615L130.867 54.8791C129.99 53.9622 128.824 53.4482 127.456 53.2773L127.208 55.2618ZM129.426 56.2655C129.923 56.7797 130.176 57.4011 130.176 58.1953H132.176C132.176 56.9114 131.741 55.7828 130.863 54.8752L129.426 56.2655ZM130.176 58.1953C130.176 59.4855 129.722 60.4299 128.83 61.1395L130.076 62.7043C131.481 61.5858 132.176 60.0458 132.176 58.1953H130.176ZM128.83 61.1395C127.915 61.8677 126.577 62.293 124.695 62.293V64.293C126.86 64.293 128.694 63.8042 130.076 62.7043L128.83 61.1395ZM124.695 62.293C123.058 62.293 121.822 62.0259 120.925 61.5613L120.005 63.3372C121.28 63.9976 122.864 64.293 124.695 64.293V62.293ZM134.82 63H133.82V64H134.82V63ZM134.82 46.1953V45.1953H133.82V46.1953H134.82ZM147.277 60.6562L146.586 59.9338L146.584 59.9354L147.277 60.6562ZM138.605 49.2773V48.2773H137.605V49.2773H138.605ZM138.605 59.9297H137.605V60.9297H138.605V59.9297ZM144.336 58.4531L143.612 57.7635L143.609 57.7665L144.336 58.4531ZM144.348 50.6602L143.641 51.3673L143.647 51.3732L144.348 50.6602ZM135.82 63V46.1953H133.82V63H135.82ZM134.82 47.1953H140.773V45.1953H134.82V47.1953ZM140.773 47.1953C143.625 47.1953 145.576 47.8493 146.813 48.981C148.033 50.0972 148.727 51.8344 148.727 54.3867H150.727C150.727 51.4781 149.928 49.1196 148.163 47.5054C146.416 45.9065 143.891 45.1953 140.773 45.1953V47.1953ZM148.727 54.3867C148.727 56.7781 147.99 58.5901 146.586 59.9338L147.969 61.3787C149.83 59.5974 150.727 57.2298 150.727 54.3867H148.727ZM146.584 59.9354C145.182 61.2836 143.282 62 140.773 62V64C143.687 64 146.123 63.1539 147.97 61.3771L146.584 59.9354ZM140.773 62H134.82V64H140.773V62ZM137.605 49.2773V59.9297H139.605V49.2773H137.605ZM138.605 60.9297H140.48V58.9297H138.605V60.9297ZM140.48 60.9297C142.334 60.9297 143.905 60.3656 145.063 59.1397L143.609 57.7665C142.907 58.5094 141.909 58.9297 140.48 58.9297V60.9297ZM145.06 59.1428C146.216 57.9293 146.742 56.3191 146.742 54.4336H144.742C144.742 55.9387 144.331 57.0082 143.612 57.7635L145.06 59.1428ZM146.742 54.4336C146.742 52.6291 146.212 51.0904 145.049 49.9471L143.647 51.3732C144.343 52.058 144.742 53.0349 144.742 54.4336H146.742ZM145.055 49.953C143.896 48.7946 142.316 48.2773 140.457 48.2773V50.2773C141.942 50.2773 142.955 50.6819 143.641 51.3673L145.055 49.953ZM140.457 48.2773H138.605V50.2773H140.457V48.2773ZM172.941 61.875L173.441 62.7415L173.941 62.4529V61.875H172.941ZM160.426 61.0547L159.731 61.7743L159.735 61.7779L160.426 61.0547ZM172.156 46.6523H173.156V45.9509L172.497 45.7121L172.156 46.6523ZM172.156 50.2031L171.656 51.0688L173.156 51.9366V50.2031H172.156ZM163.555 50.6133L162.837 49.9172L162.837 49.9173L163.555 50.6133ZM163.402 58.6992L162.671 59.3818L162.674 59.385L163.402 58.6992ZM169.156 59.7305L169.593 60.6301L170.156 60.3567V59.7305H169.156ZM169.156 56.4492H170.156V55.4492H169.156V56.4492ZM165.793 56.4492H164.793V57.4492H165.793V56.4492ZM165.793 53.4258V52.4258H164.793V53.4258H165.793ZM172.941 53.4258H173.941V52.4258H172.941V53.4258ZM172.442 61.0085C170.991 61.8447 169.136 62.293 166.824 62.293V64.293C169.388 64.293 171.611 63.7959 173.441 62.7415L172.442 61.0085ZM166.824 62.293C164.311 62.293 162.449 61.6042 161.116 60.3315L159.735 61.7779C161.527 63.4896 163.932 64.293 166.824 64.293V62.293ZM161.12 60.335C159.802 59.0629 159.094 57.2834 159.094 54.8672H157.094C157.094 57.701 157.941 60.0464 159.731 61.7743L161.12 60.335ZM159.094 54.8672C159.094 52.4635 159.859 50.5799 161.347 49.1254L159.95 47.6949C158.032 49.5685 157.094 51.9896 157.094 54.8672H159.094ZM161.347 49.1254C162.829 47.6775 164.826 46.9141 167.445 46.9141V44.9141C164.408 44.9141 161.874 45.8146 159.95 47.6949L161.347 49.1254ZM167.445 46.9141C169.136 46.9141 170.588 47.1479 171.816 47.5926L172.497 45.7121C171.006 45.1724 169.317 44.9141 167.445 44.9141V46.9141ZM171.156 46.6523V50.2031H173.156V46.6523H171.156ZM172.657 49.3375C171.174 48.4799 169.406 48.0781 167.398 48.0781V50.0781C169.141 50.0781 170.545 50.4263 171.656 51.0688L172.657 49.3375ZM167.398 48.0781C165.588 48.0781 164.037 48.6787 162.837 49.9172L164.273 51.3093C165.056 50.5009 166.068 50.0781 167.398 50.0781V48.0781ZM162.837 49.9173C161.636 51.1564 161.078 52.7849 161.078 54.6914H163.078C163.078 53.1917 163.505 52.1014 164.273 51.3093L162.837 49.9173ZM161.078 54.6914C161.078 56.5846 161.564 58.1963 162.671 59.3818L164.133 58.0167C163.475 57.3115 163.078 56.2513 163.078 54.6914H161.078ZM162.674 59.385C163.785 60.5635 165.265 61.1172 167 61.1172V59.1172C165.719 59.1172 164.801 58.7255 164.13 58.0135L162.674 59.385ZM167 61.1172C167.984 61.1172 168.872 60.9799 169.593 60.6301L168.72 58.8308C168.378 58.9967 167.828 59.1172 167 59.1172V61.1172ZM170.156 59.7305V56.4492H168.156V59.7305H170.156ZM169.156 55.4492H165.793V57.4492H169.156V55.4492ZM166.793 56.4492V53.4258H164.793V56.4492H166.793ZM165.793 54.4258H172.941V52.4258H165.793V54.4258ZM171.941 53.4258V61.875H173.941V53.4258H171.941ZM190.988 63V64H192.405L191.93 62.6649L190.988 63ZM186.863 63L185.911 63.3046L186.133 64H186.863V63ZM185.668 59.2617L186.62 58.9572L186.398 58.2617H185.668V59.2617ZM179.691 59.2617V58.2617H178.959L178.738 58.9599L179.691 59.2617ZM178.508 63V64H179.24L179.461 63.3018L178.508 63ZM174.406 63L173.467 62.6579L172.978 64H174.406V63ZM180.523 46.1953V45.1953H179.823L179.584 45.8533L180.523 46.1953ZM185.012 46.1953L185.954 45.8602L185.717 45.1953H185.012V46.1953ZM184.801 56.3555V57.3555H186.17L185.753 56.0511L184.801 56.3555ZM182.996 50.707L182.042 51.0073L182.044 51.0114L182.996 50.707ZM182.715 49.1953L183.711 49.1024L183.626 48.1953H182.715V49.1953ZM182.621 49.1953V48.1953H181.697L181.624 49.1162L182.621 49.1953ZM182.328 50.6602L181.376 50.3532L181.376 50.3545L182.328 50.6602ZM180.5 56.3555L179.548 56.0498L179.129 57.3555H180.5V56.3555ZM190.988 62H186.863V64H190.988V62ZM187.816 62.6954L186.62 58.9572L184.715 59.5663L185.911 63.3046L187.816 62.6954ZM185.668 58.2617H179.691V60.2617H185.668V58.2617ZM178.738 58.9599L177.554 62.6982L179.461 63.3018L180.645 59.5636L178.738 58.9599ZM178.508 62H174.406V64H178.508V62ZM175.346 63.3421L181.463 46.5374L179.584 45.8533L173.467 62.6579L175.346 63.3421ZM180.523 47.1953H185.012V45.1953H180.523V47.1953ZM184.07 46.5304L190.046 63.3351L191.93 62.6649L185.954 45.8602L184.07 46.5304ZM185.753 56.0511L183.949 50.4027L182.044 51.0114L183.848 56.6598L185.753 56.0511ZM183.95 50.4067C183.844 50.0702 183.761 49.6395 183.711 49.1024L181.719 49.2882C181.778 49.923 181.883 50.5001 182.042 51.0073L183.95 50.4067ZM182.715 48.1953H182.621V50.1953H182.715V48.1953ZM181.624 49.1162C181.592 49.5286 181.51 49.9404 181.376 50.3532L183.28 50.9672C183.459 50.4111 183.573 49.8464 183.618 49.2744L181.624 49.1162ZM181.376 50.3545L179.548 56.0498L181.452 56.6611L183.28 50.9658L181.376 50.3545ZM180.5 57.3555H184.801V55.3555H180.5V57.3555ZM212.234 63V64H213.234V63H212.234ZM208.496 63H207.496V64H208.496V63ZM208.637 49.3477L209.634 49.4189L209.711 48.3477H208.637V49.3477ZM208.543 49.3477V48.3477H207.715L207.56 49.1616L208.543 49.3477ZM208.016 51.5742L207.07 51.2482L207.07 51.2484L208.016 51.5742ZM204.078 63V64H204.791L205.024 63.3258L204.078 63ZM200.984 63L200.042 63.334L200.278 64H200.984V63ZM196.977 51.6914L197.919 51.3574L197.918 51.3535L196.977 51.6914ZM196.449 49.3477L197.431 49.1586L197.275 48.3477H196.449V49.3477ZM196.344 49.3477V48.3477H195.281L195.346 49.4089L196.344 49.3477ZM196.496 63V64H197.496V63H196.496ZM193.086 63H192.086V64H193.086V63ZM193.086 46.1953V45.1953H192.086V46.1953H193.086ZM198.629 46.1953L199.574 45.8694L199.342 45.1953H198.629V46.1953ZM202.062 56.1562L203.008 55.8317L203.008 55.8304L202.062 56.1562ZM202.66 58.5586L201.672 58.7121L201.803 59.5586H202.66V58.5586ZM202.73 58.5586V59.5586H203.529L203.706 58.7799L202.73 58.5586ZM203.398 56.1328L202.453 55.8062L202.452 55.8101L203.398 56.1328ZM206.832 46.1953V45.1953H206.12L205.887 45.8687L206.832 46.1953ZM212.234 46.1953H213.234V45.1953H212.234V46.1953ZM212.234 62H208.496V64H212.234V62ZM209.496 63V52.9453H207.496V63H209.496ZM209.496 52.9453C209.496 51.8875 209.542 50.7125 209.634 49.4189L207.639 49.2764C207.544 50.6079 207.496 51.8313 207.496 52.9453H209.496ZM208.637 48.3477H208.543V50.3477H208.637V48.3477ZM207.56 49.1616C207.366 50.1875 207.201 50.8686 207.07 51.2482L208.961 51.9002C209.143 51.3736 209.329 50.5703 209.525 49.5337L207.56 49.1616ZM207.07 51.2484L203.133 62.6742L205.024 63.3258L208.961 51.9L207.07 51.2484ZM204.078 62H200.984V64H204.078V62ZM201.927 62.666L197.919 51.3574L196.034 52.0255L200.042 63.334L201.927 62.666ZM197.918 51.3535C197.84 51.1381 197.679 50.4444 197.431 49.1586L195.467 49.5367C195.704 50.7665 195.894 51.6354 196.035 52.0293L197.918 51.3535ZM196.449 48.3477H196.344V50.3477H196.449V48.3477ZM195.346 49.4089C195.446 51.0509 195.496 52.4828 195.496 53.707H197.496C197.496 52.4313 197.444 50.9569 197.342 49.2864L195.346 49.4089ZM195.496 53.707V63H197.496V53.707H195.496ZM196.496 62H193.086V64H196.496V62ZM194.086 63V46.1953H192.086V63H194.086ZM193.086 47.1953H198.629V45.1953H193.086V47.1953ZM197.684 46.5212L201.117 56.4821L203.008 55.8304L199.574 45.8694L197.684 46.5212ZM201.117 56.4808C201.372 57.2239 201.556 57.9675 201.672 58.7121L203.648 58.4051C203.514 57.5403 203.3 56.6823 203.008 55.8317L201.117 56.4808ZM202.66 59.5586H202.73V57.5586H202.66V59.5586ZM203.706 58.7799C203.911 57.8745 204.125 57.1013 204.345 56.4555L202.452 55.8101C202.203 56.5393 201.972 57.3833 201.755 58.3373L203.706 58.7799ZM204.344 56.4594L207.777 46.5219L205.887 45.8687L202.453 55.8062L204.344 56.4594ZM206.832 47.1953H212.234V45.1953H206.832V47.1953ZM211.234 46.1953V63H213.234V46.1953H211.234ZM226.133 63V64H227.133V63H226.133ZM216.055 63H215.055V64H216.055V63ZM216.055 46.1953V45.1953H215.055V46.1953H216.055ZM225.746 46.1953H226.746V45.1953H225.746V46.1953ZM225.746 49.2773V50.2773H226.746V49.2773H225.746ZM219.84 49.2773V48.2773H218.84V49.2773H219.84ZM219.84 53.0156H218.84V54.0156H219.84V53.0156ZM225.336 53.0156H226.336V52.0156H225.336V53.0156ZM225.336 56.0859V57.0859H226.336V56.0859H225.336ZM219.84 56.0859V55.0859H218.84V56.0859H219.84ZM219.84 59.9297H218.84V60.9297H219.84V59.9297ZM226.133 59.9297H227.133V58.9297H226.133V59.9297ZM226.133 62H216.055V64H226.133V62ZM217.055 63V46.1953H215.055V63H217.055ZM216.055 47.1953H225.746V45.1953H216.055V47.1953ZM224.746 46.1953V49.2773H226.746V46.1953H224.746ZM225.746 48.2773H219.84V50.2773H225.746V48.2773ZM218.84 49.2773V53.0156H220.84V49.2773H218.84ZM219.84 54.0156H225.336V52.0156H219.84V54.0156ZM224.336 53.0156V56.0859H226.336V53.0156H224.336ZM225.336 55.0859H219.84V57.0859H225.336V55.0859ZM218.84 56.0859V59.9297H220.84V56.0859H218.84ZM219.84 60.9297H226.133V58.9297H219.84V60.9297ZM225.133 59.9297V63H227.133V59.9297H225.133Z" fill="white" mask="url(#path-1-outside-1_3_46)"/>
</g>
<defs>
<filter id="filter0_d_3_46" x="0.925781" y="0.914062" width="344.723" height="86.3789" filterUnits="userSpaceOnUse" color-interpolation-filters="sRGB">
<feFlood flood-opacity="0" result="BackgroundImageFix"/>
<feColorMatrix in="SourceAlpha" type="matrix" values="0 0 0 0 0 0 0 0 0 0 0 0 0 0 0 0 0 0 127 0" result="hardAlpha"/>
<feOffset dy="4"/>
<feGaussianBlur stdDeviation="10"/>
<feComposite in2="hardAlpha" operator="out"/>
<feColorMatrix type="matrix" values="0 0 0 0 1 0 0 0 0 0.837069 0 0 0 0 0.2125 0 0 0 0.5 0"/>
<feBlend mode="normal" in2="BackgroundImageFix" result="effect1_dropShadow_3_46"/>
<feBlend mode="normal" in="SourceGraphic" in2="effect1_dropShadow_3_46" result="shape"/>
</filter>
<linearGradient id="paint0_linear_3_46" x1="159.025" y1="19.1488" x2="191.533" y2="164.485" gradientUnits="userSpaceOnUse">
<stop stop-color="#EB5D38"/>
<stop offset="0.5" stop-color="#FFD600"/>
</linearGradient>
</defs>
</svg>
