<svg width="274" height="76" viewBox="0 0 274 76" fill="none" xmlns="http://www.w3.org/2000/svg">
<g filter="url(#filter0_d_4_181)">
<mask id="path-1-outside-1_4_181" maskUnits="userSpaceOnUse" x="18" y="15" width="237" height="38" fill="black">
<rect fill="white" x="18" y="15" width="237" height="38"/>
<path d="M67.4062 17.3906L58.5234 51H50.1328L44.5547 29.4375C44.2578 28.3125 44.0781 27.0547 44.0156 25.6641H43.9219C43.7812 27.1953 43.5781 28.4531 43.3125 29.4375L37.5938 51H28.8516L20.0156 17.3906H28.2891L33.0234 39.7734C33.2266 40.7266 33.375 42.0078 33.4688 43.6172H33.6094C33.6719 42.4141 33.8984 41.1016 34.2891 39.6797L40.3828 17.3906H48.4922L54 39.9609C54.2031 40.7891 54.3828 41.9922 54.5391 43.5703H54.6328C54.6953 42.3359 54.8594 41.0859 55.125 39.8203L59.7656 17.3906H67.4062ZM99.4922 51H91.2422L88.8516 43.5234H76.8984L74.5312 51H66.3281L78.5625 17.3906H87.5391L99.4922 51ZM87.1172 37.7109L83.5078 26.4141C83.2422 25.5703 83.0547 24.5625 82.9453 23.3906H82.7578C82.6797 24.375 82.4844 25.3516 82.1719 26.3203L78.5156 37.7109H87.1172ZM131.883 51H123.188L117.961 42.3516C117.57 41.6953 117.195 41.1094 116.836 40.5938C116.477 40.0781 116.109 39.6406 115.734 39.2812C115.375 38.9062 114.992 38.625 114.586 38.4375C114.195 38.2344 113.766 38.1328 113.297 38.1328H111.258V51H103.688V17.3906H115.688C123.844 17.3906 127.922 20.4375 127.922 26.5312C127.922 27.7031 127.742 28.7891 127.383 29.7891C127.023 30.7734 126.516 31.6641 125.859 32.4609C125.203 33.2578 124.406 33.9453 123.469 34.5234C122.547 35.1016 121.516 35.5547 120.375 35.8828V35.9766C120.875 36.1328 121.359 36.3906 121.828 36.75C122.297 37.0938 122.75 37.5 123.188 37.9688C123.625 38.4375 124.039 38.9453 124.43 39.4922C124.836 40.0234 125.203 40.5469 125.531 41.0625L131.883 51ZM111.258 23.0625V32.4141H114.539C116.164 32.4141 117.469 31.9453 118.453 31.0078C119.453 30.0547 119.953 28.875 119.953 27.4688C119.953 24.5312 118.195 23.0625 114.68 23.0625H111.258ZM165.281 51H157.641L143.789 29.8828C142.977 28.6484 142.414 27.7188 142.102 27.0938H142.008C142.133 28.2812 142.195 30.0938 142.195 32.5312V51H135.047V17.3906H143.203L156.539 37.8516C157.148 38.7734 157.711 39.6875 158.227 40.5938H158.32C158.195 39.8125 158.133 38.2734 158.133 35.9766V17.3906H165.281V51ZM180.539 51H172.969V17.3906H180.539V51ZM218.438 51H210.797L196.945 29.8828C196.133 28.6484 195.57 27.7188 195.258 27.0938H195.164C195.289 28.2812 195.352 30.0938 195.352 32.5312V51H188.203V17.3906H196.359L209.695 37.8516C210.305 38.7734 210.867 39.6875 211.383 40.5938H211.477C211.352 39.8125 211.289 38.2734 211.289 35.9766V17.3906H218.438V51ZM253.711 48.75C250.43 50.6406 246.352 51.5859 241.477 51.5859C236.07 51.5859 231.805 50.0938 228.68 47.1094C225.57 44.1094 224.016 39.9844 224.016 34.7344C224.016 29.4531 225.719 25.1484 229.125 21.8203C232.531 18.4922 237.062 16.8281 242.719 16.8281C246.281 16.8281 249.422 17.3203 252.141 18.3047V25.4062C249.547 23.9062 246.375 23.1562 242.625 23.1562C239.484 23.1562 236.922 24.1797 234.938 26.2266C232.969 28.2578 231.984 30.9766 231.984 34.3828C231.984 37.8359 232.867 40.5078 234.633 42.3984C236.414 44.2891 238.812 45.2344 241.828 45.2344C243.641 45.2344 245.078 44.9766 246.141 44.4609V37.8984H239.414V31.8516H253.711V48.75Z"/>
</mask>
<path d="M67.4062 17.3906L58.5234 51H50.1328L44.5547 29.4375C44.2578 28.3125 44.0781 27.0547 44.0156 25.6641H43.9219C43.7812 27.1953 43.5781 28.4531 43.3125 29.4375L37.5938 51H28.8516L20.0156 17.3906H28.2891L33.0234 39.7734C33.2266 40.7266 33.375 42.0078 33.4688 43.6172H33.6094C33.6719 42.4141 33.8984 41.1016 34.2891 39.6797L40.3828 17.3906H48.4922L54 39.9609C54.2031 40.7891 54.3828 41.9922 54.5391 43.5703H54.6328C54.6953 42.3359 54.8594 41.0859 55.125 39.8203L59.7656 17.3906H67.4062ZM99.4922 51H91.2422L88.8516 43.5234H76.8984L74.5312 51H66.3281L78.5625 17.3906H87.5391L99.4922 51ZM87.1172 37.7109L83.5078 26.4141C83.2422 25.5703 83.0547 24.5625 82.9453 23.3906H82.7578C82.6797 24.375 82.4844 25.3516 82.1719 26.3203L78.5156 37.7109H87.1172ZM131.883 51H123.188L117.961 42.3516C117.57 41.6953 117.195 41.1094 116.836 40.5938C116.477 40.0781 116.109 39.6406 115.734 39.2812C115.375 38.9062 114.992 38.625 114.586 38.4375C114.195 38.2344 113.766 38.1328 113.297 38.1328H111.258V51H103.688V17.3906H115.688C123.844 17.3906 127.922 20.4375 127.922 26.5312C127.922 27.7031 127.742 28.7891 127.383 29.7891C127.023 30.7734 126.516 31.6641 125.859 32.4609C125.203 33.2578 124.406 33.9453 123.469 34.5234C122.547 35.1016 121.516 35.5547 120.375 35.8828V35.9766C120.875 36.1328 121.359 36.3906 121.828 36.75C122.297 37.0938 122.75 37.5 123.188 37.9688C123.625 38.4375 124.039 38.9453 124.43 39.4922C124.836 40.0234 125.203 40.5469 125.531 41.0625L131.883 51ZM111.258 23.0625V32.4141H114.539C116.164 32.4141 117.469 31.9453 118.453 31.0078C119.453 30.0547 119.953 28.875 119.953 27.4688C119.953 24.5312 118.195 23.0625 114.68 23.0625H111.258ZM165.281 51H157.641L143.789 29.8828C142.977 28.6484 142.414 27.7188 142.102 27.0938H142.008C142.133 28.2812 142.195 30.0938 142.195 32.5312V51H135.047V17.3906H143.203L156.539 37.8516C157.148 38.7734 157.711 39.6875 158.227 40.5938H158.32C158.195 39.8125 158.133 38.2734 158.133 35.9766V17.3906H165.281V51ZM180.539 51H172.969V17.3906H180.539V51ZM218.438 51H210.797L196.945 29.8828C196.133 28.6484 195.57 27.7188 195.258 27.0938H195.164C195.289 28.2812 195.352 30.0938 195.352 32.5312V51H188.203V17.3906H196.359L209.695 37.8516C210.305 38.7734 210.867 39.6875 211.383 40.5938H211.477C211.352 39.8125 211.289 38.2734 211.289 35.9766V17.3906H218.438V51ZM253.711 48.75C250.43 50.6406 246.352 51.5859 241.477 51.5859C236.07 51.5859 231.805 50.0938 228.68 47.1094C225.57 44.1094 224.016 39.9844 224.016 34.7344C224.016 29.4531 225.719 25.1484 229.125 21.8203C232.531 18.4922 237.062 16.8281 242.719 16.8281C246.281 16.8281 249.422 17.3203 252.141 18.3047V25.4062C249.547 23.9062 246.375 23.1562 242.625 23.1562C239.484 23.1562 236.922 24.1797 234.938 26.2266C232.969 28.2578 231.984 30.9766 231.984 34.3828C231.984 37.8359 232.867 40.5078 234.633 42.3984C236.414 44.2891 238.812 45.2344 241.828 45.2344C243.641 45.2344 245.078 44.9766 246.141 44.4609V37.8984H239.414V31.8516H253.711V48.75Z" fill="url(#paint0_linear_4_181)"/>
<path d="M67.4062 17.3906L68.3731 17.6461L68.7049 16.3906H67.4062V17.3906ZM58.5234 51V52H59.2935L59.4902 51.2555L58.5234 51ZM50.1328 51L49.1647 51.2505L49.3586 52H50.1328V51ZM44.5547 29.4375L45.5228 29.187L45.5216 29.1823L44.5547 29.4375ZM44.0156 25.6641L45.0146 25.6192L44.9717 24.6641H44.0156V25.6641ZM43.9219 25.6641V24.6641H43.0095L42.9261 25.5726L43.9219 25.6641ZM43.3125 29.4375L42.347 29.177L42.3459 29.1811L43.3125 29.4375ZM37.5938 51V52H38.3631L38.5603 51.2564L37.5938 51ZM28.8516 51L27.8844 51.2543L28.0805 52H28.8516V51ZM20.0156 17.3906V16.3906H18.7187L19.0485 17.6449L20.0156 17.3906ZM28.2891 17.3906L29.2674 17.1837L29.0997 16.3906H28.2891V17.3906ZM33.0234 39.7734L32.0451 39.9804L32.0454 39.9819L33.0234 39.7734ZM33.4688 43.6172L32.4704 43.6753L32.5253 44.6172H33.4688V43.6172ZM33.6094 43.6172V44.6172H34.5588L34.608 43.6691L33.6094 43.6172ZM34.2891 39.6797L35.2533 39.9446L35.2537 39.9434L34.2891 39.6797ZM40.3828 17.3906V16.3906H39.6195L39.4182 17.1269L40.3828 17.3906ZM48.4922 17.3906L49.4637 17.1536L49.2775 16.3906H48.4922V17.3906ZM54 39.9609L53.0285 40.198L53.0288 40.1992L54 39.9609ZM54.5391 43.5703L53.5439 43.6688L53.6332 44.5703H54.5391V43.5703ZM54.6328 43.5703V44.5703H55.5835L55.6315 43.6209L54.6328 43.5703ZM55.125 39.8203L56.1037 40.0257L56.1043 40.0229L55.125 39.8203ZM59.7656 17.3906V16.3906H58.9513L58.7864 17.188L59.7656 17.3906ZM66.4394 17.1351L57.5566 50.7445L59.4902 51.2555L68.3731 17.6461L66.4394 17.1351ZM58.5234 50H50.1328V52H58.5234V50ZM51.1009 50.7495L45.5228 29.187L43.5866 29.688L49.1647 51.2505L51.1009 50.7495ZM45.5216 29.1823C45.246 28.1379 45.0745 26.9521 45.0146 25.6192L43.0166 25.709C43.0817 27.1572 43.2696 28.4871 43.5878 29.6927L45.5216 29.1823ZM44.0156 24.6641H43.9219V26.6641H44.0156V24.6641ZM42.9261 25.5726C42.7883 27.0724 42.5922 28.2683 42.347 29.177L44.278 29.698C44.564 28.638 44.7742 27.3183 44.9177 25.7555L42.9261 25.5726ZM42.3459 29.1811L36.6272 50.7436L38.5603 51.2564L44.2791 29.6939L42.3459 29.1811ZM37.5938 50H28.8516V52H37.5938V50ZM29.8187 50.7457L20.9828 17.1364L19.0485 17.6449L27.8844 51.2543L29.8187 50.7457ZM20.0156 18.3906H28.2891V16.3906H20.0156V18.3906ZM27.3107 17.5976L32.0451 39.9804L34.0018 39.5665L29.2674 17.1837L27.3107 17.5976ZM32.0454 39.9819C32.2334 40.864 32.378 42.0884 32.4704 43.6753L34.4671 43.559C34.372 41.9272 34.2197 40.5891 34.0015 39.565L32.0454 39.9819ZM33.4688 44.6172H33.6094V42.6172H33.4688V44.6172ZM34.608 43.6691C34.6661 42.5519 34.8777 41.3118 35.2533 39.9446L33.3248 39.4148C32.9191 40.8914 32.6777 42.2762 32.6107 43.5653L34.608 43.6691ZM35.2537 39.9434L41.3474 17.6543L39.4182 17.1269L33.3245 39.416L35.2537 39.9434ZM40.3828 18.3906H48.4922V16.3906H40.3828V18.3906ZM47.5207 17.6277L53.0285 40.198L54.9715 39.7239L49.4637 17.1536L47.5207 17.6277ZM53.0288 40.1992C53.2149 40.9578 53.3891 42.1051 53.5439 43.6688L55.5342 43.4718C55.3765 41.8793 55.1914 40.6203 54.9712 39.7227L53.0288 40.1992ZM54.5391 44.5703H54.6328V42.5703H54.5391V44.5703ZM55.6315 43.6209C55.6913 42.4409 55.8483 41.2427 56.1037 40.0257L54.1463 39.6149C53.8705 40.9292 53.6993 42.231 53.6341 43.5197L55.6315 43.6209ZM56.1043 40.0229L60.7449 17.5932L58.7864 17.188L54.1457 39.6177L56.1043 40.0229ZM59.7656 18.3906H67.4062V16.3906H59.7656V18.3906ZM99.4922 51V52H100.909L100.434 50.6649L99.4922 51ZM91.2422 51L90.2897 51.3046L90.5121 52H91.2422V51ZM88.8516 43.5234L89.8041 43.2189L89.5817 42.5234H88.8516V43.5234ZM76.8984 43.5234V42.5234H76.1661L75.9451 43.2216L76.8984 43.5234ZM74.5312 51V52H75.2636L75.4846 51.3018L74.5312 51ZM66.3281 51L65.3884 50.6579L64.8999 52H66.3281V51ZM78.5625 17.3906V16.3906H77.8623L77.6228 17.0486L78.5625 17.3906ZM87.5391 17.3906L88.4812 17.0555L88.2448 16.3906H87.5391V17.3906ZM87.1172 37.7109V38.7109H88.4865L88.0697 37.4066L87.1172 37.7109ZM83.5078 26.4141L82.554 26.7144L82.5553 26.7184L83.5078 26.4141ZM82.9453 23.3906L83.941 23.2977L83.8563 22.3906H82.9453V23.3906ZM82.7578 23.3906V22.3906H81.834L81.7609 23.3115L82.7578 23.3906ZM82.1719 26.3203L81.2202 26.0133L81.2197 26.0147L82.1719 26.3203ZM78.5156 37.7109L77.5635 37.4053L77.1444 38.7109H78.5156V37.7109ZM99.4922 50H91.2422V52H99.4922V50ZM92.1947 50.6954L89.8041 43.2189L87.8991 43.828L90.2897 51.3046L92.1947 50.6954ZM88.8516 42.5234H76.8984V44.5234H88.8516V42.5234ZM75.9451 43.2216L73.5779 50.6982L75.4846 51.3018L77.8518 43.8253L75.9451 43.2216ZM74.5312 50H66.3281V52H74.5312V50ZM67.2678 51.3421L79.5022 17.7327L77.6228 17.0486L65.3884 50.6579L67.2678 51.3421ZM78.5625 18.3906H87.5391V16.3906H78.5625V18.3906ZM86.5969 17.7257L98.55 51.3351L100.434 50.6649L88.4812 17.0555L86.5969 17.7257ZM88.0697 37.4066L84.4604 26.1097L82.5553 26.7184L86.1646 38.0153L88.0697 37.4066ZM84.4617 26.1138C84.2229 25.3554 84.0458 24.4207 83.941 23.2977L81.9496 23.4836C82.0636 24.7043 82.2615 25.7852 82.554 26.7143L84.4617 26.1138ZM82.9453 22.3906H82.7578V24.3906H82.9453V22.3906ZM81.7609 23.3115C81.6892 24.2161 81.5096 25.1162 81.2202 26.0133L83.1236 26.6273C83.4592 25.5869 83.6702 24.5339 83.7547 23.4697L81.7609 23.3115ZM81.2197 26.0147L77.5635 37.4053L79.4678 38.0166L83.124 26.6259L81.2197 26.0147ZM78.5156 38.7109H87.1172V36.7109H78.5156V38.7109ZM131.883 51V52H133.709L132.725 50.4615L131.883 51ZM123.188 51L122.332 51.5172L122.623 52H123.188V51ZM117.961 42.3516L117.102 42.8631L117.105 42.8688L117.961 42.3516ZM115.734 39.2812L115.012 39.9732L115.027 39.9885L115.042 40.0032L115.734 39.2812ZM114.586 38.4375L114.125 39.3247L114.145 39.3356L114.167 39.3455L114.586 38.4375ZM111.258 38.1328V37.1328H110.258V38.1328H111.258ZM111.258 51V52H112.258V51H111.258ZM103.688 51H102.688V52H103.688V51ZM103.688 17.3906V16.3906H102.688V17.3906H103.688ZM127.383 29.7891L128.322 30.132L128.324 30.1273L127.383 29.7891ZM123.469 34.5234L122.944 33.6722L122.937 33.6762L123.469 34.5234ZM120.375 35.8828L120.099 34.9218L119.375 35.1299V35.8828H120.375ZM120.375 35.9766H119.375V36.7118L120.077 36.931L120.375 35.9766ZM121.828 36.75L121.22 37.5436L121.228 37.5501L121.237 37.5564L121.828 36.75ZM124.43 39.4922L123.616 40.0734L123.625 40.0867L123.635 40.0996L124.43 39.4922ZM125.531 41.0625L124.688 41.5994L124.689 41.601L125.531 41.0625ZM111.258 23.0625V22.0625H110.258V23.0625H111.258ZM111.258 32.4141H110.258V33.4141H111.258V32.4141ZM118.453 31.0078L119.143 31.732L119.143 31.7317L118.453 31.0078ZM131.883 50H123.188V52H131.883V50ZM124.043 50.4828L118.817 41.8343L117.105 42.8688L122.332 51.5172L124.043 50.4828ZM118.82 41.8401C118.42 41.1675 118.032 40.5608 117.656 40.022L116.016 41.1655C116.359 41.6579 116.721 42.2232 117.102 42.863L118.82 41.8401ZM117.656 40.022C117.267 39.463 116.858 38.9727 116.426 38.5593L115.042 40.0032C115.361 40.3086 115.686 40.6932 116.016 41.1655L117.656 40.022ZM116.456 38.5893C116.024 38.1383 115.542 37.7772 115.005 37.5295L114.167 39.3455C114.443 39.4728 114.726 39.6742 115.012 39.9732L116.456 38.5893ZM115.047 37.5503C114.505 37.2683 113.916 37.1328 113.297 37.1328V39.1328C113.616 39.1328 113.886 39.2005 114.125 39.3247L115.047 37.5503ZM113.297 37.1328H111.258V39.1328H113.297V37.1328ZM110.258 38.1328V51H112.258V38.1328H110.258ZM111.258 50H103.688V52H111.258V50ZM104.688 51V17.3906H102.688V51H104.688ZM103.688 18.3906H115.688V16.3906H103.688V18.3906ZM115.688 18.3906C119.67 18.3906 122.475 19.1396 124.265 20.4769C126 21.7733 126.922 23.7298 126.922 26.5312H128.922C128.922 23.2389 127.805 20.6252 125.462 18.8747C123.174 17.1651 119.861 16.3906 115.688 16.3906V18.3906ZM126.922 26.5312C126.922 27.5996 126.758 28.5699 126.442 29.4509L128.324 30.1273C128.726 29.0082 128.922 27.8066 128.922 26.5312H126.922ZM126.443 29.4461C126.122 30.3258 125.671 31.1171 125.087 31.8252L126.631 33.0966C127.361 32.211 127.925 31.2211 128.322 30.132L126.443 29.4461ZM125.087 31.8252C124.506 32.5317 123.794 33.148 122.944 33.6723L123.994 35.3746C125.018 34.7426 125.901 33.984 126.631 33.0966L125.087 31.8252ZM122.937 33.6762C122.102 34.2004 121.157 34.6172 120.099 34.9218L120.651 36.8438C121.874 36.4922 122.992 36.0027 124 35.3706L122.937 33.6762ZM119.375 35.8828V35.9766H121.375V35.8828H119.375ZM120.077 36.931C120.451 37.0481 120.832 37.2466 121.22 37.5436L122.437 35.9564C121.886 35.5346 121.299 35.2175 120.673 35.0221L120.077 36.931ZM121.237 37.5564C121.65 37.8597 122.057 38.2233 122.456 38.6511L123.919 37.2864C123.443 36.7767 122.943 36.3278 122.419 35.9436L121.237 37.5564ZM122.456 38.6511C122.863 39.0865 123.249 39.5603 123.616 40.0734L125.243 38.9109C124.829 38.3303 124.387 37.7885 123.919 37.2864L122.456 38.6511ZM123.635 40.0996C124.026 40.6102 124.376 41.1101 124.688 41.5994L126.375 40.5256C126.03 39.9836 125.646 39.4367 125.224 38.8847L123.635 40.0996ZM124.689 41.601L131.04 51.5385L132.725 50.4615L126.374 40.524L124.689 41.601ZM110.258 23.0625V32.4141H112.258V23.0625H110.258ZM111.258 33.4141H114.539V31.4141H111.258V33.4141ZM114.539 33.4141C116.367 33.4141 117.937 32.8802 119.143 31.732L117.763 30.2837C117 31.0104 115.961 31.4141 114.539 31.4141V33.4141ZM119.143 31.7317C120.345 30.586 120.953 29.143 120.953 27.4688H118.953C118.953 28.607 118.561 29.5233 117.763 30.2839L119.143 31.7317ZM120.953 27.4688C120.953 25.7939 120.443 24.3722 119.276 23.3967C118.143 22.4499 116.552 22.0625 114.68 22.0625V24.0625C116.323 24.0625 117.369 24.4094 117.994 24.9314C118.584 25.4247 118.953 26.2061 118.953 27.4688H120.953ZM114.68 22.0625H111.258V24.0625H114.68V22.0625ZM165.281 51V52H166.281V51H165.281ZM157.641 51L156.804 51.5485L157.101 52H157.641V51ZM143.789 29.8828L144.625 29.3343L144.624 29.333L143.789 29.8828ZM142.102 27.0938L142.996 26.6465L142.72 26.0938H142.102V27.0938ZM142.008 27.0938V26.0938H140.897L141.013 27.1984L142.008 27.0938ZM142.195 51V52H143.195V51H142.195ZM135.047 51H134.047V52H135.047V51ZM135.047 17.3906V16.3906H134.047V17.3906H135.047ZM143.203 17.3906L144.041 16.8446L143.745 16.3906H143.203V17.3906ZM156.539 37.8516L155.701 38.3976L155.705 38.403L156.539 37.8516ZM158.227 40.5938L157.357 41.0883L157.645 41.5938H158.227V40.5938ZM158.32 40.5938V41.5938H159.493L159.308 40.4358L158.32 40.5938ZM158.133 17.3906V16.3906H157.133V17.3906H158.133ZM165.281 17.3906H166.281V16.3906H165.281V17.3906ZM165.281 50H157.641V52H165.281V50ZM158.477 50.4515L144.625 29.3343L142.953 30.4313L156.804 51.5485L158.477 50.4515ZM144.624 29.333C143.815 28.1037 143.28 27.2154 142.996 26.6465L141.207 27.541C141.548 28.2221 142.138 29.1932 142.954 30.4326L144.624 29.333ZM142.102 26.0938H142.008V28.0938H142.102V26.0938ZM141.013 27.1984C141.133 28.3314 141.195 30.1006 141.195 32.5312H143.195C143.195 30.0869 143.133 28.2311 143.002 26.9891L141.013 27.1984ZM141.195 32.5312V51H143.195V32.5312H141.195ZM142.195 50H135.047V52H142.195V50ZM136.047 51V17.3906H134.047V51H136.047ZM135.047 18.3906H143.203V16.3906H135.047V18.3906ZM142.365 17.9367L155.701 38.3976L157.377 37.3055L144.041 16.8446L142.365 17.9367ZM155.705 38.403C156.303 39.3074 156.853 40.2025 157.357 41.0883L159.096 40.0992C158.568 39.1725 157.994 38.2395 157.373 37.3001L155.705 38.403ZM158.227 41.5938H158.32V39.5938H158.227V41.5938ZM159.308 40.4358C159.197 39.7454 159.133 38.285 159.133 35.9766H157.133C157.133 38.2619 157.193 39.8796 157.333 40.7517L159.308 40.4358ZM159.133 35.9766V17.3906H157.133V35.9766H159.133ZM158.133 18.3906H165.281V16.3906H158.133V18.3906ZM164.281 17.3906V51H166.281V17.3906H164.281ZM180.539 51V52H181.539V51H180.539ZM172.969 51H171.969V52H172.969V51ZM172.969 17.3906V16.3906H171.969V17.3906H172.969ZM180.539 17.3906H181.539V16.3906H180.539V17.3906ZM180.539 50H172.969V52H180.539V50ZM173.969 51V17.3906H171.969V51H173.969ZM172.969 18.3906H180.539V16.3906H172.969V18.3906ZM179.539 17.3906V51H181.539V17.3906H179.539ZM218.438 51V52H219.438V51H218.438ZM210.797 51L209.961 51.5485L210.257 52H210.797V51ZM196.945 29.8828L197.781 29.3343L197.781 29.333L196.945 29.8828ZM195.258 27.0938L196.152 26.6465L195.876 26.0938H195.258V27.0938ZM195.164 27.0938V26.0938H194.053L194.17 27.1984L195.164 27.0938ZM195.352 51V52H196.352V51H195.352ZM188.203 51H187.203V52H188.203V51ZM188.203 17.3906V16.3906H187.203V17.3906H188.203ZM196.359 17.3906L197.197 16.8446L196.901 16.3906H196.359V17.3906ZM209.695 37.8516L208.858 38.3976L208.861 38.403L209.695 37.8516ZM211.383 40.5938L210.514 41.0883L210.801 41.5938H211.383V40.5938ZM211.477 40.5938V41.5938H212.649L212.464 40.4358L211.477 40.5938ZM211.289 17.3906V16.3906H210.289V17.3906H211.289ZM218.438 17.3906H219.438V16.3906H218.438V17.3906ZM218.438 50H210.797V52H218.438V50ZM211.633 50.4515L197.781 29.3343L196.109 30.4313L209.961 51.5485L211.633 50.4515ZM197.781 29.333C196.971 28.1037 196.437 27.2154 196.152 26.6465L194.363 27.541C194.704 28.2221 195.294 29.1932 196.11 30.4326L197.781 29.333ZM195.258 26.0938H195.164V28.0938H195.258V26.0938ZM194.17 27.1984C194.289 28.3314 194.352 30.1006 194.352 32.5312H196.352C196.352 30.0869 196.289 28.2311 196.159 26.9891L194.17 27.1984ZM194.352 32.5312V51H196.352V32.5312H194.352ZM195.352 50H188.203V52H195.352V50ZM189.203 51V17.3906H187.203V51H189.203ZM188.203 18.3906H196.359V16.3906H188.203V18.3906ZM195.522 17.9367L208.858 38.3976L210.533 37.3055L197.197 16.8446L195.522 17.9367ZM208.861 38.403C209.459 39.3074 210.01 40.2025 210.514 41.0883L212.252 40.0992C211.725 39.1725 211.15 38.2395 210.53 37.3001L208.861 38.403ZM211.383 41.5938H211.477V39.5938H211.383V41.5938ZM212.464 40.4358C212.354 39.7454 212.289 38.285 212.289 35.9766H210.289C210.289 38.2619 210.35 39.8796 210.489 40.7517L212.464 40.4358ZM212.289 35.9766V17.3906H210.289V35.9766H212.289ZM211.289 18.3906H218.438V16.3906H211.289V18.3906ZM217.438 17.3906V51H219.438V17.3906H217.438ZM253.711 48.75L254.21 49.6165L254.711 49.3279V48.75H253.711ZM228.68 47.1094L227.985 47.829L227.989 47.8326L228.68 47.1094ZM252.141 18.3047H253.141V17.6032L252.481 17.3644L252.141 18.3047ZM252.141 25.4062L251.64 26.2719L253.141 27.1397V25.4062H252.141ZM234.938 26.2266L234.22 25.5305L234.219 25.5306L234.938 26.2266ZM234.633 42.3984L233.902 43.081L233.905 43.0842L234.633 42.3984ZM246.141 44.4609L246.577 45.3606L247.141 45.0872V44.4609H246.141ZM246.141 37.8984H247.141V36.8984H246.141V37.8984ZM239.414 37.8984H238.414V38.8984H239.414V37.8984ZM239.414 31.8516V30.8516H238.414V31.8516H239.414ZM253.711 31.8516H254.711V30.8516H253.711V31.8516ZM253.212 47.8835C250.12 49.665 246.226 50.5859 241.477 50.5859V52.5859C246.478 52.5859 250.739 51.6163 254.21 49.6165L253.212 47.8835ZM241.477 50.5859C236.26 50.5859 232.265 49.151 229.37 46.3862L227.989 47.8326C231.344 51.0365 235.881 52.5859 241.477 52.5859V50.5859ZM229.374 46.3897C226.501 43.6176 225.016 39.7755 225.016 34.7344H223.016C223.016 40.1932 224.64 44.6011 227.985 47.829L229.374 46.3897ZM225.016 34.7344C225.016 29.6901 226.632 25.6541 229.824 22.5356L228.426 21.1051C224.805 24.6428 223.016 29.2162 223.016 34.7344H225.016ZM229.824 22.5356C233.009 19.4236 237.271 17.8281 242.719 17.8281V15.8281C236.854 15.8281 232.054 17.5607 228.426 21.1051L229.824 22.5356ZM242.719 17.8281C246.191 17.8281 249.213 18.3081 251.8 19.245L252.481 17.3644C249.631 16.3326 246.371 15.8281 242.719 15.8281V17.8281ZM251.141 18.3047V25.4062H253.141V18.3047H251.141ZM252.641 24.5406C249.862 22.933 246.507 22.1562 242.625 22.1562V24.1562C246.243 24.1562 249.232 24.8795 251.64 26.2719L252.641 24.5406ZM242.625 22.1562C239.244 22.1562 236.412 23.2686 234.22 25.5305L235.655 26.9226C237.431 25.0908 239.725 24.1562 242.625 24.1562V22.1562ZM234.219 25.5306C232.034 27.7853 230.984 30.7732 230.984 34.3828H232.984C232.984 31.1799 233.903 28.7303 235.656 26.9225L234.219 25.5306ZM230.984 34.3828C230.984 38.0026 231.912 40.9502 233.902 43.081L235.364 41.7159C233.822 40.0654 232.984 37.6693 232.984 34.3828H230.984ZM233.905 43.0842C235.906 45.2081 238.585 46.2344 241.828 46.2344V44.2344C239.04 44.2344 236.922 43.3701 235.361 41.7127L233.905 43.0842ZM241.828 46.2344C243.719 46.2344 245.325 45.9681 246.577 45.3606L245.704 43.5613C244.831 43.985 243.563 44.2344 241.828 44.2344V46.2344ZM247.141 44.4609V37.8984H245.141V44.4609H247.141ZM246.141 36.8984H239.414V38.8984H246.141V36.8984ZM240.414 37.8984V31.8516H238.414V37.8984H240.414ZM239.414 32.8516H253.711V30.8516H239.414V32.8516ZM252.711 31.8516V48.75H254.711V31.8516H252.711Z" fill="white" mask="url(#path-1-outside-1_4_181)"/>
</g>
<defs>
<filter id="filter0_d_4_181" x="0.015625" y="0.828125" width="273.695" height="74.7578" filterUnits="userSpaceOnUse" color-interpolation-filters="sRGB">
<feFlood flood-opacity="0" result="BackgroundImageFix"/>
<feColorMatrix in="SourceAlpha" type="matrix" values="0 0 0 0 0 0 0 0 0 0 0 0 0 0 0 0 0 0 127 0" result="hardAlpha"/>
<feOffset dy="4"/>
<feGaussianBlur stdDeviation="10"/>
<feComposite in2="hardAlpha" operator="out"/>
<feColorMatrix type="matrix" values="0 0 0 0 1 0 0 0 0 0.837069 0 0 0 0 0.2125 0 0 0 0.5 0"/>
<feBlend mode="normal" in2="BackgroundImageFix" result="effect1_dropShadow_4_181"/>
<feBlend mode="normal" in="SourceGraphic" in2="effect1_dropShadow_4_181" result="shape"/>
</filter>
<linearGradient id="paint0_linear_4_181" x1="124.025" y1="16.0982" x2="143.972" y2="131.039" gradientUnits="userSpaceOnUse">
<stop stop-color="#EB5D38"/>
<stop offset="0.5" stop-color="#FFD600"/>
</linearGradient>
</defs>
</svg>
