<svg width="625" height="128" viewBox="0 0 625 108" fill="none" xmlns="http://www.w3.org/2000/svg">
<g filter="url(#filter0_d_4_169)">
<mask id="path-1-outside-1_4_169" maskUnits="userSpaceOnUse" x="17" y="14" width="590" height="92" fill="black">
<rect fill="white" x="17" y="14" width="590" height="92"/>
<path d="M139.016 17.9766L116.809 102H95.832L81.8867 48.0938C81.1445 45.2812 80.6953 42.1367 80.5391 38.6602H80.3047C79.9531 42.4883 79.4453 45.6328 78.7812 48.0938L64.4844 102H42.6289L20.5391 17.9766H41.2227L53.0586 73.9336C53.5664 76.3164 53.9375 79.5195 54.1719 83.543H54.5234C54.6797 80.5352 55.2461 77.2539 56.2227 73.6992L71.457 17.9766H91.7305L105.5 74.4023C106.008 76.4727 106.457 79.4805 106.848 83.4258H107.082C107.238 80.3398 107.648 77.2148 108.312 74.0508L119.914 17.9766H139.016ZM219.23 102H198.605L192.629 83.3086H162.746L156.828 102H136.32L166.906 17.9766H189.348L219.23 102ZM188.293 68.7773L179.27 40.5352C178.605 38.4258 178.137 35.9062 177.863 32.9766H177.395C177.199 35.4375 176.711 37.8789 175.93 40.3008L166.789 68.7773H188.293ZM300.207 102H278.469L265.402 80.3789C264.426 78.7383 263.488 77.2734 262.59 75.9844C261.691 74.6953 260.773 73.6016 259.836 72.7031C258.938 71.7656 257.98 71.0625 256.965 70.5938C255.988 70.0859 254.914 69.832 253.742 69.832H248.645V102H229.719V17.9766H259.719C280.109 17.9766 290.305 25.5938 290.305 40.8281C290.305 43.7578 289.855 46.4727 288.957 48.9727C288.059 51.4336 286.789 53.6602 285.148 55.6523C283.508 57.6445 281.516 59.3633 279.172 60.8086C276.867 62.2539 274.289 63.3867 271.438 64.207V64.4414C272.688 64.832 273.898 65.4766 275.07 66.375C276.242 67.2344 277.375 68.25 278.469 69.4219C279.562 70.5938 280.598 71.8633 281.574 73.2305C282.59 74.5586 283.508 75.8672 284.328 77.1562L300.207 102ZM248.645 32.1562V55.5352H256.848C260.91 55.5352 264.172 54.3633 266.633 52.0195C269.133 49.6367 270.383 46.6875 270.383 43.1719C270.383 35.8281 265.988 32.1562 257.199 32.1562H248.645ZM383.703 102H364.602L329.973 49.207C327.941 46.1211 326.535 43.7969 325.754 42.2344H325.52C325.832 45.2031 325.988 49.7344 325.988 55.8281V102H308.117V17.9766H328.508L361.848 69.1289C363.371 71.4336 364.777 73.7188 366.066 75.9844H366.301C365.988 74.0312 365.832 70.1836 365.832 64.4414V17.9766H383.703V102ZM421.848 102H402.922V17.9766H421.848V102ZM516.594 102H497.492L462.863 49.207C460.832 46.1211 459.426 43.7969 458.645 42.2344H458.41C458.723 45.2031 458.879 49.7344 458.879 55.8281V102H441.008V17.9766H461.398L494.738 69.1289C496.262 71.4336 497.668 73.7188 498.957 75.9844H499.191C498.879 74.0312 498.723 70.1836 498.723 64.4414V17.9766H516.594V102ZM604.777 96.375C596.574 101.102 586.379 103.465 574.191 103.465C560.676 103.465 550.012 99.7344 542.199 92.2734C534.426 84.7734 530.539 74.4609 530.539 61.3359C530.539 48.1328 534.797 37.3711 543.312 29.0508C551.828 20.7305 563.156 16.5703 577.297 16.5703C586.203 16.5703 594.055 17.8008 600.852 20.2617V38.0156C594.367 34.2656 586.438 32.3906 577.062 32.3906C569.211 32.3906 562.805 34.9492 557.844 40.0664C552.922 45.1445 550.461 51.9414 550.461 60.457C550.461 69.0898 552.668 75.7695 557.082 80.4961C561.535 85.2227 567.531 87.5859 575.07 87.5859C579.602 87.5859 583.195 86.9414 585.852 85.6523V69.2461H569.035V54.1289H604.777V96.375Z"/>
</mask>
<path d="M139.016 17.9766L116.809 102H95.832L81.8867 48.0938C81.1445 45.2812 80.6953 42.1367 80.5391 38.6602H80.3047C79.9531 42.4883 79.4453 45.6328 78.7812 48.0938L64.4844 102H42.6289L20.5391 17.9766H41.2227L53.0586 73.9336C53.5664 76.3164 53.9375 79.5195 54.1719 83.543H54.5234C54.6797 80.5352 55.2461 77.2539 56.2227 73.6992L71.457 17.9766H91.7305L105.5 74.4023C106.008 76.4727 106.457 79.4805 106.848 83.4258H107.082C107.238 80.3398 107.648 77.2148 108.312 74.0508L119.914 17.9766H139.016ZM219.23 102H198.605L192.629 83.3086H162.746L156.828 102H136.32L166.906 17.9766H189.348L219.23 102ZM188.293 68.7773L179.27 40.5352C178.605 38.4258 178.137 35.9062 177.863 32.9766H177.395C177.199 35.4375 176.711 37.8789 175.93 40.3008L166.789 68.7773H188.293ZM300.207 102H278.469L265.402 80.3789C264.426 78.7383 263.488 77.2734 262.59 75.9844C261.691 74.6953 260.773 73.6016 259.836 72.7031C258.938 71.7656 257.98 71.0625 256.965 70.5938C255.988 70.0859 254.914 69.832 253.742 69.832H248.645V102H229.719V17.9766H259.719C280.109 17.9766 290.305 25.5938 290.305 40.8281C290.305 43.7578 289.855 46.4727 288.957 48.9727C288.059 51.4336 286.789 53.6602 285.148 55.6523C283.508 57.6445 281.516 59.3633 279.172 60.8086C276.867 62.2539 274.289 63.3867 271.438 64.207V64.4414C272.688 64.832 273.898 65.4766 275.07 66.375C276.242 67.2344 277.375 68.25 278.469 69.4219C279.562 70.5938 280.598 71.8633 281.574 73.2305C282.59 74.5586 283.508 75.8672 284.328 77.1562L300.207 102ZM248.645 32.1562V55.5352H256.848C260.91 55.5352 264.172 54.3633 266.633 52.0195C269.133 49.6367 270.383 46.6875 270.383 43.1719C270.383 35.8281 265.988 32.1562 257.199 32.1562H248.645ZM383.703 102H364.602L329.973 49.207C327.941 46.1211 326.535 43.7969 325.754 42.2344H325.52C325.832 45.2031 325.988 49.7344 325.988 55.8281V102H308.117V17.9766H328.508L361.848 69.1289C363.371 71.4336 364.777 73.7188 366.066 75.9844H366.301C365.988 74.0312 365.832 70.1836 365.832 64.4414V17.9766H383.703V102ZM421.848 102H402.922V17.9766H421.848V102ZM516.594 102H497.492L462.863 49.207C460.832 46.1211 459.426 43.7969 458.645 42.2344H458.41C458.723 45.2031 458.879 49.7344 458.879 55.8281V102H441.008V17.9766H461.398L494.738 69.1289C496.262 71.4336 497.668 73.7188 498.957 75.9844H499.191C498.879 74.0312 498.723 70.1836 498.723 64.4414V17.9766H516.594V102ZM604.777 96.375C596.574 101.102 586.379 103.465 574.191 103.465C560.676 103.465 550.012 99.7344 542.199 92.2734C534.426 84.7734 530.539 74.4609 530.539 61.3359C530.539 48.1328 534.797 37.3711 543.312 29.0508C551.828 20.7305 563.156 16.5703 577.297 16.5703C586.203 16.5703 594.055 17.8008 600.852 20.2617V38.0156C594.367 34.2656 586.438 32.3906 577.062 32.3906C569.211 32.3906 562.805 34.9492 557.844 40.0664C552.922 45.1445 550.461 51.9414 550.461 60.457C550.461 69.0898 552.668 75.7695 557.082 80.4961C561.535 85.2227 567.531 87.5859 575.07 87.5859C579.602 87.5859 583.195 86.9414 585.852 85.6523V69.2461H569.035V54.1289H604.777V96.375Z" fill="url(#paint0_linear_4_169)"/>
<path d="M139.016 17.9766L140.949 18.4876L141.613 15.9766H139.016V17.9766ZM116.809 102V104H118.349L118.742 102.511L116.809 102ZM95.832 102L93.8958 102.501L94.2836 104H95.832V102ZM81.8867 48.0938L83.823 47.5928L83.8205 47.5834L81.8867 48.0938ZM80.5391 38.6602L82.537 38.5704L82.4512 36.6602H80.5391V38.6602ZM80.3047 38.6602V36.6602H78.4799L78.3131 38.4773L80.3047 38.6602ZM78.7812 48.0938L76.8503 47.5727L76.8481 47.581L78.7812 48.0938ZM64.4844 102V104H66.0231L66.4175 102.513L64.4844 102ZM42.6289 102L40.6946 102.509L41.0867 104H42.6289V102ZM20.5391 17.9766V15.9766H17.9453L18.6048 18.4851L20.5391 17.9766ZM41.2227 17.9766L43.1794 17.5627L42.8439 15.9766H41.2227V17.9766ZM53.0586 73.9336L51.1019 74.3475L51.1025 74.3505L53.0586 73.9336ZM54.1719 83.543L52.1753 83.6593L52.285 85.543H54.1719V83.543ZM54.5234 83.543V85.543H56.4222L56.5207 83.6467L54.5234 83.543ZM56.2227 73.6992L58.1512 74.229L58.1519 74.2267L56.2227 73.6992ZM71.457 17.9766V15.9766H69.9304L69.5278 17.4491L71.457 17.9766ZM91.7305 17.9766L93.6735 17.5024L93.3011 15.9766H91.7305V17.9766ZM105.5 74.4023L103.557 74.8765L103.558 74.8788L105.5 74.4023ZM106.848 83.4258L104.857 83.6228L105.036 85.4258H106.848V83.4258ZM107.082 83.4258V85.4258H108.983L109.079 83.5269L107.082 83.4258ZM108.312 74.0508L110.27 74.4616L110.271 74.456L108.312 74.0508ZM119.914 17.9766V15.9766H118.285L117.956 17.5714L119.914 17.9766ZM137.082 17.4655L114.875 101.489L118.742 102.511L140.949 18.4876L137.082 17.4655ZM116.809 100H95.832V104H116.809V100ZM97.7683 101.499L83.823 47.5928L79.9505 48.5947L93.8958 102.501L97.7683 101.499ZM83.8205 47.5834C83.1209 44.9321 82.6881 41.9316 82.537 38.5704L78.5411 38.75C78.7025 42.3418 79.1682 45.6304 79.9529 48.6041L83.8205 47.5834ZM80.5391 36.6602H80.3047V40.6602H80.5391V36.6602ZM78.3131 38.4773C77.9673 42.2424 77.4735 45.2631 76.8503 47.5727L80.7122 48.6148C81.4171 46.0025 81.939 42.7342 82.2963 38.8431L78.3131 38.4773ZM76.8481 47.581L62.5512 101.487L66.4175 102.513L80.7144 48.6065L76.8481 47.581ZM64.4844 100H42.6289V104H64.4844V100ZM44.5632 101.491L22.4733 17.468L18.6048 18.4851L40.6946 102.509L44.5632 101.491ZM20.5391 19.9766H41.2227V15.9766H20.5391V19.9766ZM39.2659 18.3904L51.1019 74.3475L55.0153 73.5197L43.1794 17.5627L39.2659 18.3904ZM51.1025 74.3505C51.5801 76.5913 51.9435 79.6807 52.1753 83.6593L56.1685 83.4267C55.9315 79.3584 55.5527 76.0415 55.0147 73.5167L51.1025 74.3505ZM54.1719 85.543H54.5234V81.543H54.1719V85.543ZM56.5207 83.6467C56.6681 80.8108 57.2047 77.6743 58.1512 74.229L54.2941 73.1694C53.2875 76.8335 52.6913 80.2595 52.5261 83.4392L56.5207 83.6467ZM58.1519 74.2267L73.3862 18.504L69.5278 17.4491L54.2935 73.1718L58.1519 74.2267ZM71.457 19.9766H91.7305V15.9766H71.457V19.9766ZM89.7875 18.4507L103.557 74.8765L107.443 73.9282L93.6735 17.5024L89.7875 18.4507ZM103.558 74.8788C104.031 76.8101 104.47 79.7063 104.857 83.6228L108.838 83.2287C108.444 79.2546 107.984 76.1352 107.442 73.9259L103.558 74.8788ZM106.848 85.4258H107.082V81.4258H106.848V85.4258ZM109.079 83.5269C109.23 80.5498 109.626 77.5283 110.27 74.4616L106.355 73.64C105.671 76.9014 105.246 80.1299 105.085 83.3246L109.079 83.5269ZM110.271 74.456L121.873 18.3818L117.956 17.5714L106.354 73.6456L110.271 74.456ZM119.914 19.9766H139.016V15.9766H119.914V19.9766ZM219.23 102V104H222.064L221.115 101.33L219.23 102ZM198.605 102L196.7 102.609L197.145 104H198.605V102ZM192.629 83.3086L194.534 82.6995L194.089 81.3086H192.629V83.3086ZM162.746 83.3086V81.3086H161.281L160.839 82.7049L162.746 83.3086ZM156.828 102V104H158.293L158.735 102.604L156.828 102ZM136.32 102L134.441 101.316L133.464 104H136.32V102ZM166.906 17.9766V15.9766H165.506L165.027 17.2924L166.906 17.9766ZM189.348 17.9766L191.232 17.3064L190.759 15.9766H189.348V17.9766ZM188.293 68.7773V70.7773H191.032L190.198 68.1687L188.293 68.7773ZM179.27 40.5352L177.362 41.1357L177.364 41.1438L179.27 40.5352ZM177.863 32.9766L179.855 32.7907L179.685 30.9766H177.863V32.9766ZM177.395 32.9766V30.9766H175.547L175.401 32.8183L177.395 32.9766ZM175.93 40.3008L174.026 39.6868L174.025 39.6895L175.93 40.3008ZM166.789 68.7773L164.885 68.1661L164.047 70.7773H166.789V68.7773ZM219.23 100H198.605V104H219.23V100ZM200.51 101.391L194.534 82.6995L190.724 83.9177L196.7 102.609L200.51 101.391ZM192.629 81.3086H162.746V85.3086H192.629V81.3086ZM160.839 82.7049L154.921 101.396L158.735 102.604L164.653 83.9123L160.839 82.7049ZM156.828 100H136.32V104H156.828V100ZM138.2 102.684L168.786 18.6607L165.027 17.2924L134.441 101.316L138.2 102.684ZM166.906 19.9766H189.348V15.9766H166.906V19.9766ZM187.463 18.6467L217.346 102.67L221.115 101.33L191.232 17.3064L187.463 18.6467ZM190.198 68.1687L181.175 39.9265L177.364 41.1438L186.388 69.386L190.198 68.1687ZM181.177 39.9346C180.567 37.9959 180.119 35.6227 179.855 32.7907L175.872 33.1624C176.154 36.1898 176.644 38.8556 177.362 41.1357L181.177 39.9346ZM177.863 30.9766H177.395V34.9766H177.863V30.9766ZM175.401 32.8183C175.218 35.1196 174.761 37.4082 174.026 39.6868L177.833 40.9148C178.661 38.3496 179.18 35.7554 179.388 33.1348L175.401 32.8183ZM174.025 39.6895L164.885 68.1661L168.693 69.3886L177.834 40.912L174.025 39.6895ZM166.789 70.7773H188.293V66.7773H166.789V70.7773ZM300.207 102V104H303.859L301.892 100.923L300.207 102ZM278.469 102L276.757 103.034L277.341 104H278.469V102ZM265.402 80.3789L263.684 81.4019L263.691 81.4134L265.402 80.3789ZM259.836 72.7031L258.392 74.0869L258.421 74.1177L258.452 74.1471L259.836 72.7031ZM256.965 70.5938L256.042 72.3682L256.084 72.3899L256.127 72.4097L256.965 70.5938ZM248.645 69.832V67.832H246.645V69.832H248.645ZM248.645 102V104H250.645V102H248.645ZM229.719 102H227.719V104H229.719V102ZM229.719 17.9766V15.9766H227.719V17.9766H229.719ZM288.957 48.9727L290.836 49.6585L290.839 49.6491L288.957 48.9727ZM279.172 60.8086L278.122 59.1063L278.116 59.1102L278.109 59.1142L279.172 60.8086ZM271.438 64.207L270.885 62.285L269.438 62.7013V64.207H271.438ZM271.438 64.4414H269.438V65.9118L270.841 66.3504L271.438 64.4414ZM275.07 66.375L273.853 67.9622L273.87 67.9752L273.888 67.9878L275.07 66.375ZM281.574 73.2305L279.947 74.3929L279.966 74.4195L279.986 74.4454L281.574 73.2305ZM284.328 77.1562L282.641 78.23L282.643 78.2333L284.328 77.1562ZM248.645 32.1562V30.1562H246.645V32.1562H248.645ZM248.645 55.5352H246.645V57.5352H248.645V55.5352ZM266.633 52.0195L268.012 53.4678L268.013 53.4673L266.633 52.0195ZM300.207 100H278.469V104H300.207V100ZM280.18 100.966L267.114 79.3445L263.691 81.4134L276.757 103.034L280.18 100.966ZM267.121 79.3559C266.125 77.6826 265.161 76.1764 264.231 74.8408L260.949 77.128C261.815 78.3705 262.727 79.794 263.684 81.4019L267.121 79.3559ZM264.231 74.8408C263.272 73.4651 262.27 72.2657 261.22 71.2591L258.452 74.1471C259.277 74.9375 260.111 75.9255 260.949 77.128L264.231 74.8408ZM261.28 71.3193C260.236 70.2298 259.079 69.3669 257.803 68.7778L256.127 72.4097C256.882 72.7581 257.639 73.3015 258.392 74.0869L261.28 71.3193ZM257.888 68.8193C256.608 68.1538 255.214 67.832 253.742 67.832V71.832C254.614 71.832 255.369 72.0181 256.042 72.3682L257.888 68.8193ZM253.742 67.832H248.645V71.832H253.742V67.832ZM246.645 69.832V102H250.645V69.832H246.645ZM248.645 100H229.719V104H248.645V100ZM231.719 102V17.9766H227.719V102H231.719ZM229.719 19.9766H259.719V15.9766H229.719V19.9766ZM259.719 19.9766C269.723 19.9766 276.862 21.8554 281.461 25.2917C285.951 28.6461 288.305 33.7018 288.305 40.8281H292.305C292.305 32.7201 289.561 26.35 283.855 22.0872C278.259 17.9063 270.105 15.9766 259.719 15.9766V19.9766ZM288.305 40.8281C288.305 43.5509 287.888 46.0344 287.075 48.2963L290.839 49.6491C291.823 46.9109 292.305 43.9648 292.305 40.8281H288.305ZM287.078 48.2868C286.256 50.5383 285.099 52.5662 283.605 54.3809L286.692 56.9238C288.479 54.7541 289.861 52.3289 290.836 49.6585L287.078 48.2868ZM283.605 54.3809C282.113 56.1922 280.291 57.7687 278.122 59.1063L280.222 62.5109C282.74 60.9579 284.903 59.0968 286.692 56.9238L283.605 54.3809ZM278.109 59.1142C275.977 60.4516 273.573 61.5117 270.885 62.285L271.99 66.1291C275.005 65.2617 277.758 64.0562 280.234 62.503L278.109 59.1142ZM269.438 64.207V64.4414H273.438V64.207H269.438ZM270.841 66.3504C271.84 66.6626 272.844 67.1885 273.853 67.9622L276.287 64.7878C274.953 63.7646 273.535 63.0014 272.034 62.5324L270.841 66.3504ZM273.888 67.9878C274.949 68.7663 275.989 69.6967 277.007 70.7865L279.931 68.0572C278.761 66.8033 277.535 65.7025 276.253 64.7622L273.888 67.9878ZM277.007 70.7865C278.038 71.8917 279.018 73.0933 279.947 74.3929L283.202 72.068C282.177 70.6333 281.087 69.2958 279.931 68.0572L277.007 70.7865ZM279.986 74.4454C280.969 75.7321 281.854 76.9937 282.641 78.23L286.015 76.0825C285.162 74.7407 284.21 73.3851 283.163 72.0156L279.986 74.4454ZM282.643 78.2333L298.522 103.077L301.892 100.923L286.013 76.0792L282.643 78.2333ZM246.645 32.1562V55.5352H250.645V32.1562H246.645ZM248.645 57.5352H256.848V53.5352H248.645V57.5352ZM256.848 57.5352C261.317 57.5352 265.109 56.2331 268.012 53.4678L265.254 50.5713C263.235 52.4935 260.503 53.5352 256.848 53.5352V57.5352ZM268.013 53.4673C270.917 50.6994 272.383 47.2235 272.383 43.1719H268.383C268.383 46.1515 267.349 48.574 265.253 50.5718L268.013 53.4673ZM272.383 43.1719C272.383 39.0879 271.144 35.6936 268.369 33.3754C265.664 31.1147 261.823 30.1562 257.199 30.1562V34.1562C261.364 34.1562 264.116 35.0337 265.805 36.4449C267.425 37.7986 268.383 39.9121 268.383 43.1719H272.383ZM257.199 30.1562H248.645V34.1562H257.199V30.1562ZM383.703 102V104H385.703V102H383.703ZM364.602 102L362.929 103.097L363.522 104H364.602V102ZM329.973 49.207L331.645 48.1101L331.643 48.1074L329.973 49.207ZM325.754 42.2344L327.543 41.3399L326.99 40.2344H325.754V42.2344ZM325.52 42.2344V40.2344H323.298L323.531 42.4437L325.52 42.2344ZM325.988 102V104H327.988V102H325.988ZM308.117 102H306.117V104H308.117V102ZM308.117 17.9766V15.9766H306.117V17.9766H308.117ZM328.508 17.9766L330.183 16.8845L329.592 15.9766H328.508V17.9766ZM361.848 69.1289L360.172 70.221L360.179 70.2318L361.848 69.1289ZM366.066 75.9844L364.328 76.9734L364.903 77.9844H366.066V75.9844ZM366.301 75.9844V77.9844H368.646L368.276 75.6684L366.301 75.9844ZM365.832 17.9766V15.9766H363.832V17.9766H365.832ZM383.703 17.9766H385.703V15.9766H383.703V17.9766ZM383.703 100H364.602V104H383.703V100ZM366.274 100.903L331.645 48.1101L328.3 50.304L362.929 103.097L366.274 100.903ZM331.643 48.1074C329.619 45.0316 328.268 42.7901 327.543 41.3399L323.965 43.1288C324.802 44.8036 326.264 47.2105 328.302 50.3067L331.643 48.1074ZM325.754 40.2344H325.52V44.2344H325.754V40.2344ZM323.531 42.4437C323.832 45.3034 323.988 49.7481 323.988 55.8281H327.988C327.988 49.7206 327.833 45.1029 327.509 42.025L323.531 42.4437ZM323.988 55.8281V102H327.988V55.8281H323.988ZM325.988 100H308.117V104H325.988V100ZM310.117 102V17.9766H306.117V102H310.117ZM308.117 19.9766H328.508V15.9766H308.117V19.9766ZM326.832 19.0686L360.172 70.221L363.523 68.0368L330.183 16.8845L326.832 19.0686ZM360.179 70.2318C361.68 72.5015 363.062 74.7487 364.328 76.9734L367.805 74.9953C366.492 72.6888 365.063 70.3657 363.516 68.026L360.179 70.2318ZM366.066 77.9844H366.301V73.9844H366.066V77.9844ZM368.276 75.6684C367.992 73.8971 367.832 70.2066 367.832 64.4414H363.832C363.832 70.1606 363.984 74.1654 364.326 76.3004L368.276 75.6684ZM367.832 64.4414V17.9766H363.832V64.4414H367.832ZM365.832 19.9766H383.703V15.9766H365.832V19.9766ZM381.703 17.9766V102H385.703V17.9766H381.703ZM421.848 102V104H423.848V102H421.848ZM402.922 102H400.922V104H402.922V102ZM402.922 17.9766V15.9766H400.922V17.9766H402.922ZM421.848 17.9766H423.848V15.9766H421.848V17.9766ZM421.848 100H402.922V104H421.848V100ZM404.922 102V17.9766H400.922V102H404.922ZM402.922 19.9766H421.848V15.9766H402.922V19.9766ZM419.848 17.9766V102H423.848V17.9766H419.848ZM516.594 102V104H518.594V102H516.594ZM497.492 102L495.82 103.097L496.412 104H497.492V102ZM462.863 49.207L464.536 48.1101L464.534 48.1074L462.863 49.207ZM458.645 42.2344L460.433 41.3399L459.881 40.2344H458.645V42.2344ZM458.41 42.2344V40.2344H456.189L456.421 42.4437L458.41 42.2344ZM458.879 102V104H460.879V102H458.879ZM441.008 102H439.008V104H441.008V102ZM441.008 17.9766V15.9766H439.008V17.9766H441.008ZM461.398 17.9766L463.074 16.8845L462.482 15.9766H461.398V17.9766ZM494.738 69.1289L493.063 70.221L493.07 70.2318L494.738 69.1289ZM498.957 75.9844L497.219 76.9734L497.794 77.9844H498.957V75.9844ZM499.191 75.9844V77.9844H501.537L501.166 75.6684L499.191 75.9844ZM498.723 17.9766V15.9766H496.723V17.9766H498.723ZM516.594 17.9766H518.594V15.9766H516.594V17.9766ZM516.594 100H497.492V104H516.594V100ZM499.165 100.903L464.536 48.1101L461.191 50.304L495.82 103.097L499.165 100.903ZM464.534 48.1074C462.509 45.0316 461.158 42.7901 460.433 41.3399L456.856 43.1288C457.693 44.8036 459.155 47.2105 461.193 50.3067L464.534 48.1074ZM458.645 40.2344H458.41V44.2344H458.645V40.2344ZM456.421 42.4437C456.722 45.3034 456.879 49.7481 456.879 55.8281H460.879C460.879 49.7206 460.723 45.1029 460.399 42.025L456.421 42.4437ZM456.879 55.8281V102H460.879V55.8281H456.879ZM458.879 100H441.008V104H458.879V100ZM443.008 102V17.9766H439.008V102H443.008ZM441.008 19.9766H461.398V15.9766H441.008V19.9766ZM459.723 19.0686L493.063 70.221L496.414 68.0368L463.074 16.8845L459.723 19.0686ZM493.07 70.2318C494.57 72.5015 495.953 74.7487 497.219 76.9734L500.695 74.9953C499.383 72.6888 497.953 70.3657 496.407 68.026L493.07 70.2318ZM498.957 77.9844H499.191V73.9844H498.957V77.9844ZM501.166 75.6684C500.883 73.8971 500.723 70.2066 500.723 64.4414H496.723C496.723 70.1606 496.875 74.1654 497.217 76.3004L501.166 75.6684ZM500.723 64.4414V17.9766H496.723V64.4414H500.723ZM498.723 19.9766H516.594V15.9766H498.723V19.9766ZM514.594 17.9766V102H518.594V17.9766H514.594ZM604.777 96.375L605.776 98.1079L606.777 97.5309V96.375H604.777ZM542.199 92.2734L540.811 93.7128L540.818 93.7198L542.199 92.2734ZM600.852 20.2617H602.852V18.8588L601.532 18.3812L600.852 20.2617ZM600.852 38.0156L599.85 39.747L602.852 41.4826V38.0156H600.852ZM557.844 40.0664L556.408 38.6743L556.408 38.6745L557.844 40.0664ZM557.082 80.4961L555.62 81.8612L555.626 81.8676L557.082 80.4961ZM585.852 85.6523L586.725 87.4517L587.852 86.9048V85.6523H585.852ZM585.852 69.2461H587.852V67.2461H585.852V69.2461ZM569.035 69.2461H567.035V71.2461H569.035V69.2461ZM569.035 54.1289V52.1289H567.035V54.1289H569.035ZM604.777 54.1289H606.777V52.1289H604.777V54.1289ZM603.779 94.6421C595.955 99.1503 586.127 101.465 574.191 101.465V105.465C586.631 105.465 597.194 103.053 605.776 98.1079L603.779 94.6421ZM574.191 101.465C561.055 101.465 550.933 97.849 543.581 90.8271L540.818 93.7198C549.09 101.62 560.297 105.465 574.191 105.465V101.465ZM543.588 90.8341C536.287 83.7899 532.539 74.0433 532.539 61.3359H528.539C528.539 74.8786 532.565 85.7569 540.811 93.7127L543.588 90.8341ZM532.539 61.3359C532.539 48.6067 536.624 38.3825 544.71 30.4813L541.915 27.6203C532.97 36.3597 528.539 47.6589 528.539 61.3359H532.539ZM544.71 30.4813C552.783 22.5934 563.574 18.5703 577.297 18.5703V14.5703C562.739 14.5703 550.873 18.8676 541.915 27.6203L544.71 30.4813ZM577.297 18.5703C586.023 18.5703 593.636 19.7763 600.171 22.1423L601.532 18.3812C594.473 15.8253 586.383 14.5703 577.297 14.5703V18.5703ZM598.852 20.2617V38.0156H602.852V20.2617H598.852ZM601.853 36.2843C594.996 32.3192 586.702 30.3906 577.062 30.3906V34.3906C586.173 34.3906 593.738 36.2121 599.85 39.747L601.853 36.2843ZM577.062 30.3906C568.73 30.3906 561.786 33.127 556.408 38.6743L559.28 41.4585C563.824 36.7714 569.691 34.3906 577.062 34.3906V30.3906ZM556.408 38.6745C551.052 44.1996 548.461 51.5347 548.461 60.457H552.461C552.461 52.3482 554.791 46.0895 559.28 41.4584L556.408 38.6745ZM548.461 60.457C548.461 69.4232 550.758 76.6544 555.62 81.8612L558.544 79.131C554.578 74.8847 552.461 68.7565 552.461 60.457H548.461ZM555.626 81.8676C560.519 87.0607 567.077 89.5859 575.07 89.5859V85.5859C567.986 85.5859 562.551 83.3846 558.538 79.1246L555.626 81.8676ZM575.07 89.5859C579.758 89.5859 583.69 88.9245 586.725 87.4517L584.978 83.853C582.701 84.9583 579.446 85.5859 575.07 85.5859V89.5859ZM587.852 85.6523V69.2461H583.852V85.6523H587.852ZM585.852 67.2461H569.035V71.2461H585.852V67.2461ZM571.035 69.2461V54.1289H567.035V69.2461H571.035ZM569.035 56.1289H604.777V52.1289H569.035V56.1289ZM602.777 54.1289V96.375H606.777V54.1289H602.777Z" fill="white" mask="url(#path-1-outside-1_4_169)"/>
</g>
<defs>
<filter id="filter0_d_4_169" x="0.539062" y="0.570312" width="624.238" height="126.895" filterUnits="userSpaceOnUse" color-interpolation-filters="sRGB">
<feFlood flood-opacity="0" result="BackgroundImageFix"/>
<feColorMatrix in="SourceAlpha" type="matrix" values="0 0 0 0 0 0 0 0 0 0 0 0 0 0 0 0 0 0 127 0" result="hardAlpha"/>
<feOffset dy="4"/>
<feGaussianBlur stdDeviation="10"/>
<feComposite in2="hardAlpha" operator="out"/>
<feColorMatrix type="matrix" values="0 0 0 0 1 0 0 0 0 0.837069 0 0 0 0 0.2125 0 0 0 0.5 0"/>
<feBlend mode="normal" in2="BackgroundImageFix" result="effect1_dropShadow_4_169"/>
<feBlend mode="normal" in="SourceGraphic" in2="effect1_dropShadow_4_169" result="shape"/>
</filter>
<linearGradient id="paint0_linear_4_169" x1="288.594" y1="10.9286" x2="360.339" y2="309.422" gradientUnits="userSpaceOnUse">
<stop stop-color="#EB5D38"/>
<stop offset="0.5" stop-color="#FFD600"/>
</linearGradient>
</defs>
</svg>
